{
	"patcher" : 	{
		"fileversion" : 1,
		"rect" : [ 814.0, 128.0, 506.0, 607.0 ],
		"bglocked" : 0,
		"defrect" : [ 814.0, 128.0, 506.0, 607.0 ],
		"openrect" : [ 0.0, 0.0, 0.0, 0.0 ],
		"openinpresentation" : 0,
		"default_fontsize" : 12.0,
		"default_fontface" : 0,
		"default_fontname" : "Arial",
		"gridonopen" : 0,
		"gridsize" : [ 15.0, 15.0 ],
		"gridsnaponopen" : 0,
		"toolbarvisible" : 1,
		"boxanimatetime" : 200,
		"imprint" : 0,
		"metadata" : [  ],
		"boxes" : [ 			{
				"box" : 				{
					"maxclass" : "slider",
					"outlettype" : [ "" ],
					"min" : -60.0,
					"id" : "obj-1",
					"patching_rect" : [ 48.0, 225.0, 69.0, 13.0 ],
					"numinlets" : 1,
					"orientation" : 1,
					"numoutlets" : 1,
					"size" : 71.0
				}

			}
, 			{
				"box" : 				{
					"maxclass" : "newobj",
					"text" : "r #1_improstop",
					"outlettype" : [ "" ],
					"id" : "obj-2",
					"fontname" : "Arial",
					"patching_rect" : [ 224.0, 205.0, 82.0, 17.0 ],
					"numinlets" : 0,
					"fontsize" : 9.0,
					"numoutlets" : 1
				}

			}
, 			{
				"box" : 				{
					"maxclass" : "newobj",
					"text" : "r #1_improstart",
					"outlettype" : [ "" ],
					"id" : "obj-3",
					"fontname" : "Arial",
					"patching_rect" : [ 224.0, 189.0, 86.0, 17.0 ],
					"numinlets" : 0,
					"fontsize" : 9.0,
					"numoutlets" : 1
				}

			}
, 			{
				"box" : 				{
					"maxclass" : "newobj",
					"text" : "s #1_KLUDGESTOP",
					"id" : "obj-4",
					"fontname" : "Arial",
					"patching_rect" : [ 118.0, 340.0, 95.0, 17.0 ],
					"numinlets" : 1,
					"fontsize" : 9.0,
					"numoutlets" : 0
				}

			}
, 			{
				"box" : 				{
					"maxclass" : "newobj",
					"text" : "s #1_KLUDGESTOP",
					"id" : "obj-5",
					"fontname" : "Arial",
					"hidden" : 1,
					"patching_rect" : [ 312.0, 203.0, 95.0, 17.0 ],
					"numinlets" : 1,
					"fontsize" : 9.0,
					"numoutlets" : 0
				}

			}
, 			{
				"box" : 				{
					"maxclass" : "newobj",
					"text" : "pcontrol",
					"outlettype" : [ "" ],
					"id" : "obj-6",
					"fontname" : "Arial",
					"patching_rect" : [ 20.0, 427.0, 47.0, 17.0 ],
					"numinlets" : 1,
					"fontsize" : 9.0,
					"numoutlets" : 1
				}

			}
, 			{
				"box" : 				{
					"maxclass" : "newobj",
					"text" : "p",
					"outlettype" : [ "" ],
					"id" : "obj-7",
					"fontname" : "Arial",
					"patching_rect" : [ 20.0, 406.0, 16.0, 17.0 ],
					"numinlets" : 1,
					"fontsize" : 9.0,
					"numoutlets" : 1,
					"patcher" : 					{
						"fileversion" : 1,
						"rect" : [ 676.0, 175.0, 600.0, 426.0 ],
						"bglocked" : 0,
						"defrect" : [ 676.0, 175.0, 600.0, 426.0 ],
						"openrect" : [ 0.0, 0.0, 0.0, 0.0 ],
						"openinpresentation" : 0,
						"default_fontsize" : 12.0,
						"default_fontface" : 0,
						"default_fontname" : "Arial",
						"gridonopen" : 0,
						"gridsize" : [ 15.0, 15.0 ],
						"gridsnaponopen" : 0,
						"toolbarvisible" : 1,
						"boxanimatetime" : 200,
						"imprint" : 0,
						"metadata" : [  ],
						"boxes" : [ 							{
								"box" : 								{
									"maxclass" : "message",
									"text" : "close",
									"outlettype" : [ "" ],
									"id" : "obj-1",
									"fontname" : "Arial",
									"patching_rect" : [ 84.0, 71.0, 33.0, 15.0 ],
									"numinlets" : 2,
									"fontsize" : 9.0,
									"numoutlets" : 1
								}

							}
, 							{
								"box" : 								{
									"maxclass" : "newobj",
									"text" : "sel 1 0",
									"outlettype" : [ "bang", "bang", "" ],
									"id" : "obj-2",
									"fontname" : "Arial",
									"patching_rect" : [ 51.0, 50.0, 41.0, 17.0 ],
									"numinlets" : 1,
									"fontsize" : 9.0,
									"numoutlets" : 3
								}

							}
, 							{
								"box" : 								{
									"maxclass" : "message",
									"text" : "open",
									"outlettype" : [ "" ],
									"id" : "obj-3",
									"fontname" : "Arial",
									"patching_rect" : [ 51.0, 70.0, 30.0, 15.0 ],
									"numinlets" : 2,
									"fontsize" : 9.0,
									"numoutlets" : 1
								}

							}
, 							{
								"box" : 								{
									"maxclass" : "inlet",
									"outlettype" : [ "int" ],
									"id" : "obj-4",
									"patching_rect" : [ 51.0, 30.0, 15.0, 15.0 ],
									"numinlets" : 0,
									"numoutlets" : 1,
									"comment" : ""
								}

							}
, 							{
								"box" : 								{
									"maxclass" : "outlet",
									"id" : "obj-5",
									"patching_rect" : [ 50.0, 112.0, 15.0, 15.0 ],
									"numinlets" : 1,
									"numoutlets" : 0,
									"comment" : ""
								}

							}
 ],
						"lines" : [ 							{
								"patchline" : 								{
									"source" : [ "obj-2", 1 ],
									"destination" : [ "obj-1", 0 ],
									"hidden" : 0,
									"midpoints" : [  ]
								}

							}
, 							{
								"patchline" : 								{
									"source" : [ "obj-2", 0 ],
									"destination" : [ "obj-3", 0 ],
									"hidden" : 0,
									"midpoints" : [  ]
								}

							}
, 							{
								"patchline" : 								{
									"source" : [ "obj-4", 0 ],
									"destination" : [ "obj-2", 0 ],
									"hidden" : 0,
									"midpoints" : [  ]
								}

							}
, 							{
								"patchline" : 								{
									"source" : [ "obj-3", 0 ],
									"destination" : [ "obj-5", 0 ],
									"hidden" : 0,
									"midpoints" : [  ]
								}

							}
, 							{
								"patchline" : 								{
									"source" : [ "obj-1", 0 ],
									"destination" : [ "obj-5", 0 ],
									"hidden" : 0,
									"midpoints" : [  ]
								}

							}
 ]
					}
,
					"saved_object_attributes" : 					{
						"default_fontname" : "Arial",
						"default_fontsize" : 12.0,
						"fontname" : "Arial",
						"globalpatchername" : "",
						"fontface" : 0,
						"fontsize" : 12.0,
						"default_fontface" : 0
					}

				}

			}
, 			{
				"box" : 				{
					"maxclass" : "toggle",
					"outlettype" : [ "int" ],
					"id" : "obj-8",
					"patching_rect" : [ 31.0, 202.0, 13.0, 13.0 ],
					"numinlets" : 1,
					"numoutlets" : 1
				}

			}
, 			{
				"box" : 				{
					"maxclass" : "newobj",
					"text" : "Ofonfree301 #1",
					"id" : "obj-9",
					"fontname" : "Arial",
					"patching_rect" : [ 20.0, 449.0, 73.0, 17.0 ],
					"numinlets" : 1,
					"fontsize" : 9.0,
					"numoutlets" : 0
				}

			}
, 			{
				"box" : 				{
					"maxclass" : "comment",
					"text" : "stop",
					"id" : "obj-10",
					"fontname" : "Arial",
					"textcolor" : [ 1.0, 0.890196, 0.090196, 1.0 ],
					"frgb" : [ 1.0, 0.890196, 0.090196, 1.0 ],
					"patching_rect" : [ 132.0, 223.0, 29.0, 17.0 ],
					"numinlets" : 1,
					"fontsize" : 9.0,
					"numoutlets" : 0
				}

			}
, 			{
				"box" : 				{
					"maxclass" : "message",
					"text" : "#2 $1",
					"outlettype" : [ "" ],
					"id" : "obj-11",
					"fontname" : "Arial",
					"patching_rect" : [ 65.0, 364.0, 38.0, 15.0 ],
					"numinlets" : 2,
					"fontsize" : 9.0,
					"numoutlets" : 1
				}

			}
, 			{
				"box" : 				{
					"maxclass" : "newobj",
					"text" : "s #1_Solo",
					"id" : "obj-12",
					"fontname" : "Arial",
					"patching_rect" : [ 65.0, 384.0, 56.0, 17.0 ],
					"numinlets" : 1,
					"fontsize" : 9.0,
					"numoutlets" : 0
				}

			}
, 			{
				"box" : 				{
					"maxclass" : "toggle",
					"outlettype" : [ "int" ],
					"id" : "obj-13",
					"patching_rect" : [ 85.0, 202.0, 13.0, 13.0 ],
					"numinlets" : 1,
					"numoutlets" : 1
				}

			}
, 			{
				"box" : 				{
					"maxclass" : "message",
					"text" : "set $1",
					"outlettype" : [ "" ],
					"id" : "obj-14",
					"fontname" : "Arial",
					"hidden" : 1,
					"patching_rect" : [ 184.0, 81.0, 39.0, 15.0 ],
					"numinlets" : 2,
					"fontsize" : 9.0,
					"numoutlets" : 1
				}

			}
, 			{
				"box" : 				{
					"maxclass" : "newobj",
					"text" : "route #2",
					"outlettype" : [ "", "" ],
					"id" : "obj-15",
					"fontname" : "Arial",
					"hidden" : 1,
					"patching_rect" : [ 184.0, 59.0, 50.0, 17.0 ],
					"numinlets" : 1,
					"fontsize" : 9.0,
					"numoutlets" : 2
				}

			}
, 			{
				"box" : 				{
					"maxclass" : "newobj",
					"text" : "r #1_Solo",
					"outlettype" : [ "" ],
					"id" : "obj-16",
					"fontname" : "Arial",
					"hidden" : 1,
					"patching_rect" : [ 184.0, 40.0, 56.0, 17.0 ],
					"numinlets" : 0,
					"fontsize" : 9.0,
					"numoutlets" : 1
				}

			}
, 			{
				"box" : 				{
					"maxclass" : "newobj",
					"text" : "r #1_Improvise",
					"outlettype" : [ "" ],
					"id" : "obj-17",
					"fontname" : "Arial",
					"patching_rect" : [ 235.0, 88.0, 82.0, 17.0 ],
					"numinlets" : 0,
					"fontsize" : 9.0,
					"numoutlets" : 1
				}

			}
, 			{
				"box" : 				{
					"maxclass" : "message",
					"text" : "1",
					"outlettype" : [ "" ],
					"id" : "obj-18",
					"fontname" : "Arial",
					"patching_rect" : [ 157.0, 278.0, 16.0, 15.0 ],
					"numinlets" : 2,
					"fontsize" : 9.0,
					"numoutlets" : 1
				}

			}
, 			{
				"box" : 				{
					"maxclass" : "message",
					"text" : "0",
					"outlettype" : [ "" ],
					"id" : "obj-19",
					"fontname" : "Arial",
					"patching_rect" : [ 118.0, 279.0, 16.0, 15.0 ],
					"numinlets" : 2,
					"fontsize" : 9.0,
					"numoutlets" : 1
				}

			}
, 			{
				"box" : 				{
					"maxclass" : "newobj",
					"text" : "s #1_Improvise",
					"id" : "obj-20",
					"fontname" : "Arial",
					"patching_rect" : [ 103.0, 307.0, 82.0, 17.0 ],
					"numinlets" : 1,
					"fontsize" : 9.0,
					"numoutlets" : 0
				}

			}
, 			{
				"box" : 				{
					"maxclass" : "led",
					"outlettype" : [ "int" ],
					"bgcolor" : [ 0.35294, 0.35294, 0.35294, 1.0 ],
					"offcolor" : [ 1.0, 0.666667, 0.0, 1.0 ],
					"id" : "obj-21",
					"oncolor" : [ 1.0, 1.0, 0.0, 1.0 ],
					"patching_rect" : [ 99.0, 207.0, 17.0, 17.0 ],
					"numinlets" : 1,
					"numoutlets" : 1
				}

			}
, 			{
				"box" : 				{
					"maxclass" : "button",
					"outlettype" : [ "bang" ],
					"id" : "obj-22",
					"fgcolor" : [ 0.290196, 0.611765, 0.380392, 1.0 ],
					"patching_rect" : [ 117.0, 204.0, 16.0, 16.0 ],
					"numinlets" : 1,
					"numoutlets" : 1
				}

			}
, 			{
				"box" : 				{
					"maxclass" : "button",
					"outlettype" : [ "bang" ],
					"id" : "obj-23",
					"fgcolor" : [ 1.0, 0.611765, 0.611765, 1.0 ],
					"patching_rect" : [ 117.0, 222.0, 16.0, 16.0 ],
					"numinlets" : 1,
					"numoutlets" : 1
				}

			}
, 			{
				"box" : 				{
					"maxclass" : "message",
					"text" : "#2 $1",
					"outlettype" : [ "" ],
					"id" : "obj-24",
					"fontname" : "Arial",
					"patching_rect" : [ 284.0, 343.0, 38.0, 15.0 ],
					"numinlets" : 2,
					"fontsize" : 9.0,
					"numoutlets" : 1
				}

			}
, 			{
				"box" : 				{
					"maxclass" : "newobj",
					"text" : "prepend #2_light L_mute",
					"outlettype" : [ "" ],
					"id" : "obj-25",
					"fontname" : "Arial",
					"patching_rect" : [ 159.0, 407.0, 123.0, 17.0 ],
					"numinlets" : 1,
					"fontsize" : 9.0,
					"numoutlets" : 1
				}

			}
, 			{
				"box" : 				{
					"maxclass" : "newobj",
					"text" : "< -40",
					"outlettype" : [ "int" ],
					"id" : "obj-26",
					"fontname" : "Arial",
					"patching_rect" : [ 159.0, 388.0, 39.0, 17.0 ],
					"numinlets" : 2,
					"fontsize" : 9.0,
					"numoutlets" : 1
				}

			}
, 			{
				"box" : 				{
					"maxclass" : "newobj",
					"text" : "s #1_light",
					"id" : "obj-27",
					"fontname" : "Arial",
					"patching_rect" : [ 235.0, 433.0, 57.0, 17.0 ],
					"numinlets" : 1,
					"fontsize" : 9.0,
					"numoutlets" : 0
				}

			}
, 			{
				"box" : 				{
					"maxclass" : "newobj",
					"text" : "prepend #2_light L_joue",
					"outlettype" : [ "" ],
					"id" : "obj-28",
					"fontname" : "Arial",
					"patching_rect" : [ 235.0, 382.0, 120.0, 17.0 ],
					"numinlets" : 1,
					"fontsize" : 9.0,
					"numoutlets" : 1
				}

			}
, 			{
				"box" : 				{
					"maxclass" : "comment",
					"text" : "ICI",
					"linecount" : 3,
					"id" : "obj-29",
					"fontname" : "Arial",
					"patching_rect" : [ 0.0, 362.0, 17.0, 41.0 ],
					"numinlets" : 1,
					"fontsize" : 10.0,
					"numoutlets" : 0
				}

			}
, 			{
				"box" : 				{
					"maxclass" : "newobj",
					"text" : "s #1_tranche",
					"id" : "obj-30",
					"fontname" : "Arial",
					"patching_rect" : [ 284.0, 362.0, 71.0, 17.0 ],
					"numinlets" : 1,
					"fontsize" : 9.0,
					"numoutlets" : 0
				}

			}
, 			{
				"box" : 				{
					"maxclass" : "message",
					"text" : "0",
					"outlettype" : [ "" ],
					"id" : "obj-31",
					"fontname" : "Arial",
					"patching_rect" : [ 99.0, 123.0, 16.0, 15.0 ],
					"numinlets" : 2,
					"fontsize" : 9.0,
					"numoutlets" : 1
				}

			}
, 			{
				"box" : 				{
					"maxclass" : "message",
					"text" : "1",
					"outlettype" : [ "" ],
					"id" : "obj-32",
					"fontname" : "Arial",
					"patching_rect" : [ 86.0, 123.0, 16.0, 15.0 ],
					"numinlets" : 2,
					"fontsize" : 9.0,
					"numoutlets" : 1
				}

			}
, 			{
				"box" : 				{
					"maxclass" : "newobj",
					"text" : "loadbang",
					"outlettype" : [ "bang" ],
					"id" : "obj-33",
					"fontname" : "Arial",
					"patching_rect" : [ 99.0, 102.0, 46.0, 17.0 ],
					"numinlets" : 1,
					"fontsize" : 9.0,
					"numoutlets" : 1
				}

			}
, 			{
				"box" : 				{
					"maxclass" : "newobj",
					"text" : "t i i",
					"outlettype" : [ "int", "int" ],
					"id" : "obj-34",
					"fontname" : "Arial",
					"patching_rect" : [ 258.0, 242.0, 63.0, 17.0 ],
					"numinlets" : 1,
					"fontsize" : 9.0,
					"numoutlets" : 2
				}

			}
, 			{
				"box" : 				{
					"maxclass" : "newobj",
					"text" : "gate",
					"outlettype" : [ "" ],
					"id" : "obj-35",
					"fontname" : "Arial",
					"patching_rect" : [ 311.0, 309.0, 27.0, 17.0 ],
					"numinlets" : 2,
					"fontsize" : 9.0,
					"numoutlets" : 1
				}

			}
, 			{
				"box" : 				{
					"maxclass" : "message",
					"text" : "-10000",
					"outlettype" : [ "" ],
					"id" : "obj-36",
					"fontname" : "Arial",
					"patching_rect" : [ 258.0, 305.0, 44.0, 15.0 ],
					"numinlets" : 2,
					"fontsize" : 9.0,
					"numoutlets" : 1
				}

			}
, 			{
				"box" : 				{
					"maxclass" : "newobj",
					"text" : "sel 0 1",
					"outlettype" : [ "bang", "bang", "" ],
					"id" : "obj-37",
					"fontname" : "Arial",
					"patching_rect" : [ 258.0, 261.0, 150.0, 17.0 ],
					"numinlets" : 1,
					"fontsize" : 9.0,
					"numoutlets" : 3
				}

			}
, 			{
				"box" : 				{
					"maxclass" : "toggle",
					"outlettype" : [ "int" ],
					"id" : "obj-38",
					"patching_rect" : [ 58.0, 202.0, 13.0, 13.0 ],
					"numinlets" : 1,
					"numoutlets" : 1
				}

			}
, 			{
				"box" : 				{
					"maxclass" : "newobj",
					"text" : "0.",
					"outlettype" : [ "float" ],
					"id" : "obj-39",
					"fontname" : "Arial",
					"patching_rect" : [ 328.0, 289.0, 27.0, 17.0 ],
					"numinlets" : 2,
					"fontsize" : 9.0,
					"numoutlets" : 1
				}

			}
, 			{
				"box" : 				{
					"maxclass" : "newobj",
					"text" : "+ 60",
					"outlettype" : [ "int" ],
					"id" : "obj-40",
					"fontname" : "Arial",
					"patching_rect" : [ 51.0, 287.0, 26.0, 17.0 ],
					"numinlets" : 2,
					"fontsize" : 9.0,
					"numoutlets" : 1
				}

			}
, 			{
				"box" : 				{
					"maxclass" : "message",
					"text" : "set $1",
					"outlettype" : [ "" ],
					"id" : "obj-41",
					"fontname" : "Arial",
					"patching_rect" : [ 0.0, 149.0, 40.0, 15.0 ],
					"numinlets" : 2,
					"fontsize" : 9.0,
					"numoutlets" : 1
				}

			}
, 			{
				"box" : 				{
					"maxclass" : "number",
					"outlettype" : [ "int", "bang" ],
					"bgcolor" : [ 0.866667, 0.866667, 0.866667, 1.0 ],
					"minimum" : -60,
					"id" : "obj-42",
					"fontname" : "Arial",
					"maximum" : 10,
					"patching_rect" : [ 16.0, 224.0, 34.0, 17.0 ],
					"triscale" : 0.9,
					"numinlets" : 1,
					"fontsize" : 9.0,
					"htextcolor" : [ 0.870588, 0.870588, 0.870588, 1.0 ],
					"numoutlets" : 2
				}

			}
, 			{
				"box" : 				{
					"maxclass" : "comment",
					"text" : "ICI",
					"id" : "obj-43",
					"fontname" : "Arial",
					"patching_rect" : [ 171.0, 21.0, 100.0, 18.0 ],
					"numinlets" : 1,
					"fontsize" : 10.0,
					"numoutlets" : 0
				}

			}
, 			{
				"box" : 				{
					"maxclass" : "button",
					"outlettype" : [ "bang" ],
					"id" : "obj-44",
					"patching_rect" : [ 71.0, 202.0, 13.0, 13.0 ],
					"numinlets" : 1,
					"numoutlets" : 1
				}

			}
, 			{
				"box" : 				{
					"maxclass" : "comment",
					"text" : "start",
					"id" : "obj-45",
					"fontname" : "Arial",
					"textcolor" : [ 1.0, 0.890196, 0.090196, 1.0 ],
					"frgb" : [ 1.0, 0.890196, 0.090196, 1.0 ],
					"patching_rect" : [ 132.0, 204.0, 29.0, 17.0 ],
					"numinlets" : 1,
					"fontsize" : 9.0,
					"numoutlets" : 0
				}

			}
, 			{
				"box" : 				{
					"maxclass" : "comment",
					"text" : "blocks",
					"id" : "obj-46",
					"fontname" : "Arial",
					"patching_rect" : [ 20.0, 213.0, 36.0, 17.0 ],
					"numinlets" : 1,
					"fontsize" : 9.0,
					"numoutlets" : 0
				}

			}
, 			{
				"box" : 				{
					"maxclass" : "panel",
					"bgcolor" : [ 0.294118, 0.294118, 0.294118, 1.0 ],
					"id" : "obj-47",
					"rounded" : 0,
					"border" : 1,
					"patching_rect" : [ 117.0, 202.0, 43.0, 37.0 ],
					"numinlets" : 1,
					"numoutlets" : 0
				}

			}
, 			{
				"box" : 				{
					"maxclass" : "comment",
					"text" : "mte_solo",
					"id" : "obj-48",
					"fontname" : "Arial",
					"patching_rect" : [ 55.0, 214.0, 46.0, 17.0 ],
					"numinlets" : 1,
					"fontsize" : 9.0,
					"numoutlets" : 0
				}

			}
, 			{
				"box" : 				{
					"maxclass" : "panel",
					"bgcolor" : [ 1.0, 0.603922, 0.196078, 1.0 ],
					"id" : "obj-49",
					"rounded" : 0,
					"border" : 1,
					"patching_rect" : [ 16.0, 197.0, 155.0, 46.0 ],
					"numinlets" : 1,
					"numoutlets" : 0
				}

			}
 ],
		"lines" : [ 			{
				"patchline" : 				{
					"source" : [ "obj-6", 0 ],
					"destination" : [ "obj-9", 0 ],
					"hidden" : 0,
					"midpoints" : [  ]
				}

			}
, 			{
				"patchline" : 				{
					"source" : [ "obj-39", 0 ],
					"destination" : [ "obj-35", 1 ],
					"hidden" : 0,
					"midpoints" : [  ]
				}

			}
, 			{
				"patchline" : 				{
					"source" : [ "obj-42", 0 ],
					"destination" : [ "obj-39", 0 ],
					"hidden" : 1,
					"midpoints" : [ 25.5, 284.0, 337.5, 284.0 ]
				}

			}
, 			{
				"patchline" : 				{
					"source" : [ "obj-37", 1 ],
					"destination" : [ "obj-39", 0 ],
					"hidden" : 0,
					"midpoints" : [  ]
				}

			}
, 			{
				"patchline" : 				{
					"source" : [ "obj-34", 1 ],
					"destination" : [ "obj-35", 0 ],
					"hidden" : 0,
					"midpoints" : [  ]
				}

			}
, 			{
				"patchline" : 				{
					"source" : [ "obj-24", 0 ],
					"destination" : [ "obj-30", 0 ],
					"hidden" : 0,
					"midpoints" : [  ]
				}

			}
, 			{
				"patchline" : 				{
					"source" : [ "obj-35", 0 ],
					"destination" : [ "obj-24", 0 ],
					"hidden" : 0,
					"midpoints" : [ 320.5, 326.0, 293.5, 326.0 ]
				}

			}
, 			{
				"patchline" : 				{
					"source" : [ "obj-36", 0 ],
					"destination" : [ "obj-24", 0 ],
					"hidden" : 0,
					"midpoints" : [ 267.5, 333.0, 293.5, 333.0 ]
				}

			}
, 			{
				"patchline" : 				{
					"source" : [ "obj-37", 0 ],
					"destination" : [ "obj-36", 0 ],
					"hidden" : 0,
					"midpoints" : [  ]
				}

			}
, 			{
				"patchline" : 				{
					"source" : [ "obj-34", 0 ],
					"destination" : [ "obj-37", 0 ],
					"hidden" : 0,
					"midpoints" : [  ]
				}

			}
, 			{
				"patchline" : 				{
					"source" : [ "obj-38", 0 ],
					"destination" : [ "obj-34", 0 ],
					"hidden" : 1,
					"midpoints" : [ 65.0, 116.0, 267.5, 116.0 ]
				}

			}
, 			{
				"patchline" : 				{
					"source" : [ "obj-28", 0 ],
					"destination" : [ "obj-27", 0 ],
					"hidden" : 0,
					"midpoints" : [  ]
				}

			}
, 			{
				"patchline" : 				{
					"source" : [ "obj-25", 0 ],
					"destination" : [ "obj-27", 0 ],
					"hidden" : 0,
					"midpoints" : [ 168.5, 427.0, 244.5, 427.0 ]
				}

			}
, 			{
				"patchline" : 				{
					"source" : [ "obj-17", 0 ],
					"destination" : [ "obj-28", 0 ],
					"hidden" : 0,
					"midpoints" : [  ]
				}

			}
, 			{
				"patchline" : 				{
					"source" : [ "obj-15", 0 ],
					"destination" : [ "obj-14", 0 ],
					"hidden" : 1,
					"midpoints" : [  ]
				}

			}
, 			{
				"patchline" : 				{
					"source" : [ "obj-16", 0 ],
					"destination" : [ "obj-15", 0 ],
					"hidden" : 1,
					"midpoints" : [  ]
				}

			}
, 			{
				"patchline" : 				{
					"source" : [ "obj-26", 0 ],
					"destination" : [ "obj-25", 0 ],
					"hidden" : 0,
					"midpoints" : [  ]
				}

			}
, 			{
				"patchline" : 				{
					"source" : [ "obj-36", 0 ],
					"destination" : [ "obj-26", 0 ],
					"hidden" : 0,
					"midpoints" : [ 267.5, 336.0, 168.5, 336.0 ]
				}

			}
, 			{
				"patchline" : 				{
					"source" : [ "obj-35", 0 ],
					"destination" : [ "obj-26", 0 ],
					"hidden" : 0,
					"midpoints" : [ 320.5, 324.0, 168.5, 324.0 ]
				}

			}
, 			{
				"patchline" : 				{
					"source" : [ "obj-22", 0 ],
					"destination" : [ "obj-18", 0 ],
					"hidden" : 1,
					"midpoints" : [  ]
				}

			}
, 			{
				"patchline" : 				{
					"source" : [ "obj-19", 0 ],
					"destination" : [ "obj-4", 0 ],
					"hidden" : 0,
					"midpoints" : [  ]
				}

			}
, 			{
				"patchline" : 				{
					"source" : [ "obj-23", 0 ],
					"destination" : [ "obj-19", 0 ],
					"hidden" : 1,
					"midpoints" : [  ]
				}

			}
, 			{
				"patchline" : 				{
					"source" : [ "obj-2", 0 ],
					"destination" : [ "obj-23", 0 ],
					"hidden" : 1,
					"midpoints" : [  ]
				}

			}
, 			{
				"patchline" : 				{
					"source" : [ "obj-3", 0 ],
					"destination" : [ "obj-22", 0 ],
					"hidden" : 1,
					"midpoints" : [  ]
				}

			}
, 			{
				"patchline" : 				{
					"source" : [ "obj-18", 0 ],
					"destination" : [ "obj-20", 0 ],
					"hidden" : 0,
					"midpoints" : [  ]
				}

			}
, 			{
				"patchline" : 				{
					"source" : [ "obj-19", 0 ],
					"destination" : [ "obj-20", 0 ],
					"hidden" : 0,
					"midpoints" : [  ]
				}

			}
, 			{
				"patchline" : 				{
					"source" : [ "obj-17", 0 ],
					"destination" : [ "obj-21", 0 ],
					"hidden" : 1,
					"midpoints" : [ 244.5, 120.0, 108.5, 120.0 ]
				}

			}
, 			{
				"patchline" : 				{
					"source" : [ "obj-33", 0 ],
					"destination" : [ "obj-31", 0 ],
					"hidden" : 0,
					"midpoints" : [  ]
				}

			}
, 			{
				"patchline" : 				{
					"source" : [ "obj-44", 0 ],
					"destination" : [ "obj-31", 0 ],
					"hidden" : 1,
					"midpoints" : [  ]
				}

			}
, 			{
				"patchline" : 				{
					"source" : [ "obj-33", 0 ],
					"destination" : [ "obj-32", 0 ],
					"hidden" : 0,
					"midpoints" : [  ]
				}

			}
, 			{
				"patchline" : 				{
					"source" : [ "obj-14", 0 ],
					"destination" : [ "obj-13", 0 ],
					"hidden" : 1,
					"midpoints" : [ 193.5, 99.0, 98.0, 99.0, 98.0, 85.0, 92.0, 85.0 ]
				}

			}
, 			{
				"patchline" : 				{
					"source" : [ "obj-11", 0 ],
					"destination" : [ "obj-12", 0 ],
					"hidden" : 1,
					"midpoints" : [  ]
				}

			}
, 			{
				"patchline" : 				{
					"source" : [ "obj-13", 0 ],
					"destination" : [ "obj-11", 0 ],
					"hidden" : 1,
					"midpoints" : [ 92.0, 312.0, 74.5, 312.0 ]
				}

			}
, 			{
				"patchline" : 				{
					"source" : [ "obj-32", 0 ],
					"destination" : [ "obj-38", 0 ],
					"hidden" : 1,
					"midpoints" : [ 95.5, 119.0, 65.0, 119.0 ]
				}

			}
, 			{
				"patchline" : 				{
					"source" : [ "obj-42", 0 ],
					"destination" : [ "obj-40", 0 ],
					"hidden" : 1,
					"midpoints" : [  ]
				}

			}
, 			{
				"patchline" : 				{
					"source" : [ "obj-41", 0 ],
					"destination" : [ "obj-1", 0 ],
					"hidden" : 1,
					"midpoints" : [  ]
				}

			}
, 			{
				"patchline" : 				{
					"source" : [ "obj-1", 0 ],
					"destination" : [ "obj-42", 0 ],
					"hidden" : 1,
					"midpoints" : [  ]
				}

			}
, 			{
				"patchline" : 				{
					"source" : [ "obj-31", 0 ],
					"destination" : [ "obj-42", 0 ],
					"hidden" : 1,
					"midpoints" : [ 108.5, 74.0, 25.5, 74.0 ]
				}

			}
, 			{
				"patchline" : 				{
					"source" : [ "obj-7", 0 ],
					"destination" : [ "obj-6", 0 ],
					"hidden" : 0,
					"midpoints" : [  ]
				}

			}
, 			{
				"patchline" : 				{
					"source" : [ "obj-8", 0 ],
					"destination" : [ "obj-7", 0 ],
					"hidden" : 1,
					"midpoints" : [ 38.0, 264.0, 29.5, 264.0 ]
				}

			}
, 			{
				"patchline" : 				{
					"source" : [ "obj-40", 0 ],
					"destination" : [ "obj-41", 0 ],
					"hidden" : 0,
					"midpoints" : [ 60.5, 308.0, 11.0, 308.0, 11.0, 141.0, 9.5, 141.0 ]
				}

			}
 ]
	}

}
