{
	"patcher" : 	{
		"fileversion" : 1,
		"rect" : [ 542.0, 147.0, 730.0, 622.0 ],
		"bglocked" : 0,
		"defrect" : [ 542.0, 147.0, 730.0, 622.0 ],
		"openrect" : [ 0.0, 0.0, 0.0, 0.0 ],
		"openinpresentation" : 1,
		"default_fontsize" : 12.0,
		"default_fontface" : 0,
		"default_fontname" : "Arial",
		"gridonopen" : 0,
		"gridsize" : [ 15.0, 15.0 ],
		"gridsnaponopen" : 0,
		"toolbarvisible" : 1,
		"boxanimatetime" : 200,
		"imprint" : 0,
		"metadata" : [  ],
		"boxes" : [ 			{
				"box" : 				{
					"maxclass" : "message",
					"text" : "set $1",
					"patching_rect" : [ 124.0, -76.0, 39.0, 15.0 ],
					"hidden" : 1,
					"id" : "obj-1",
					"fontname" : "Arial",
					"numinlets" : 2,
					"numoutlets" : 1,
					"fontsize" : 9.0,
					"outlettype" : [ "" ]
				}

			}
, 			{
				"box" : 				{
					"maxclass" : "message",
					"text" : "set $1",
					"patching_rect" : [ 107.0, -73.0, 39.0, 15.0 ],
					"hidden" : 1,
					"id" : "obj-2",
					"fontname" : "Arial",
					"numinlets" : 2,
					"numoutlets" : 1,
					"fontsize" : 9.0,
					"outlettype" : [ "" ]
				}

			}
, 			{
				"box" : 				{
					"maxclass" : "message",
					"text" : "set $1",
					"patching_rect" : [ 152.0, -73.0, 39.0, 15.0 ],
					"hidden" : 1,
					"id" : "obj-3",
					"fontname" : "Arial",
					"numinlets" : 2,
					"numoutlets" : 1,
					"fontsize" : 9.0,
					"outlettype" : [ "" ]
				}

			}
, 			{
				"box" : 				{
					"maxclass" : "message",
					"text" : "set $1",
					"patching_rect" : [ 39.0, -73.0, 39.0, 15.0 ],
					"hidden" : 1,
					"id" : "obj-4",
					"fontname" : "Arial",
					"numinlets" : 2,
					"numoutlets" : 1,
					"fontsize" : 9.0,
					"outlettype" : [ "" ]
				}

			}
, 			{
				"box" : 				{
					"maxclass" : "message",
					"text" : "set $1",
					"patching_rect" : [ 4.0, -73.0, 39.0, 15.0 ],
					"hidden" : 1,
					"id" : "obj-5",
					"fontname" : "Arial",
					"numinlets" : 2,
					"numoutlets" : 1,
					"fontsize" : 9.0,
					"outlettype" : [ "" ]
				}

			}
, 			{
				"box" : 				{
					"maxclass" : "newobj",
					"text" : "r #1_soloson_delay",
					"patching_rect" : [ 152.0, -116.0, 100.0, 17.0 ],
					"hidden" : 1,
					"id" : "obj-6",
					"fontname" : "Arial",
					"numinlets" : 0,
					"numoutlets" : 1,
					"fontsize" : 9.0,
					"outlettype" : [ "" ]
				}

			}
, 			{
				"box" : 				{
					"maxclass" : "newobj",
					"text" : "r #1_dirson_delay",
					"patching_rect" : [ 128.0, -116.0, 95.0, 17.0 ],
					"hidden" : 1,
					"id" : "obj-7",
					"fontname" : "Arial",
					"numinlets" : 0,
					"numoutlets" : 1,
					"fontsize" : 9.0,
					"outlettype" : [ "" ]
				}

			}
, 			{
				"box" : 				{
					"maxclass" : "newobj",
					"text" : "r #1_seqdirson_delay",
					"patching_rect" : [ 107.0, -96.0, 110.0, 17.0 ],
					"hidden" : 1,
					"id" : "obj-8",
					"fontname" : "Arial",
					"numinlets" : 0,
					"numoutlets" : 1,
					"fontsize" : 9.0,
					"outlettype" : [ "" ]
				}

			}
, 			{
				"box" : 				{
					"maxclass" : "newobj",
					"text" : "r #1_blockson_delay",
					"patching_rect" : [ 39.0, -116.0, 105.0, 17.0 ],
					"hidden" : 1,
					"id" : "obj-9",
					"fontname" : "Arial",
					"numinlets" : 0,
					"numoutlets" : 1,
					"fontsize" : 9.0,
					"outlettype" : [ "" ]
				}

			}
, 			{
				"box" : 				{
					"maxclass" : "newobj",
					"text" : "r #1_contison_delay",
					"patching_rect" : [ 4.0, -96.0, 104.0, 17.0 ],
					"hidden" : 1,
					"id" : "obj-10",
					"fontname" : "Arial",
					"numinlets" : 0,
					"numoutlets" : 1,
					"fontsize" : 9.0,
					"outlettype" : [ "" ]
				}

			}
, 			{
				"box" : 				{
					"maxclass" : "newobj",
					"text" : "loadmess 0",
					"patching_rect" : [ 408.0, -63.0, 60.0, 17.0 ],
					"hidden" : 1,
					"id" : "obj-11",
					"fontname" : "Arial",
					"numinlets" : 1,
					"numoutlets" : 1,
					"fontsize" : 9.0,
					"outlettype" : [ "" ]
				}

			}
, 			{
				"box" : 				{
					"maxclass" : "number",
					"presentation_rect" : [ 123.0, 10.0, 34.0, 17.0 ],
					"minimum" : 0,
					"patching_rect" : [ 125.0, 10.0, 32.0, 17.0 ],
					"presentation" : 1,
					"id" : "obj-12",
					"fontname" : "Arial",
					"maximum" : 1000,
					"numinlets" : 1,
					"triscale" : 0.9,
					"numoutlets" : 2,
					"htextcolor" : [ 0.870588, 0.870588, 0.870588, 1.0 ],
					"fontsize" : 9.0,
					"bgcolor" : [ 0.866667, 0.866667, 0.866667, 1.0 ],
					"outlettype" : [ "int", "bang" ]
				}

			}
, 			{
				"box" : 				{
					"maxclass" : "number",
					"presentation_rect" : [ 146.0, 25.0, 32.0, 17.0 ],
					"minimum" : 0,
					"patching_rect" : [ 148.0, 25.0, 32.0, 17.0 ],
					"presentation" : 1,
					"id" : "obj-13",
					"fontname" : "Arial",
					"maximum" : 1000,
					"numinlets" : 1,
					"triscale" : 0.9,
					"numoutlets" : 2,
					"htextcolor" : [ 0.870588, 0.870588, 0.870588, 1.0 ],
					"fontsize" : 9.0,
					"bgcolor" : [ 0.866667, 0.866667, 0.866667, 1.0 ],
					"outlettype" : [ "int", "bang" ]
				}

			}
, 			{
				"box" : 				{
					"maxclass" : "number",
					"presentation_rect" : [ 101.0, 25.0, 32.0, 17.0 ],
					"minimum" : 0,
					"patching_rect" : [ 103.0, 25.0, 32.0, 17.0 ],
					"presentation" : 1,
					"id" : "obj-14",
					"fontname" : "Arial",
					"maximum" : 1000,
					"numinlets" : 1,
					"triscale" : 0.9,
					"numoutlets" : 2,
					"htextcolor" : [ 0.870588, 0.870588, 0.870588, 1.0 ],
					"fontsize" : 9.0,
					"bgcolor" : [ 0.866667, 0.866667, 0.866667, 1.0 ],
					"outlettype" : [ "int", "bang" ]
				}

			}
, 			{
				"box" : 				{
					"maxclass" : "number",
					"presentation_rect" : [ 40.0, 10.0, 33.0, 17.0 ],
					"minimum" : 0,
					"patching_rect" : [ 39.0, 9.0, 33.0, 17.0 ],
					"presentation" : 1,
					"id" : "obj-15",
					"fontname" : "Arial",
					"maximum" : 1000,
					"numinlets" : 1,
					"triscale" : 0.9,
					"numoutlets" : 2,
					"htextcolor" : [ 0.870588, 0.870588, 0.870588, 1.0 ],
					"fontsize" : 9.0,
					"bgcolor" : [ 0.866667, 0.866667, 0.866667, 1.0 ],
					"outlettype" : [ "int", "bang" ]
				}

			}
, 			{
				"box" : 				{
					"maxclass" : "newobj",
					"text" : "s #1_soloson_delay",
					"patching_rect" : [ 148.0, -52.0, 100.0, 17.0 ],
					"hidden" : 1,
					"id" : "obj-16",
					"fontname" : "Arial",
					"numinlets" : 1,
					"numoutlets" : 0,
					"fontsize" : 9.0
				}

			}
, 			{
				"box" : 				{
					"maxclass" : "newobj",
					"text" : "s #1_dirson_delay",
					"patching_rect" : [ 125.0, -52.0, 95.0, 17.0 ],
					"hidden" : 1,
					"id" : "obj-17",
					"fontname" : "Arial",
					"numinlets" : 1,
					"numoutlets" : 0,
					"fontsize" : 9.0
				}

			}
, 			{
				"box" : 				{
					"maxclass" : "newobj",
					"text" : "s #1_seqdirson_delay",
					"patching_rect" : [ 103.0, -34.0, 110.0, 17.0 ],
					"hidden" : 1,
					"id" : "obj-18",
					"fontname" : "Arial",
					"numinlets" : 1,
					"numoutlets" : 0,
					"fontsize" : 9.0
				}

			}
, 			{
				"box" : 				{
					"maxclass" : "newobj",
					"text" : "s #1_blockson_delay",
					"patching_rect" : [ 40.0, -51.0, 105.0, 17.0 ],
					"hidden" : 1,
					"id" : "obj-19",
					"fontname" : "Arial",
					"numinlets" : 1,
					"numoutlets" : 0,
					"fontsize" : 9.0
				}

			}
, 			{
				"box" : 				{
					"maxclass" : "newobj",
					"text" : "s #1_contison_delay",
					"patching_rect" : [ 1.0, -34.0, 104.0, 17.0 ],
					"hidden" : 1,
					"id" : "obj-20",
					"fontname" : "Arial",
					"numinlets" : 1,
					"numoutlets" : 0,
					"fontsize" : 9.0
				}

			}
, 			{
				"box" : 				{
					"maxclass" : "number",
					"presentation_rect" : [ 2.0, 10.0, 36.0, 17.0 ],
					"minimum" : 0,
					"patching_rect" : [ 1.0, 9.0, 33.0, 17.0 ],
					"presentation" : 1,
					"id" : "obj-21",
					"fontname" : "Arial",
					"maximum" : 1000,
					"numinlets" : 1,
					"triscale" : 0.9,
					"numoutlets" : 2,
					"htextcolor" : [ 0.870588, 0.870588, 0.870588, 1.0 ],
					"fontsize" : 9.0,
					"bgcolor" : [ 0.866667, 0.866667, 0.866667, 1.0 ],
					"outlettype" : [ "int", "bang" ]
				}

			}
, 			{
				"box" : 				{
					"maxclass" : "newobj",
					"text" : "loadmess 1",
					"patching_rect" : [ 377.0, 20.0, 60.0, 17.0 ],
					"hidden" : 1,
					"id" : "obj-22",
					"fontname" : "Arial",
					"numinlets" : 1,
					"numoutlets" : 1,
					"fontsize" : 9.0,
					"outlettype" : [ "" ]
				}

			}
, 			{
				"box" : 				{
					"maxclass" : "toggle",
					"presentation_rect" : [ 78.0, 10.0, 13.0, 13.0 ],
					"patching_rect" : [ 75.0, 10.0, 13.0, 13.0 ],
					"presentation" : 1,
					"id" : "obj-23",
					"numinlets" : 1,
					"numoutlets" : 1,
					"outlettype" : [ "int" ]
				}

			}
, 			{
				"box" : 				{
					"maxclass" : "led",
					"presentation_rect" : [ 131.0, 84.0, 17.0, 17.0 ],
					"offcolor" : [ 1.0, 0.666667, 0.0, 1.0 ],
					"patching_rect" : [ 132.0, 83.0, 17.0, 17.0 ],
					"presentation" : 1,
					"oncolor" : [ 1.0, 1.0, 0.0, 1.0 ],
					"id" : "obj-24",
					"numinlets" : 1,
					"numoutlets" : 1,
					"bgcolor" : [ 0.35294, 0.35294, 0.35294, 1.0 ],
					"outlettype" : [ "int" ]
				}

			}
, 			{
				"box" : 				{
					"maxclass" : "led",
					"presentation_rect" : [ 88.0, 86.0, 17.0, 17.0 ],
					"offcolor" : [ 0.0, 0.0, 0.466667, 1.0 ],
					"patching_rect" : [ 90.0, 82.0, 17.0, 17.0 ],
					"presentation" : 1,
					"oncolor" : [ 0.0, 1.0, 1.0, 1.0 ],
					"id" : "obj-25",
					"numinlets" : 1,
					"numoutlets" : 1,
					"bgcolor" : [ 0.35294, 0.35294, 0.35294, 1.0 ],
					"outlettype" : [ "int" ]
				}

			}
, 			{
				"box" : 				{
					"maxclass" : "led",
					"presentation_rect" : [ 74.0, 86.0, 17.0, 17.0 ],
					"offcolor" : [ 0.0, 0.0, 0.466667, 1.0 ],
					"patching_rect" : [ 75.0, 82.0, 17.0, 17.0 ],
					"presentation" : 1,
					"oncolor" : [ 0.0, 1.0, 1.0, 1.0 ],
					"id" : "obj-26",
					"numinlets" : 1,
					"numoutlets" : 1,
					"bgcolor" : [ 0.35294, 0.35294, 0.35294, 1.0 ],
					"outlettype" : [ "int" ]
				}

			}
, 			{
				"box" : 				{
					"maxclass" : "led",
					"presentation_rect" : [ 59.0, 86.0, 17.0, 17.0 ],
					"offcolor" : [ 0.0, 0.0, 0.466667, 1.0 ],
					"patching_rect" : [ 59.0, 82.0, 17.0, 17.0 ],
					"presentation" : 1,
					"oncolor" : [ 0.0, 1.0, 1.0, 1.0 ],
					"id" : "obj-27",
					"numinlets" : 1,
					"numoutlets" : 1,
					"bgcolor" : [ 0.35294, 0.35294, 0.35294, 1.0 ],
					"outlettype" : [ "int" ]
				}

			}
, 			{
				"box" : 				{
					"maxclass" : "led",
					"presentation_rect" : [ 44.0, 86.0, 17.0, 17.0 ],
					"offcolor" : [ 0.0, 0.0, 0.466667, 1.0 ],
					"patching_rect" : [ 44.0, 82.0, 17.0, 17.0 ],
					"presentation" : 1,
					"oncolor" : [ 0.0, 1.0, 1.0, 1.0 ],
					"id" : "obj-28",
					"numinlets" : 1,
					"numoutlets" : 1,
					"bgcolor" : [ 0.35294, 0.35294, 0.35294, 1.0 ],
					"outlettype" : [ "int" ]
				}

			}
, 			{
				"box" : 				{
					"maxclass" : "led",
					"presentation_rect" : [ 29.0, 86.0, 17.0, 17.0 ],
					"offcolor" : [ 0.0, 0.0, 0.466667, 1.0 ],
					"patching_rect" : [ 29.0, 82.0, 17.0, 17.0 ],
					"presentation" : 1,
					"oncolor" : [ 0.0, 1.0, 1.0, 1.0 ],
					"id" : "obj-29",
					"numinlets" : 1,
					"numoutlets" : 1,
					"bgcolor" : [ 0.35294, 0.35294, 0.35294, 1.0 ],
					"outlettype" : [ "int" ]
				}

			}
, 			{
				"box" : 				{
					"maxclass" : "led",
					"presentation_rect" : [ 7.0, 86.0, 17.0, 17.0 ],
					"offcolor" : [ 0.666667, 0.666667, 0.666667, 1.0 ],
					"patching_rect" : [ 7.0, 83.0, 17.0, 17.0 ],
					"presentation" : 1,
					"oncolor" : [ 1.0, 1.0, 1.0, 1.0 ],
					"id" : "obj-30",
					"numinlets" : 1,
					"numoutlets" : 1,
					"bgcolor" : [ 0.0, 0.0, 0.0, 1.0 ],
					"outlettype" : [ "int" ]
				}

			}
, 			{
				"box" : 				{
					"maxclass" : "newobj",
					"text" : "p midimat",
					"patching_rect" : [ 1.0, 211.0, 226.0, 17.0 ],
					"hidden" : 1,
					"id" : "obj-31",
					"fontname" : "Arial",
					"numinlets" : 1,
					"numoutlets" : 7,
					"fontsize" : 9.0,
					"outlettype" : [ "", "", "", "", "", "", "" ],
					"patcher" : 					{
						"fileversion" : 1,
						"rect" : [ 763.0, 439.0, 600.0, 426.0 ],
						"bglocked" : 0,
						"defrect" : [ 763.0, 439.0, 600.0, 426.0 ],
						"openrect" : [ 0.0, 0.0, 0.0, 0.0 ],
						"openinpresentation" : 0,
						"default_fontsize" : 12.0,
						"default_fontface" : 0,
						"default_fontname" : "Arial",
						"gridonopen" : 0,
						"gridsize" : [ 15.0, 15.0 ],
						"gridsnaponopen" : 0,
						"toolbarvisible" : 1,
						"boxanimatetime" : 200,
						"imprint" : 0,
						"metadata" : [  ],
						"boxes" : [ 							{
								"box" : 								{
									"maxclass" : "newobj",
									"text" : "sel 1",
									"patching_rect" : [ 340.0, 267.0, 32.0, 17.0 ],
									"id" : "obj-1",
									"fontname" : "Arial",
									"numinlets" : 2,
									"numoutlets" : 2,
									"fontsize" : 9.0,
									"outlettype" : [ "bang", "" ]
								}

							}
, 							{
								"box" : 								{
									"maxclass" : "inlet",
									"patching_rect" : [ 390.0, 40.0, 15.0, 15.0 ],
									"id" : "obj-2",
									"numinlets" : 0,
									"numoutlets" : 1,
									"outlettype" : [ "int" ],
									"comment" : ""
								}

							}
, 							{
								"box" : 								{
									"maxclass" : "toggle",
									"patching_rect" : [ 390.0, 239.0, 15.0, 15.0 ],
									"id" : "obj-3",
									"numinlets" : 1,
									"numoutlets" : 1,
									"outlettype" : [ "int" ]
								}

							}
, 							{
								"box" : 								{
									"maxclass" : "newobj",
									"text" : "gate",
									"linecount" : 2,
									"patching_rect" : [ 299.0, 255.0, 25.0, 27.0 ],
									"id" : "obj-4",
									"fontname" : "Arial",
									"numinlets" : 2,
									"numoutlets" : 1,
									"fontsize" : 9.0,
									"outlettype" : [ "" ]
								}

							}
, 							{
								"box" : 								{
									"maxclass" : "newobj",
									"text" : "gate",
									"linecount" : 2,
									"patching_rect" : [ 217.0, 255.0, 25.0, 27.0 ],
									"id" : "obj-5",
									"fontname" : "Arial",
									"numinlets" : 2,
									"numoutlets" : 1,
									"fontsize" : 9.0,
									"outlettype" : [ "" ]
								}

							}
, 							{
								"box" : 								{
									"maxclass" : "newobj",
									"text" : "gate",
									"linecount" : 2,
									"patching_rect" : [ 191.0, 255.0, 25.0, 27.0 ],
									"id" : "obj-6",
									"fontname" : "Arial",
									"numinlets" : 2,
									"numoutlets" : 1,
									"fontsize" : 9.0,
									"outlettype" : [ "" ]
								}

							}
, 							{
								"box" : 								{
									"maxclass" : "newobj",
									"text" : "gate",
									"linecount" : 2,
									"patching_rect" : [ 165.0, 255.0, 25.0, 27.0 ],
									"id" : "obj-7",
									"fontname" : "Arial",
									"numinlets" : 2,
									"numoutlets" : 1,
									"fontsize" : 9.0,
									"outlettype" : [ "" ]
								}

							}
, 							{
								"box" : 								{
									"maxclass" : "newobj",
									"text" : "gate",
									"linecount" : 2,
									"patching_rect" : [ 136.0, 255.0, 25.0, 27.0 ],
									"id" : "obj-8",
									"fontname" : "Arial",
									"numinlets" : 2,
									"numoutlets" : 1,
									"fontsize" : 9.0,
									"outlettype" : [ "" ]
								}

							}
, 							{
								"box" : 								{
									"maxclass" : "newobj",
									"text" : "gate",
									"linecount" : 2,
									"patching_rect" : [ 110.0, 255.0, 25.0, 27.0 ],
									"id" : "obj-9",
									"fontname" : "Arial",
									"numinlets" : 2,
									"numoutlets" : 1,
									"fontsize" : 9.0,
									"outlettype" : [ "" ]
								}

							}
, 							{
								"box" : 								{
									"maxclass" : "newobj",
									"text" : "gate",
									"patching_rect" : [ 9.0, 255.0, 29.0, 17.0 ],
									"id" : "obj-10",
									"fontname" : "Arial",
									"numinlets" : 2,
									"numoutlets" : 1,
									"fontsize" : 9.0,
									"outlettype" : [ "" ]
								}

							}
, 							{
								"box" : 								{
									"maxclass" : "newobj",
									"text" : "unpack 1 2 3",
									"patching_rect" : [ 282.0, 110.0, 75.0, 17.0 ],
									"id" : "obj-11",
									"fontname" : "Arial",
									"numinlets" : 1,
									"numoutlets" : 3,
									"fontsize" : 9.0,
									"outlettype" : [ "int", "int", "int" ]
								}

							}
, 							{
								"box" : 								{
									"maxclass" : "newobj",
									"text" : "unpack 1 2 3",
									"patching_rect" : [ 200.0, 205.0, 75.0, 17.0 ],
									"id" : "obj-12",
									"fontname" : "Arial",
									"numinlets" : 1,
									"numoutlets" : 3,
									"fontsize" : 9.0,
									"outlettype" : [ "int", "int", "int" ]
								}

							}
, 							{
								"box" : 								{
									"maxclass" : "newobj",
									"text" : "unpack 1 2 3",
									"patching_rect" : [ 174.0, 185.0, 75.0, 17.0 ],
									"id" : "obj-13",
									"fontname" : "Arial",
									"numinlets" : 1,
									"numoutlets" : 3,
									"fontsize" : 9.0,
									"outlettype" : [ "int", "int", "int" ]
								}

							}
, 							{
								"box" : 								{
									"maxclass" : "newobj",
									"text" : "unpack 1 2 3",
									"patching_rect" : [ 148.0, 161.0, 75.0, 17.0 ],
									"id" : "obj-14",
									"fontname" : "Arial",
									"numinlets" : 1,
									"numoutlets" : 3,
									"fontsize" : 9.0,
									"outlettype" : [ "int", "int", "int" ]
								}

							}
, 							{
								"box" : 								{
									"maxclass" : "newobj",
									"text" : "unpack 1 2 3",
									"patching_rect" : [ 119.0, 134.0, 75.0, 17.0 ],
									"id" : "obj-15",
									"fontname" : "Arial",
									"numinlets" : 1,
									"numoutlets" : 3,
									"fontsize" : 9.0,
									"outlettype" : [ "int", "int", "int" ]
								}

							}
, 							{
								"box" : 								{
									"maxclass" : "newobj",
									"text" : "unpack 1 2 3",
									"patching_rect" : [ 93.0, 110.0, 75.0, 17.0 ],
									"id" : "obj-16",
									"fontname" : "Arial",
									"numinlets" : 1,
									"numoutlets" : 3,
									"fontsize" : 9.0,
									"outlettype" : [ "int", "int", "int" ]
								}

							}
, 							{
								"box" : 								{
									"maxclass" : "newobj",
									"text" : "unpack 1 2 3",
									"patching_rect" : [ 0.0, 121.0, 67.0, 17.0 ],
									"id" : "obj-17",
									"fontname" : "Arial",
									"numinlets" : 1,
									"numoutlets" : 3,
									"fontsize" : 9.0,
									"outlettype" : [ "int", "int", "int" ]
								}

							}
, 							{
								"box" : 								{
									"maxclass" : "outlet",
									"patching_rect" : [ 299.0, 285.0, 15.0, 15.0 ],
									"id" : "obj-18",
									"numinlets" : 1,
									"numoutlets" : 0,
									"comment" : ""
								}

							}
, 							{
								"box" : 								{
									"maxclass" : "outlet",
									"patching_rect" : [ 217.0, 285.0, 15.0, 15.0 ],
									"id" : "obj-19",
									"numinlets" : 1,
									"numoutlets" : 0,
									"comment" : ""
								}

							}
, 							{
								"box" : 								{
									"maxclass" : "outlet",
									"patching_rect" : [ 191.0, 285.0, 15.0, 15.0 ],
									"id" : "obj-20",
									"numinlets" : 1,
									"numoutlets" : 0,
									"comment" : ""
								}

							}
, 							{
								"box" : 								{
									"maxclass" : "outlet",
									"patching_rect" : [ 165.0, 285.0, 15.0, 15.0 ],
									"id" : "obj-21",
									"numinlets" : 1,
									"numoutlets" : 0,
									"comment" : ""
								}

							}
, 							{
								"box" : 								{
									"maxclass" : "outlet",
									"patching_rect" : [ 136.0, 285.0, 15.0, 15.0 ],
									"id" : "obj-22",
									"numinlets" : 1,
									"numoutlets" : 0,
									"comment" : ""
								}

							}
, 							{
								"box" : 								{
									"maxclass" : "outlet",
									"patching_rect" : [ 110.0, 285.0, 15.0, 15.0 ],
									"id" : "obj-23",
									"numinlets" : 1,
									"numoutlets" : 0,
									"comment" : ""
								}

							}
, 							{
								"box" : 								{
									"maxclass" : "outlet",
									"patching_rect" : [ 9.0, 285.0, 15.0, 15.0 ],
									"id" : "obj-24",
									"numinlets" : 1,
									"numoutlets" : 0,
									"comment" : ""
								}

							}
, 							{
								"box" : 								{
									"maxclass" : "newobj",
									"text" : "r #1_contimidi",
									"patching_rect" : [ 0.0, 99.0, 74.0, 17.0 ],
									"id" : "obj-25",
									"fontname" : "Arial",
									"numinlets" : 0,
									"numoutlets" : 1,
									"fontsize" : 9.0,
									"outlettype" : [ "" ]
								}

							}
, 							{
								"box" : 								{
									"maxclass" : "newobj",
									"text" : "r #1_b4_MIDI",
									"patching_rect" : [ 174.0, 110.0, 74.0, 17.0 ],
									"id" : "obj-26",
									"fontname" : "Arial",
									"numinlets" : 0,
									"numoutlets" : 1,
									"fontsize" : 9.0,
									"outlettype" : [ "" ]
								}

							}
, 							{
								"box" : 								{
									"maxclass" : "newobj",
									"text" : "r #1_b5_MIDI",
									"patching_rect" : [ 200.0, 132.0, 74.0, 17.0 ],
									"id" : "obj-27",
									"fontname" : "Arial",
									"numinlets" : 0,
									"numoutlets" : 1,
									"fontsize" : 9.0,
									"outlettype" : [ "" ]
								}

							}
, 							{
								"box" : 								{
									"maxclass" : "newobj",
									"text" : "r #1_b2_MIDI",
									"patching_rect" : [ 119.0, 69.0, 74.0, 17.0 ],
									"id" : "obj-28",
									"fontname" : "Arial",
									"numinlets" : 0,
									"numoutlets" : 1,
									"fontsize" : 9.0,
									"outlettype" : [ "" ]
								}

							}
, 							{
								"box" : 								{
									"maxclass" : "newobj",
									"text" : "r #1_b1_MIDI",
									"patching_rect" : [ 93.0, 49.0, 74.0, 17.0 ],
									"id" : "obj-29",
									"fontname" : "Arial",
									"numinlets" : 0,
									"numoutlets" : 1,
									"fontsize" : 9.0,
									"outlettype" : [ "" ]
								}

							}
, 							{
								"box" : 								{
									"maxclass" : "newobj",
									"text" : "r #1_b3_MIDI",
									"patching_rect" : [ 148.0, 89.0, 74.0, 17.0 ],
									"id" : "obj-30",
									"fontname" : "Arial",
									"numinlets" : 0,
									"numoutlets" : 1,
									"fontsize" : 9.0,
									"outlettype" : [ "" ]
								}

							}
, 							{
								"box" : 								{
									"maxclass" : "newobj",
									"text" : "r #1_dirmidiin",
									"patching_rect" : [ 282.0, 89.0, 77.0, 17.0 ],
									"id" : "obj-31",
									"fontname" : "Arial",
									"numinlets" : 0,
									"numoutlets" : 1,
									"fontsize" : 9.0,
									"outlettype" : [ "" ]
								}

							}
, 							{
								"box" : 								{
									"maxclass" : "comment",
									"text" : "midimnitor ?",
									"patching_rect" : [ 376.0, 64.0, 100.0, 17.0 ],
									"id" : "obj-32",
									"fontname" : "Arial",
									"numinlets" : 1,
									"numoutlets" : 0,
									"fontsize" : 9.0
								}

							}
 ],
						"lines" : [ 							{
								"patchline" : 								{
									"source" : [ "obj-2", 0 ],
									"destination" : [ "obj-3", 0 ],
									"hidden" : 0,
									"midpoints" : [  ]
								}

							}
, 							{
								"patchline" : 								{
									"source" : [ "obj-3", 0 ],
									"destination" : [ "obj-1", 0 ],
									"hidden" : 0,
									"midpoints" : [  ]
								}

							}
, 							{
								"patchline" : 								{
									"source" : [ "obj-11", 1 ],
									"destination" : [ "obj-4", 1 ],
									"hidden" : 0,
									"midpoints" : [  ]
								}

							}
, 							{
								"patchline" : 								{
									"source" : [ "obj-1", 1 ],
									"destination" : [ "obj-18", 0 ],
									"hidden" : 0,
									"midpoints" : [  ]
								}

							}
, 							{
								"patchline" : 								{
									"source" : [ "obj-4", 0 ],
									"destination" : [ "obj-18", 0 ],
									"hidden" : 0,
									"midpoints" : [  ]
								}

							}
, 							{
								"patchline" : 								{
									"source" : [ "obj-3", 0 ],
									"destination" : [ "obj-4", 0 ],
									"hidden" : 0,
									"midpoints" : [  ]
								}

							}
, 							{
								"patchline" : 								{
									"source" : [ "obj-31", 0 ],
									"destination" : [ "obj-11", 0 ],
									"hidden" : 0,
									"midpoints" : [  ]
								}

							}
, 							{
								"patchline" : 								{
									"source" : [ "obj-12", 1 ],
									"destination" : [ "obj-5", 1 ],
									"hidden" : 0,
									"midpoints" : [  ]
								}

							}
, 							{
								"patchline" : 								{
									"source" : [ "obj-5", 0 ],
									"destination" : [ "obj-19", 0 ],
									"hidden" : 0,
									"midpoints" : [  ]
								}

							}
, 							{
								"patchline" : 								{
									"source" : [ "obj-1", 1 ],
									"destination" : [ "obj-19", 0 ],
									"hidden" : 0,
									"midpoints" : [  ]
								}

							}
, 							{
								"patchline" : 								{
									"source" : [ "obj-3", 0 ],
									"destination" : [ "obj-5", 0 ],
									"hidden" : 0,
									"midpoints" : [  ]
								}

							}
, 							{
								"patchline" : 								{
									"source" : [ "obj-13", 1 ],
									"destination" : [ "obj-6", 1 ],
									"hidden" : 0,
									"midpoints" : [  ]
								}

							}
, 							{
								"patchline" : 								{
									"source" : [ "obj-27", 0 ],
									"destination" : [ "obj-12", 0 ],
									"hidden" : 0,
									"midpoints" : [  ]
								}

							}
, 							{
								"patchline" : 								{
									"source" : [ "obj-6", 0 ],
									"destination" : [ "obj-20", 0 ],
									"hidden" : 0,
									"midpoints" : [  ]
								}

							}
, 							{
								"patchline" : 								{
									"source" : [ "obj-1", 1 ],
									"destination" : [ "obj-20", 0 ],
									"hidden" : 0,
									"midpoints" : [  ]
								}

							}
, 							{
								"patchline" : 								{
									"source" : [ "obj-3", 0 ],
									"destination" : [ "obj-6", 0 ],
									"hidden" : 0,
									"midpoints" : [  ]
								}

							}
, 							{
								"patchline" : 								{
									"source" : [ "obj-14", 1 ],
									"destination" : [ "obj-7", 1 ],
									"hidden" : 0,
									"midpoints" : [  ]
								}

							}
, 							{
								"patchline" : 								{
									"source" : [ "obj-26", 0 ],
									"destination" : [ "obj-13", 0 ],
									"hidden" : 0,
									"midpoints" : [  ]
								}

							}
, 							{
								"patchline" : 								{
									"source" : [ "obj-7", 0 ],
									"destination" : [ "obj-21", 0 ],
									"hidden" : 0,
									"midpoints" : [  ]
								}

							}
, 							{
								"patchline" : 								{
									"source" : [ "obj-1", 1 ],
									"destination" : [ "obj-21", 0 ],
									"hidden" : 0,
									"midpoints" : [  ]
								}

							}
, 							{
								"patchline" : 								{
									"source" : [ "obj-3", 0 ],
									"destination" : [ "obj-7", 0 ],
									"hidden" : 0,
									"midpoints" : [  ]
								}

							}
, 							{
								"patchline" : 								{
									"source" : [ "obj-15", 1 ],
									"destination" : [ "obj-8", 1 ],
									"hidden" : 0,
									"midpoints" : [  ]
								}

							}
, 							{
								"patchline" : 								{
									"source" : [ "obj-30", 0 ],
									"destination" : [ "obj-14", 0 ],
									"hidden" : 0,
									"midpoints" : [  ]
								}

							}
, 							{
								"patchline" : 								{
									"source" : [ "obj-8", 0 ],
									"destination" : [ "obj-22", 0 ],
									"hidden" : 0,
									"midpoints" : [  ]
								}

							}
, 							{
								"patchline" : 								{
									"source" : [ "obj-1", 1 ],
									"destination" : [ "obj-22", 0 ],
									"hidden" : 0,
									"midpoints" : [  ]
								}

							}
, 							{
								"patchline" : 								{
									"source" : [ "obj-3", 0 ],
									"destination" : [ "obj-8", 0 ],
									"hidden" : 0,
									"midpoints" : [  ]
								}

							}
, 							{
								"patchline" : 								{
									"source" : [ "obj-16", 1 ],
									"destination" : [ "obj-9", 1 ],
									"hidden" : 0,
									"midpoints" : [  ]
								}

							}
, 							{
								"patchline" : 								{
									"source" : [ "obj-28", 0 ],
									"destination" : [ "obj-15", 0 ],
									"hidden" : 0,
									"midpoints" : [  ]
								}

							}
, 							{
								"patchline" : 								{
									"source" : [ "obj-9", 0 ],
									"destination" : [ "obj-23", 0 ],
									"hidden" : 0,
									"midpoints" : [  ]
								}

							}
, 							{
								"patchline" : 								{
									"source" : [ "obj-1", 1 ],
									"destination" : [ "obj-23", 0 ],
									"hidden" : 0,
									"midpoints" : [  ]
								}

							}
, 							{
								"patchline" : 								{
									"source" : [ "obj-3", 0 ],
									"destination" : [ "obj-9", 0 ],
									"hidden" : 0,
									"midpoints" : [  ]
								}

							}
, 							{
								"patchline" : 								{
									"source" : [ "obj-29", 0 ],
									"destination" : [ "obj-16", 0 ],
									"hidden" : 0,
									"midpoints" : [  ]
								}

							}
, 							{
								"patchline" : 								{
									"source" : [ "obj-17", 1 ],
									"destination" : [ "obj-10", 1 ],
									"hidden" : 0,
									"midpoints" : [  ]
								}

							}
, 							{
								"patchline" : 								{
									"source" : [ "obj-10", 0 ],
									"destination" : [ "obj-24", 0 ],
									"hidden" : 0,
									"midpoints" : [  ]
								}

							}
, 							{
								"patchline" : 								{
									"source" : [ "obj-1", 1 ],
									"destination" : [ "obj-24", 0 ],
									"hidden" : 0,
									"midpoints" : [  ]
								}

							}
, 							{
								"patchline" : 								{
									"source" : [ "obj-3", 0 ],
									"destination" : [ "obj-10", 0 ],
									"hidden" : 0,
									"midpoints" : [  ]
								}

							}
, 							{
								"patchline" : 								{
									"source" : [ "obj-25", 0 ],
									"destination" : [ "obj-17", 0 ],
									"hidden" : 0,
									"midpoints" : [  ]
								}

							}
 ]
					}
,
					"saved_object_attributes" : 					{
						"fontname" : "Arial",
						"default_fontface" : 0,
						"globalpatchername" : "",
						"default_fontname" : "Arial",
						"fontface" : 0,
						"fontsize" : 12.0,
						"default_fontsize" : 12.0
					}

				}

			}
, 			{
				"box" : 				{
					"maxclass" : "meter~",
					"presentation_rect" : [ 87.0, 27.0, 13.0, 58.0 ],
					"patching_rect" : [ 90.0, 24.0, 13.0, 58.0 ],
					"presentation" : 1,
					"id" : "obj-32",
					"coldcolor" : [ 0.0, 0.658824, 0.0, 1.0 ],
					"numinlets" : 1,
					"interval" : 100,
					"warmcolor" : [ 0.85098, 0.85098, 0.0, 1.0 ],
					"numoutlets" : 1,
					"tepidcolor" : [ 0.6, 0.729412, 0.0, 1.0 ],
					"bgcolor" : [ 0.419608, 0.419608, 0.419608, 1.0 ],
					"outlettype" : [ "float" ]
				}

			}
, 			{
				"box" : 				{
					"maxclass" : "meter~",
					"presentation_rect" : [ 73.0, 27.0, 13.0, 58.0 ],
					"patching_rect" : [ 75.0, 24.0, 13.0, 58.0 ],
					"presentation" : 1,
					"id" : "obj-33",
					"coldcolor" : [ 0.0, 0.658824, 0.0, 1.0 ],
					"numinlets" : 1,
					"interval" : 100,
					"warmcolor" : [ 0.85098, 0.85098, 0.0, 1.0 ],
					"numoutlets" : 1,
					"tepidcolor" : [ 0.6, 0.729412, 0.0, 1.0 ],
					"bgcolor" : [ 0.419608, 0.419608, 0.419608, 1.0 ],
					"outlettype" : [ "float" ]
				}

			}
, 			{
				"box" : 				{
					"maxclass" : "meter~",
					"presentation_rect" : [ 59.0, 27.0, 13.0, 58.0 ],
					"patching_rect" : [ 60.0, 24.0, 13.0, 58.0 ],
					"presentation" : 1,
					"id" : "obj-34",
					"coldcolor" : [ 0.0, 0.658824, 0.0, 1.0 ],
					"numinlets" : 1,
					"interval" : 100,
					"warmcolor" : [ 0.85098, 0.85098, 0.0, 1.0 ],
					"numoutlets" : 1,
					"tepidcolor" : [ 0.6, 0.729412, 0.0, 1.0 ],
					"bgcolor" : [ 0.419608, 0.419608, 0.419608, 1.0 ],
					"outlettype" : [ "float" ]
				}

			}
, 			{
				"box" : 				{
					"maxclass" : "meter~",
					"presentation_rect" : [ 45.0, 27.0, 13.0, 58.0 ],
					"patching_rect" : [ 45.0, 24.0, 13.0, 58.0 ],
					"presentation" : 1,
					"id" : "obj-35",
					"coldcolor" : [ 0.0, 0.658824, 0.0, 1.0 ],
					"numinlets" : 1,
					"interval" : 100,
					"warmcolor" : [ 0.85098, 0.85098, 0.0, 1.0 ],
					"numoutlets" : 1,
					"tepidcolor" : [ 0.6, 0.729412, 0.0, 1.0 ],
					"bgcolor" : [ 0.419608, 0.419608, 0.419608, 1.0 ],
					"outlettype" : [ "float" ]
				}

			}
, 			{
				"box" : 				{
					"maxclass" : "meter~",
					"presentation_rect" : [ 31.0, 27.0, 13.0, 58.0 ],
					"patching_rect" : [ 31.0, 24.0, 13.0, 58.0 ],
					"presentation" : 1,
					"id" : "obj-36",
					"coldcolor" : [ 0.0, 0.658824, 0.0, 1.0 ],
					"numinlets" : 1,
					"interval" : 100,
					"warmcolor" : [ 0.85098, 0.85098, 0.0, 1.0 ],
					"numoutlets" : 1,
					"tepidcolor" : [ 0.6, 0.729412, 0.0, 1.0 ],
					"bgcolor" : [ 0.419608, 0.419608, 0.419608, 1.0 ],
					"outlettype" : [ "float" ]
				}

			}
, 			{
				"box" : 				{
					"maxclass" : "meter~",
					"presentation_rect" : [ 133.0, 27.0, 13.0, 58.0 ],
					"patching_rect" : [ 135.0, 25.0, 13.0, 58.0 ],
					"presentation" : 1,
					"id" : "obj-37",
					"coldcolor" : [ 0.0, 0.658824, 0.0, 1.0 ],
					"numinlets" : 1,
					"interval" : 100,
					"warmcolor" : [ 0.85098, 0.85098, 0.0, 1.0 ],
					"numoutlets" : 1,
					"tepidcolor" : [ 0.6, 0.729412, 0.0, 1.0 ],
					"bgcolor" : [ 0.745098, 0.745098, 0.745098, 1.0 ],
					"outlettype" : [ "float" ]
				}

			}
, 			{
				"box" : 				{
					"maxclass" : "message",
					"text" : "open",
					"linecount" : 2,
					"presentation_rect" : [ 166.0, 65.0, 30.0, 15.0 ],
					"patching_rect" : [ 169.0, 64.0, 25.0, 25.0 ],
					"presentation" : 1,
					"id" : "obj-38",
					"fontname" : "Arial",
					"numinlets" : 2,
					"numoutlets" : 1,
					"fontsize" : 9.0,
					"outlettype" : [ "" ]
				}

			}
, 			{
				"box" : 				{
					"maxclass" : "toggle",
					"presentation_rect" : [ 196.0, 67.0, 13.0, 13.0 ],
					"patching_rect" : [ 193.0, 65.0, 13.0, 13.0 ],
					"presentation" : 1,
					"id" : "obj-39",
					"numinlets" : 1,
					"numoutlets" : 1,
					"outlettype" : [ "int" ]
				}

			}
, 			{
				"box" : 				{
					"maxclass" : "number~",
					"presentation_rect" : [ 173.0, 96.0, 61.0, 17.0 ],
					"patching_rect" : [ 173.0, 97.0, 61.0, 17.0 ],
					"sig" : 0.0,
					"presentation" : 1,
					"id" : "obj-40",
					"fontname" : "Arial",
					"mode" : 2,
					"numinlets" : 2,
					"interval" : 50.0,
					"numoutlets" : 2,
					"htextcolor" : [ 0.870588, 0.870588, 0.870588, 1.0 ],
					"fontsize" : 9.0,
					"bgcolor" : [ 0.866667, 0.866667, 0.866667, 1.0 ],
					"outlettype" : [ "signal", "float" ]
				}

			}
, 			{
				"box" : 				{
					"maxclass" : "newobj",
					"text" : "sfrecord~ 2",
					"presentation_rect" : [ 172.0, 80.0, 62.0, 17.0 ],
					"patching_rect" : [ 172.0, 81.0, 62.0, 17.0 ],
					"presentation" : 1,
					"id" : "obj-41",
					"fontname" : "Arial",
					"numinlets" : 2,
					"numoutlets" : 1,
					"fontsize" : 9.0,
					"outlettype" : [ "signal" ]
				}

			}
, 			{
				"box" : 				{
					"maxclass" : "message",
					"text" : "close",
					"linecount" : 2,
					"patching_rect" : [ 286.0, 27.0, 29.0, 25.0 ],
					"hidden" : 1,
					"id" : "obj-42",
					"fontname" : "Arial",
					"numinlets" : 2,
					"numoutlets" : 1,
					"fontsize" : 9.0,
					"outlettype" : [ "" ]
				}

			}
, 			{
				"box" : 				{
					"maxclass" : "newobj",
					"text" : "sel 1 0",
					"patching_rect" : [ 260.0, 10.0, 63.0, 17.0 ],
					"hidden" : 1,
					"id" : "obj-43",
					"fontname" : "Arial",
					"numinlets" : 1,
					"numoutlets" : 3,
					"fontsize" : 9.0,
					"outlettype" : [ "bang", "bang", "" ]
				}

			}
, 			{
				"box" : 				{
					"maxclass" : "message",
					"text" : "open",
					"linecount" : 2,
					"patching_rect" : [ 260.0, 27.0, 26.0, 25.0 ],
					"hidden" : 1,
					"id" : "obj-44",
					"fontname" : "Arial",
					"numinlets" : 2,
					"numoutlets" : 1,
					"fontsize" : 9.0,
					"outlettype" : [ "" ]
				}

			}
, 			{
				"box" : 				{
					"maxclass" : "newobj",
					"text" : "pcontrol",
					"patching_rect" : [ 226.0, 132.0, 47.0, 17.0 ],
					"hidden" : 1,
					"id" : "obj-45",
					"fontname" : "Arial",
					"numinlets" : 1,
					"numoutlets" : 1,
					"fontsize" : 9.0,
					"outlettype" : [ "" ]
				}

			}
, 			{
				"box" : 				{
					"maxclass" : "toggle",
					"presentation_rect" : [ 182.0, 22.0, 19.0, 19.0 ],
					"patching_rect" : [ 182.0, 20.0, 20.0, 20.0 ],
					"presentation" : 1,
					"id" : "obj-46",
					"numinlets" : 1,
					"numoutlets" : 1,
					"bgcolor" : [ 0.945098, 0.913725, 0.407843, 1.0 ],
					"outlettype" : [ "int" ]
				}

			}
, 			{
				"box" : 				{
					"maxclass" : "newobj",
					"text" : "p matrice",
					"patching_rect" : [ 226.0, 280.0, 53.0, 17.0 ],
					"hidden" : 1,
					"id" : "obj-47",
					"fontname" : "Arial",
					"numinlets" : 1,
					"numoutlets" : 1,
					"fontsize" : 9.0,
					"outlettype" : [ "list" ],
					"patcher" : 					{
						"fileversion" : 1,
						"rect" : [ 870.0, 463.0, 228.0, 252.0 ],
						"bgcolor" : [ 0.4, 1.0, 0.45098, 1.0 ],
						"bglocked" : 0,
						"defrect" : [ 870.0, 463.0, 228.0, 252.0 ],
						"openrect" : [ 0.0, 0.0, 0.0, 0.0 ],
						"openinpresentation" : 0,
						"default_fontsize" : 12.0,
						"default_fontface" : 0,
						"default_fontname" : "Arial",
						"gridonopen" : 0,
						"gridsize" : [ 15.0, 15.0 ],
						"gridsnaponopen" : 0,
						"toolbarvisible" : 1,
						"boxanimatetime" : 200,
						"imprint" : 0,
						"metadata" : [  ],
						"boxes" : [ 							{
								"box" : 								{
									"maxclass" : "newobj",
									"text" : "bgcolor 102 255 115",
									"patching_rect" : [ 313.0, 179.0, 106.0, 17.0 ],
									"hidden" : 1,
									"id" : "obj-1",
									"fontname" : "Arial",
									"numinlets" : 4,
									"numoutlets" : 0,
									"fontsize" : 9.0
								}

							}
, 							{
								"box" : 								{
									"maxclass" : "comment",
									"text" : "cont  b1  b2  b3",
									"patching_rect" : [ 46.0, 22.0, 76.0, 17.0 ],
									"id" : "obj-2",
									"fontname" : "Arial",
									"numinlets" : 1,
									"numoutlets" : 0,
									"fontsize" : 9.0
								}

							}
, 							{
								"box" : 								{
									"maxclass" : "matrixctrl",
									"cellpict" : "MatrixDefaultCell.pct",
									"presentation_rect" : [ 0.0, 0.0, 148.0, 196.0 ],
									"horizontalmargin" : 2,
									"rows" : 12,
									"patching_rect" : [ 51.0, 35.0, 148.0, 196.0 ],
									"bkgndpict" : "MatrixDefaultBkgnd.pct",
									"id" : "obj-3",
									"numinlets" : 1,
									"verticalmargin" : 2,
									"columns" : 9,
									"numoutlets" : 2,
									"outlettype" : [ "list", "list" ]
								}

							}
, 							{
								"box" : 								{
									"maxclass" : "comment",
									"text" : "b4  b5 seq dir   cue",
									"patching_rect" : [ 114.0, 22.0, 93.0, 17.0 ],
									"id" : "obj-4",
									"fontname" : "Arial",
									"numinlets" : 1,
									"numoutlets" : 0,
									"fontsize" : 9.0
								}

							}
, 							{
								"box" : 								{
									"maxclass" : "comment",
									"text" : "_L _R",
									"linecount" : 2,
									"patching_rect" : [ 21.0, 198.0, 30.0, 34.0 ],
									"id" : "obj-5",
									"fontname" : "Arial",
									"numinlets" : 1,
									"numoutlets" : 0,
									"fontsize" : 12.0
								}

							}
, 							{
								"box" : 								{
									"maxclass" : "comment",
									"text" : "cue",
									"patching_rect" : [ 198.0, 164.0, 25.0, 17.0 ],
									"id" : "obj-6",
									"fontname" : "Arial",
									"numinlets" : 1,
									"numoutlets" : 0,
									"fontsize" : 9.0
								}

							}
, 							{
								"box" : 								{
									"maxclass" : "comment",
									"text" : "rec",
									"patching_rect" : [ 0.0, 206.0, 30.0, 20.0 ],
									"id" : "obj-7",
									"fontname" : "Arial",
									"numinlets" : 1,
									"numoutlets" : 0,
									"fontsize" : 12.0
								}

							}
, 							{
								"box" : 								{
									"maxclass" : "toggle",
									"patching_rect" : [ 77.0, 231.0, 15.0, 15.0 ],
									"id" : "obj-8",
									"numinlets" : 1,
									"numoutlets" : 1,
									"outlettype" : [ "int" ]
								}

							}
, 							{
								"box" : 								{
									"maxclass" : "newobj",
									"text" : "p init",
									"patching_rect" : [ 251.0, 19.0, 33.0, 17.0 ],
									"hidden" : 1,
									"id" : "obj-9",
									"fontname" : "Arial",
									"numinlets" : 1,
									"numoutlets" : 1,
									"fontsize" : 9.0,
									"outlettype" : [ "" ],
									"patcher" : 									{
										"fileversion" : 1,
										"rect" : [ 171.0, 409.0, 600.0, 426.0 ],
										"bglocked" : 0,
										"defrect" : [ 171.0, 409.0, 600.0, 426.0 ],
										"openrect" : [ 0.0, 0.0, 0.0, 0.0 ],
										"openinpresentation" : 0,
										"default_fontsize" : 12.0,
										"default_fontface" : 0,
										"default_fontname" : "Arial",
										"gridonopen" : 0,
										"gridsize" : [ 15.0, 15.0 ],
										"gridsnaponopen" : 0,
										"toolbarvisible" : 1,
										"boxanimatetime" : 200,
										"imprint" : 0,
										"metadata" : [  ],
										"boxes" : [ 											{
												"box" : 												{
													"maxclass" : "message",
													"text" : "0 0 1, 1 1 1, 2 0 1, 3 1 1, 4 0 1, 5 1 1, 6 0 1, 7 1 1",
													"patching_rect" : [ 93.0, 157.0, 251.0, 15.0 ],
													"id" : "obj-1",
													"fontname" : "Arial",
													"numinlets" : 2,
													"numoutlets" : 1,
													"fontsize" : 9.0,
													"outlettype" : [ "" ]
												}

											}
, 											{
												"box" : 												{
													"maxclass" : "message",
													"text" : "0 0 1, 0 1 1, 1 1 1, 2 0 1, 3 1 1, 4 0 1, 5 1 1, 6 0 1, 8 8 1",
													"patching_rect" : [ 79.0, 139.0, 282.0, 15.0 ],
													"id" : "obj-2",
													"fontname" : "Arial",
													"numinlets" : 2,
													"numoutlets" : 1,
													"fontsize" : 9.0,
													"outlettype" : [ "" ]
												}

											}
, 											{
												"box" : 												{
													"maxclass" : "newobj",
													"text" : "gate",
													"patching_rect" : [ 158.0, 298.0, 29.0, 17.0 ],
													"id" : "obj-3",
													"fontname" : "Arial",
													"numinlets" : 2,
													"numoutlets" : 1,
													"fontsize" : 9.0,
													"outlettype" : [ "" ]
												}

											}
, 											{
												"box" : 												{
													"maxclass" : "toggle",
													"patching_rect" : [ 155.0, 67.0, 15.0, 15.0 ],
													"id" : "obj-4",
													"numinlets" : 1,
													"numoutlets" : 1,
													"outlettype" : [ "int" ]
												}

											}
, 											{
												"box" : 												{
													"maxclass" : "message",
													"text" : "clear",
													"patching_rect" : [ 445.0, 83.0, 33.0, 15.0 ],
													"id" : "obj-5",
													"fontname" : "Arial",
													"numinlets" : 2,
													"numoutlets" : 1,
													"fontsize" : 9.0,
													"outlettype" : [ "" ]
												}

											}
, 											{
												"box" : 												{
													"maxclass" : "inlet",
													"patching_rect" : [ 85.0, 22.0, 15.0, 15.0 ],
													"id" : "obj-6",
													"numinlets" : 0,
													"numoutlets" : 1,
													"outlettype" : [ "int" ],
													"comment" : ""
												}

											}
, 											{
												"box" : 												{
													"maxclass" : "newobj",
													"text" : "t i b b",
													"patching_rect" : [ 85.0, 43.0, 372.0, 17.0 ],
													"id" : "obj-7",
													"fontname" : "Arial",
													"numinlets" : 1,
													"numoutlets" : 3,
													"fontsize" : 9.0,
													"outlettype" : [ "int", "bang", "bang" ]
												}

											}
, 											{
												"box" : 												{
													"maxclass" : "newobj",
													"text" : "0",
													"patching_rect" : [ 20.0, 42.0, 27.0, 17.0 ],
													"id" : "obj-8",
													"fontname" : "Arial",
													"numinlets" : 2,
													"numoutlets" : 1,
													"fontsize" : 9.0,
													"outlettype" : [ "int" ]
												}

											}
, 											{
												"box" : 												{
													"maxclass" : "message",
													"text" : "0 0 1, 1 1 1, 2 2 1, 3 3 1, 4 4 1, 5 5 1, 6 6 1, 8 8 1",
													"patching_rect" : [ 116.0, 117.0, 254.0, 15.0 ],
													"id" : "obj-9",
													"fontname" : "Arial",
													"numinlets" : 2,
													"numoutlets" : 1,
													"fontsize" : 9.0,
													"outlettype" : [ "" ]
												}

											}
, 											{
												"box" : 												{
													"maxclass" : "newobj",
													"text" : "sel 0 1",
													"patching_rect" : [ 85.0, 84.0, 41.0, 17.0 ],
													"id" : "obj-10",
													"fontname" : "Arial",
													"numinlets" : 1,
													"numoutlets" : 3,
													"fontsize" : 9.0,
													"outlettype" : [ "bang", "bang", "" ]
												}

											}
, 											{
												"box" : 												{
													"maxclass" : "outlet",
													"patching_rect" : [ 84.0, 273.0, 15.0, 15.0 ],
													"id" : "obj-11",
													"numinlets" : 1,
													"numoutlets" : 0,
													"comment" : ""
												}

											}
, 											{
												"box" : 												{
													"maxclass" : "newobj",
													"text" : "loadbang",
													"patching_rect" : [ 20.0, 23.0, 48.0, 17.0 ],
													"id" : "obj-12",
													"fontname" : "Arial",
													"numinlets" : 1,
													"numoutlets" : 1,
													"fontsize" : 9.0,
													"outlettype" : [ "bang" ]
												}

											}
, 											{
												"box" : 												{
													"maxclass" : "newobj",
													"text" : "pack 1 2 3",
													"patching_rect" : [ 100.0, 231.0, 67.0, 17.0 ],
													"id" : "obj-13",
													"fontname" : "Arial",
													"numinlets" : 3,
													"numoutlets" : 1,
													"fontsize" : 9.0,
													"outlettype" : [ "" ]
												}

											}
, 											{
												"box" : 												{
													"maxclass" : "newobj",
													"text" : "+ 10",
													"patching_rect" : [ 127.0, 207.0, 31.0, 17.0 ],
													"id" : "obj-14",
													"fontname" : "Arial",
													"numinlets" : 2,
													"numoutlets" : 1,
													"fontsize" : 9.0,
													"outlettype" : [ "int" ]
												}

											}
, 											{
												"box" : 												{
													"maxclass" : "newobj",
													"text" : "unpack 1 2 3",
													"patching_rect" : [ 100.0, 186.0, 67.0, 17.0 ],
													"id" : "obj-15",
													"fontname" : "Arial",
													"numinlets" : 1,
													"numoutlets" : 3,
													"fontsize" : 9.0,
													"outlettype" : [ "int", "int", "int" ]
												}

											}
 ],
										"lines" : [ 											{
												"patchline" : 												{
													"source" : [ "obj-7", 2 ],
													"destination" : [ "obj-5", 0 ],
													"hidden" : 0,
													"midpoints" : [  ]
												}

											}
, 											{
												"patchline" : 												{
													"source" : [ "obj-15", 2 ],
													"destination" : [ "obj-13", 2 ],
													"hidden" : 0,
													"midpoints" : [  ]
												}

											}
, 											{
												"patchline" : 												{
													"source" : [ "obj-14", 0 ],
													"destination" : [ "obj-13", 1 ],
													"hidden" : 0,
													"midpoints" : [  ]
												}

											}
, 											{
												"patchline" : 												{
													"source" : [ "obj-15", 1 ],
													"destination" : [ "obj-14", 0 ],
													"hidden" : 0,
													"midpoints" : [  ]
												}

											}
, 											{
												"patchline" : 												{
													"source" : [ "obj-10", 1 ],
													"destination" : [ "obj-9", 0 ],
													"hidden" : 0,
													"midpoints" : [  ]
												}

											}
, 											{
												"patchline" : 												{
													"source" : [ "obj-15", 0 ],
													"destination" : [ "obj-13", 0 ],
													"hidden" : 0,
													"midpoints" : [  ]
												}

											}
, 											{
												"patchline" : 												{
													"source" : [ "obj-1", 0 ],
													"destination" : [ "obj-15", 0 ],
													"hidden" : 0,
													"midpoints" : [  ]
												}

											}
, 											{
												"patchline" : 												{
													"source" : [ "obj-10", 0 ],
													"destination" : [ "obj-1", 0 ],
													"hidden" : 0,
													"midpoints" : [  ]
												}

											}
, 											{
												"patchline" : 												{
													"source" : [ "obj-10", 1 ],
													"destination" : [ "obj-1", 0 ],
													"hidden" : 0,
													"midpoints" : [  ]
												}

											}
, 											{
												"patchline" : 												{
													"source" : [ "obj-4", 0 ],
													"destination" : [ "obj-10", 0 ],
													"hidden" : 0,
													"midpoints" : [  ]
												}

											}
, 											{
												"patchline" : 												{
													"source" : [ "obj-7", 0 ],
													"destination" : [ "obj-10", 0 ],
													"hidden" : 0,
													"midpoints" : [  ]
												}

											}
, 											{
												"patchline" : 												{
													"source" : [ "obj-6", 0 ],
													"destination" : [ "obj-7", 0 ],
													"hidden" : 0,
													"midpoints" : [  ]
												}

											}
, 											{
												"patchline" : 												{
													"source" : [ "obj-8", 0 ],
													"destination" : [ "obj-7", 0 ],
													"hidden" : 0,
													"midpoints" : [  ]
												}

											}
, 											{
												"patchline" : 												{
													"source" : [ "obj-2", 0 ],
													"destination" : [ "obj-11", 0 ],
													"hidden" : 0,
													"midpoints" : [  ]
												}

											}
, 											{
												"patchline" : 												{
													"source" : [ "obj-13", 0 ],
													"destination" : [ "obj-11", 0 ],
													"hidden" : 0,
													"midpoints" : [  ]
												}

											}
, 											{
												"patchline" : 												{
													"source" : [ "obj-9", 0 ],
													"destination" : [ "obj-11", 0 ],
													"hidden" : 0,
													"midpoints" : [  ]
												}

											}
, 											{
												"patchline" : 												{
													"source" : [ "obj-5", 0 ],
													"destination" : [ "obj-11", 0 ],
													"hidden" : 0,
													"midpoints" : [  ]
												}

											}
, 											{
												"patchline" : 												{
													"source" : [ "obj-10", 0 ],
													"destination" : [ "obj-2", 0 ],
													"hidden" : 0,
													"midpoints" : [  ]
												}

											}
, 											{
												"patchline" : 												{
													"source" : [ "obj-12", 0 ],
													"destination" : [ "obj-8", 0 ],
													"hidden" : 0,
													"midpoints" : [  ]
												}

											}
 ]
									}
,
									"saved_object_attributes" : 									{
										"fontname" : "Arial",
										"default_fontface" : 0,
										"globalpatchername" : "",
										"default_fontname" : "Arial",
										"fontface" : 0,
										"fontsize" : 12.0,
										"default_fontsize" : 12.0
									}

								}

							}
, 							{
								"box" : 								{
									"maxclass" : "message",
									"text" : "clear",
									"patching_rect" : [ 50.0, 231.0, 28.0, 15.0 ],
									"id" : "obj-10",
									"fontname" : "Arial",
									"numinlets" : 2,
									"numoutlets" : 1,
									"fontsize" : 9.0,
									"outlettype" : [ "" ]
								}

							}
, 							{
								"box" : 								{
									"maxclass" : "comment",
									"text" : "0-stereo 1-dac1-9",
									"patching_rect" : [ 92.0, 232.0, 93.0, 17.0 ],
									"id" : "obj-11",
									"fontname" : "Arial",
									"numinlets" : 1,
									"numoutlets" : 0,
									"fontsize" : 9.0
								}

							}
, 							{
								"box" : 								{
									"maxclass" : "comment",
									"text" : "dac 1_ 2_ 3_ 4_ 5_ 6_ 7_ 8_ 9_ 10",
									"linecount" : 11,
									"patching_rect" : [ 22.0, 11.0, 35.0, 184.0 ],
									"id" : "obj-12",
									"fontname" : "Arial",
									"numinlets" : 1,
									"numoutlets" : 0,
									"fontsize" : 14.0
								}

							}
, 							{
								"box" : 								{
									"maxclass" : "comment",
									"text" : "INPUT ___________________",
									"patching_rect" : [ 49.0, 11.0, 156.0, 17.0 ],
									"id" : "obj-13",
									"fontname" : "Arial",
									"numinlets" : 1,
									"numoutlets" : 0,
									"fontsize" : 9.0
								}

							}
, 							{
								"box" : 								{
									"maxclass" : "inlet",
									"patching_rect" : [ 348.0, 98.0, 15.0, 15.0 ],
									"hidden" : 1,
									"id" : "obj-14",
									"numinlets" : 0,
									"numoutlets" : 1,
									"outlettype" : [ "" ],
									"comment" : ""
								}

							}
, 							{
								"box" : 								{
									"maxclass" : "outlet",
									"patching_rect" : [ 55.0, 276.0, 15.0, 15.0 ],
									"hidden" : 1,
									"id" : "obj-15",
									"numinlets" : 1,
									"numoutlets" : 0,
									"comment" : ""
								}

							}
 ],
						"lines" : [ 							{
								"patchline" : 								{
									"source" : [ "obj-8", 0 ],
									"destination" : [ "obj-9", 0 ],
									"hidden" : 1,
									"midpoints" : [  ]
								}

							}
, 							{
								"patchline" : 								{
									"source" : [ "obj-3", 0 ],
									"destination" : [ "obj-15", 0 ],
									"hidden" : 1,
									"midpoints" : [  ]
								}

							}
, 							{
								"patchline" : 								{
									"source" : [ "obj-10", 0 ],
									"destination" : [ "obj-3", 0 ],
									"hidden" : 1,
									"midpoints" : [  ]
								}

							}
, 							{
								"patchline" : 								{
									"source" : [ "obj-9", 0 ],
									"destination" : [ "obj-3", 0 ],
									"hidden" : 1,
									"midpoints" : [  ]
								}

							}
 ]
					}
,
					"saved_object_attributes" : 					{
						"fontname" : "Arial",
						"default_fontface" : 0,
						"globalpatchername" : "",
						"default_fontname" : "Arial",
						"fontface" : 0,
						"fontsize" : 12.0,
						"default_fontsize" : 12.0
					}

				}

			}
, 			{
				"box" : 				{
					"maxclass" : "comment",
					"text" : "LrecR",
					"presentation_rect" : [ 204.0, 9.0, 33.0, 17.0 ],
					"patching_rect" : [ 203.0, 11.0, 33.0, 17.0 ],
					"presentation" : 1,
					"id" : "obj-48",
					"fontname" : "Arial",
					"numinlets" : 1,
					"numoutlets" : 0,
					"fontsize" : 9.0
				}

			}
, 			{
				"box" : 				{
					"maxclass" : "comment",
					"text" : "seq /dir cue",
					"presentation_rect" : [ 109.0, 98.0, 66.0, 17.0 ],
					"patching_rect" : [ 106.0, 98.0, 66.0, 17.0 ],
					"presentation" : 1,
					"id" : "obj-49",
					"fontname" : "Arial",
					"numinlets" : 1,
					"numoutlets" : 0,
					"fontsize" : 9.0
				}

			}
, 			{
				"box" : 				{
					"maxclass" : "comment",
					"text" : "blocks 1-5",
					"presentation_rect" : [ 47.0, 100.0, 53.0, 17.0 ],
					"patching_rect" : [ 47.0, 100.0, 53.0, 17.0 ],
					"presentation" : 1,
					"id" : "obj-50",
					"fontname" : "Arial",
					"numinlets" : 1,
					"numoutlets" : 0,
					"fontsize" : 9.0
				}

			}
, 			{
				"box" : 				{
					"maxclass" : "newobj",
					"text" : "p matriage",
					"patching_rect" : [ 9.0, 301.0, 166.0, 17.0 ],
					"hidden" : 1,
					"id" : "obj-51",
					"fontname" : "Arial",
					"numinlets" : 1,
					"numoutlets" : 11,
					"fontsize" : 9.0,
					"outlettype" : [ "signal", "signal", "signal", "signal", "signal", "signal", "signal", "signal", "signal", "signal", "signal" ],
					"patcher" : 					{
						"fileversion" : 1,
						"rect" : [ 234.0, 717.0, 875.0, 317.0 ],
						"bglocked" : 0,
						"defrect" : [ 234.0, 717.0, 875.0, 317.0 ],
						"openrect" : [ 0.0, 0.0, 0.0, 0.0 ],
						"openinpresentation" : 0,
						"default_fontsize" : 12.0,
						"default_fontface" : 0,
						"default_fontname" : "Arial",
						"gridonopen" : 0,
						"gridsize" : [ 15.0, 15.0 ],
						"gridsnaponopen" : 0,
						"toolbarvisible" : 1,
						"boxanimatetime" : 200,
						"imprint" : 0,
						"metadata" : [  ],
						"boxes" : [ 							{
								"box" : 								{
									"maxclass" : "newobj",
									"text" : "r #1_soloson_delay",
									"patching_rect" : [ 678.0, 21.0, 100.0, 17.0 ],
									"id" : "obj-1",
									"fontname" : "Arial",
									"numinlets" : 0,
									"numoutlets" : 1,
									"fontsize" : 9.0,
									"outlettype" : [ "" ]
								}

							}
, 							{
								"box" : 								{
									"maxclass" : "newobj",
									"text" : "r #1_dirson_delay",
									"patching_rect" : [ 563.0, 21.0, 95.0, 17.0 ],
									"id" : "obj-2",
									"fontname" : "Arial",
									"numinlets" : 0,
									"numoutlets" : 1,
									"fontsize" : 9.0,
									"outlettype" : [ "" ]
								}

							}
, 							{
								"box" : 								{
									"maxclass" : "newobj",
									"text" : "r #1_seqdirson_delay",
									"patching_rect" : [ 443.0, 21.0, 110.0, 17.0 ],
									"id" : "obj-3",
									"fontname" : "Arial",
									"numinlets" : 0,
									"numoutlets" : 1,
									"fontsize" : 9.0,
									"outlettype" : [ "" ]
								}

							}
, 							{
								"box" : 								{
									"maxclass" : "newobj",
									"text" : "r #1_blockson_delay",
									"patching_rect" : [ 250.0, 21.0, 105.0, 17.0 ],
									"id" : "obj-4",
									"fontname" : "Arial",
									"numinlets" : 0,
									"numoutlets" : 1,
									"fontsize" : 9.0,
									"outlettype" : [ "" ]
								}

							}
, 							{
								"box" : 								{
									"maxclass" : "newobj",
									"text" : "r #1_contison_delay",
									"patching_rect" : [ 130.0, 21.0, 104.0, 17.0 ],
									"id" : "obj-5",
									"fontname" : "Arial",
									"numinlets" : 0,
									"numoutlets" : 1,
									"fontsize" : 9.0,
									"outlettype" : [ "" ]
								}

							}
, 							{
								"box" : 								{
									"maxclass" : "newobj",
									"text" : "tapout~ 0",
									"patching_rect" : [ 559.0, 167.0, 53.0, 17.0 ],
									"id" : "obj-6",
									"fontname" : "Arial",
									"numinlets" : 1,
									"numoutlets" : 1,
									"fontsize" : 9.0,
									"outlettype" : [ "signal" ]
								}

							}
, 							{
								"box" : 								{
									"maxclass" : "newobj",
									"text" : "tapin~ 1000",
									"patching_rect" : [ 559.0, 145.0, 65.0, 17.0 ],
									"id" : "obj-7",
									"fontname" : "Arial",
									"numinlets" : 1,
									"numoutlets" : 1,
									"fontsize" : 9.0,
									"outlettype" : [ "tapconnect" ]
								}

							}
, 							{
								"box" : 								{
									"maxclass" : "newobj",
									"text" : "tapout~ 0",
									"patching_rect" : [ 445.0, 167.0, 53.0, 17.0 ],
									"id" : "obj-8",
									"fontname" : "Arial",
									"numinlets" : 1,
									"numoutlets" : 1,
									"fontsize" : 9.0,
									"outlettype" : [ "signal" ]
								}

							}
, 							{
								"box" : 								{
									"maxclass" : "newobj",
									"text" : "tapin~ 1000",
									"patching_rect" : [ 445.0, 145.0, 65.0, 17.0 ],
									"id" : "obj-9",
									"fontname" : "Arial",
									"numinlets" : 1,
									"numoutlets" : 1,
									"fontsize" : 9.0,
									"outlettype" : [ "tapconnect" ]
								}

							}
, 							{
								"box" : 								{
									"maxclass" : "newobj",
									"text" : "tapout~ 0",
									"patching_rect" : [ 331.0, 167.0, 53.0, 17.0 ],
									"id" : "obj-10",
									"fontname" : "Arial",
									"numinlets" : 1,
									"numoutlets" : 1,
									"fontsize" : 9.0,
									"outlettype" : [ "signal" ]
								}

							}
, 							{
								"box" : 								{
									"maxclass" : "newobj",
									"text" : "tapin~ 1000",
									"patching_rect" : [ 331.0, 145.0, 65.0, 17.0 ],
									"id" : "obj-11",
									"fontname" : "Arial",
									"numinlets" : 1,
									"numoutlets" : 1,
									"fontsize" : 9.0,
									"outlettype" : [ "tapconnect" ]
								}

							}
, 							{
								"box" : 								{
									"maxclass" : "newobj",
									"text" : "tapout~ 0",
									"patching_rect" : [ 616.0, 124.0, 53.0, 17.0 ],
									"id" : "obj-12",
									"fontname" : "Arial",
									"numinlets" : 1,
									"numoutlets" : 1,
									"fontsize" : 9.0,
									"outlettype" : [ "signal" ]
								}

							}
, 							{
								"box" : 								{
									"maxclass" : "newobj",
									"text" : "tapin~ 1000",
									"patching_rect" : [ 616.0, 102.0, 65.0, 17.0 ],
									"id" : "obj-13",
									"fontname" : "Arial",
									"numinlets" : 1,
									"numoutlets" : 1,
									"fontsize" : 9.0,
									"outlettype" : [ "tapconnect" ]
								}

							}
, 							{
								"box" : 								{
									"maxclass" : "newobj",
									"text" : "tapout~ 0",
									"patching_rect" : [ 502.0, 123.0, 53.0, 17.0 ],
									"id" : "obj-14",
									"fontname" : "Arial",
									"numinlets" : 1,
									"numoutlets" : 1,
									"fontsize" : 9.0,
									"outlettype" : [ "signal" ]
								}

							}
, 							{
								"box" : 								{
									"maxclass" : "newobj",
									"text" : "tapin~ 1000",
									"patching_rect" : [ 502.0, 101.0, 65.0, 17.0 ],
									"id" : "obj-15",
									"fontname" : "Arial",
									"numinlets" : 1,
									"numoutlets" : 1,
									"fontsize" : 9.0,
									"outlettype" : [ "tapconnect" ]
								}

							}
, 							{
								"box" : 								{
									"maxclass" : "newobj",
									"text" : "tapout~ 0",
									"patching_rect" : [ 388.0, 122.0, 53.0, 17.0 ],
									"id" : "obj-16",
									"fontname" : "Arial",
									"numinlets" : 1,
									"numoutlets" : 1,
									"fontsize" : 9.0,
									"outlettype" : [ "signal" ]
								}

							}
, 							{
								"box" : 								{
									"maxclass" : "newobj",
									"text" : "tapin~ 1000",
									"patching_rect" : [ 388.0, 100.0, 65.0, 17.0 ],
									"id" : "obj-17",
									"fontname" : "Arial",
									"numinlets" : 1,
									"numoutlets" : 1,
									"fontsize" : 9.0,
									"outlettype" : [ "tapconnect" ]
								}

							}
, 							{
								"box" : 								{
									"maxclass" : "newobj",
									"text" : "tapout~ 0",
									"patching_rect" : [ 274.0, 121.0, 53.0, 17.0 ],
									"id" : "obj-18",
									"fontname" : "Arial",
									"numinlets" : 1,
									"numoutlets" : 1,
									"fontsize" : 9.0,
									"outlettype" : [ "signal" ]
								}

							}
, 							{
								"box" : 								{
									"maxclass" : "newobj",
									"text" : "tapin~ 1000",
									"patching_rect" : [ 274.0, 99.0, 65.0, 17.0 ],
									"id" : "obj-19",
									"fontname" : "Arial",
									"numinlets" : 1,
									"numoutlets" : 1,
									"fontsize" : 9.0,
									"outlettype" : [ "tapconnect" ]
								}

							}
, 							{
								"box" : 								{
									"maxclass" : "newobj",
									"text" : "tapout~ 0",
									"patching_rect" : [ 217.0, 167.0, 53.0, 17.0 ],
									"id" : "obj-20",
									"fontname" : "Arial",
									"numinlets" : 1,
									"numoutlets" : 1,
									"fontsize" : 9.0,
									"outlettype" : [ "signal" ]
								}

							}
, 							{
								"box" : 								{
									"maxclass" : "newobj",
									"text" : "tapin~ 1000",
									"patching_rect" : [ 217.0, 145.0, 65.0, 17.0 ],
									"id" : "obj-21",
									"fontname" : "Arial",
									"numinlets" : 1,
									"numoutlets" : 1,
									"fontsize" : 9.0,
									"outlettype" : [ "tapconnect" ]
								}

							}
, 							{
								"box" : 								{
									"maxclass" : "newobj",
									"text" : "tapout~ 0",
									"patching_rect" : [ 160.0, 121.0, 53.0, 17.0 ],
									"id" : "obj-22",
									"fontname" : "Arial",
									"numinlets" : 1,
									"numoutlets" : 1,
									"fontsize" : 9.0,
									"outlettype" : [ "signal" ]
								}

							}
, 							{
								"box" : 								{
									"maxclass" : "newobj",
									"text" : "tapin~ 1000",
									"patching_rect" : [ 160.0, 99.0, 65.0, 17.0 ],
									"id" : "obj-23",
									"fontname" : "Arial",
									"numinlets" : 1,
									"numoutlets" : 1,
									"fontsize" : 9.0,
									"outlettype" : [ "tapconnect" ]
								}

							}
, 							{
								"box" : 								{
									"maxclass" : "outlet",
									"patching_rect" : [ 549.0, 81.0, 15.0, 15.0 ],
									"id" : "obj-24",
									"numinlets" : 1,
									"numoutlets" : 0,
									"comment" : ""
								}

							}
, 							{
								"box" : 								{
									"maxclass" : "newobj",
									"text" : "receive~  #1_dirson",
									"patching_rect" : [ 559.0, 62.0, 89.0, 17.0 ],
									"id" : "obj-25",
									"fontname" : "Arial",
									"numinlets" : 1,
									"numoutlets" : 1,
									"fontsize" : 9.0,
									"outlettype" : [ "signal" ]
								}

							}
, 							{
								"box" : 								{
									"maxclass" : "newobj",
									"text" : "loadbang",
									"patching_rect" : [ 22.0, 120.0, 48.0, 17.0 ],
									"id" : "obj-26",
									"fontname" : "Arial",
									"numinlets" : 1,
									"numoutlets" : 1,
									"fontsize" : 9.0,
									"outlettype" : [ "bang" ]
								}

							}
, 							{
								"box" : 								{
									"maxclass" : "newobj",
									"text" : "receive~ #1_soloson",
									"patching_rect" : [ 616.0, 42.0, 93.0, 17.0 ],
									"id" : "obj-27",
									"fontname" : "Arial",
									"numinlets" : 1,
									"numoutlets" : 1,
									"fontsize" : 9.0,
									"outlettype" : [ "signal" ]
								}

							}
, 							{
								"box" : 								{
									"maxclass" : "newobj",
									"text" : "receive~  #1_seqdirson",
									"patching_rect" : [ 502.0, 42.0, 104.0, 17.0 ],
									"id" : "obj-28",
									"fontname" : "Arial",
									"numinlets" : 1,
									"numoutlets" : 1,
									"fontsize" : 9.0,
									"outlettype" : [ "signal" ]
								}

							}
, 							{
								"box" : 								{
									"maxclass" : "newobj",
									"text" : "receive~  #1_b5son",
									"patching_rect" : [ 445.0, 62.0, 89.0, 17.0 ],
									"id" : "obj-29",
									"fontname" : "Arial",
									"numinlets" : 1,
									"numoutlets" : 1,
									"fontsize" : 9.0,
									"outlettype" : [ "signal" ]
								}

							}
, 							{
								"box" : 								{
									"maxclass" : "newobj",
									"text" : "dac~ 1 2 3 4 5 6 7 8 9 10",
									"patching_rect" : [ 160.0, 214.0, 357.0, 17.0 ],
									"id" : "obj-30",
									"fontname" : "Arial",
									"numinlets" : 10,
									"numoutlets" : 0,
									"fontsize" : 9.0
								}

							}
, 							{
								"box" : 								{
									"maxclass" : "newobj",
									"text" : "receive~ #1_contison",
									"patching_rect" : [ 160.0, 42.0, 96.0, 17.0 ],
									"id" : "obj-31",
									"fontname" : "Arial",
									"numinlets" : 1,
									"numoutlets" : 1,
									"fontsize" : 9.0,
									"outlettype" : [ "signal" ]
								}

							}
, 							{
								"box" : 								{
									"maxclass" : "newobj",
									"text" : "receive~ #1_b4son",
									"patching_rect" : [ 388.0, 42.0, 87.0, 17.0 ],
									"id" : "obj-32",
									"fontname" : "Arial",
									"numinlets" : 1,
									"numoutlets" : 1,
									"fontsize" : 9.0,
									"outlettype" : [ "signal" ]
								}

							}
, 							{
								"box" : 								{
									"maxclass" : "newobj",
									"text" : "receive~ #1_b2son",
									"patching_rect" : [ 274.0, 42.0, 87.0, 17.0 ],
									"id" : "obj-33",
									"fontname" : "Arial",
									"numinlets" : 1,
									"numoutlets" : 1,
									"fontsize" : 9.0,
									"outlettype" : [ "signal" ]
								}

							}
, 							{
								"box" : 								{
									"maxclass" : "newobj",
									"text" : "receive~ #1_b3son",
									"patching_rect" : [ 331.0, 62.0, 87.0, 17.0 ],
									"id" : "obj-34",
									"fontname" : "Arial",
									"numinlets" : 1,
									"numoutlets" : 1,
									"fontsize" : 9.0,
									"outlettype" : [ "signal" ]
								}

							}
, 							{
								"box" : 								{
									"maxclass" : "newobj",
									"text" : "receive~  #1_b1son",
									"patching_rect" : [ 217.0, 62.0, 89.0, 17.0 ],
									"id" : "obj-35",
									"fontname" : "Arial",
									"numinlets" : 1,
									"numoutlets" : 1,
									"fontsize" : 9.0,
									"outlettype" : [ "signal" ]
								}

							}
, 							{
								"box" : 								{
									"maxclass" : "message",
									"text" : "ramp 30",
									"patching_rect" : [ 22.0, 146.0, 48.0, 15.0 ],
									"id" : "obj-36",
									"fontname" : "Arial",
									"numinlets" : 2,
									"numoutlets" : 1,
									"fontsize" : 9.0,
									"outlettype" : [ "" ]
								}

							}
, 							{
								"box" : 								{
									"maxclass" : "newobj",
									"text" : "matrix~ 9 12 1.",
									"patching_rect" : [ 160.0, 190.0, 472.0, 17.0 ],
									"id" : "obj-37",
									"fontname" : "Arial",
									"numinlets" : 9,
									"numoutlets" : 13,
									"fontsize" : 9.0,
									"color" : [ 1.0, 0.890196, 0.090196, 1.0 ],
									"outlettype" : [ "signal", "signal", "signal", "signal", "signal", "signal", "signal", "signal", "signal", "signal", "signal", "signal", "list" ]
								}

							}
, 							{
								"box" : 								{
									"maxclass" : "inlet",
									"patching_rect" : [ 27.0, 42.0, 15.0, 15.0 ],
									"id" : "obj-38",
									"numinlets" : 0,
									"numoutlets" : 1,
									"outlettype" : [ "list" ],
									"comment" : ""
								}

							}
, 							{
								"box" : 								{
									"maxclass" : "outlet",
									"patching_rect" : [ 435.0, 81.0, 15.0, 15.0 ],
									"id" : "obj-39",
									"numinlets" : 1,
									"numoutlets" : 0,
									"comment" : ""
								}

							}
, 							{
								"box" : 								{
									"maxclass" : "outlet",
									"patching_rect" : [ 394.0, 81.0, 15.0, 15.0 ],
									"id" : "obj-40",
									"numinlets" : 1,
									"numoutlets" : 0,
									"comment" : ""
								}

							}
, 							{
								"box" : 								{
									"maxclass" : "outlet",
									"patching_rect" : [ 321.0, 81.0, 15.0, 15.0 ],
									"id" : "obj-41",
									"numinlets" : 1,
									"numoutlets" : 0,
									"comment" : ""
								}

							}
, 							{
								"box" : 								{
									"maxclass" : "outlet",
									"patching_rect" : [ 207.0, 81.0, 15.0, 15.0 ],
									"id" : "obj-42",
									"numinlets" : 1,
									"numoutlets" : 0,
									"comment" : ""
								}

							}
, 							{
								"box" : 								{
									"maxclass" : "outlet",
									"patching_rect" : [ 508.0, 81.0, 15.0, 15.0 ],
									"id" : "obj-43",
									"numinlets" : 1,
									"numoutlets" : 0,
									"comment" : ""
								}

							}
, 							{
								"box" : 								{
									"maxclass" : "outlet",
									"patching_rect" : [ 622.0, 81.0, 15.0, 15.0 ],
									"id" : "obj-44",
									"numinlets" : 1,
									"numoutlets" : 0,
									"comment" : ""
								}

							}
, 							{
								"box" : 								{
									"maxclass" : "outlet",
									"patching_rect" : [ 165.0, 81.0, 15.0, 15.0 ],
									"id" : "obj-45",
									"numinlets" : 1,
									"numoutlets" : 0,
									"comment" : ""
								}

							}
, 							{
								"box" : 								{
									"maxclass" : "outlet",
									"patching_rect" : [ 280.0, 81.0, 15.0, 15.0 ],
									"id" : "obj-46",
									"numinlets" : 1,
									"numoutlets" : 0,
									"comment" : ""
								}

							}
, 							{
								"box" : 								{
									"maxclass" : "outlet",
									"patching_rect" : [ 540.0, 237.0, 15.0, 15.0 ],
									"id" : "obj-47",
									"numinlets" : 1,
									"numoutlets" : 0,
									"comment" : ""
								}

							}
, 							{
								"box" : 								{
									"maxclass" : "outlet",
									"patching_rect" : [ 578.0, 237.0, 15.0, 15.0 ],
									"id" : "obj-48",
									"numinlets" : 1,
									"numoutlets" : 0,
									"comment" : ""
								}

							}
 ],
						"lines" : [ 							{
								"patchline" : 								{
									"source" : [ "obj-35", 0 ],
									"destination" : [ "obj-42", 0 ],
									"hidden" : 0,
									"midpoints" : [  ]
								}

							}
, 							{
								"patchline" : 								{
									"source" : [ "obj-35", 0 ],
									"destination" : [ "obj-21", 0 ],
									"hidden" : 0,
									"midpoints" : [  ]
								}

							}
, 							{
								"patchline" : 								{
									"source" : [ "obj-33", 0 ],
									"destination" : [ "obj-19", 0 ],
									"hidden" : 0,
									"midpoints" : [  ]
								}

							}
, 							{
								"patchline" : 								{
									"source" : [ "obj-33", 0 ],
									"destination" : [ "obj-46", 0 ],
									"hidden" : 0,
									"midpoints" : [  ]
								}

							}
, 							{
								"patchline" : 								{
									"source" : [ "obj-28", 0 ],
									"destination" : [ "obj-15", 0 ],
									"hidden" : 0,
									"midpoints" : [  ]
								}

							}
, 							{
								"patchline" : 								{
									"source" : [ "obj-28", 0 ],
									"destination" : [ "obj-43", 0 ],
									"hidden" : 0,
									"midpoints" : [  ]
								}

							}
, 							{
								"patchline" : 								{
									"source" : [ "obj-27", 0 ],
									"destination" : [ "obj-13", 0 ],
									"hidden" : 0,
									"midpoints" : [  ]
								}

							}
, 							{
								"patchline" : 								{
									"source" : [ "obj-27", 0 ],
									"destination" : [ "obj-44", 0 ],
									"hidden" : 0,
									"midpoints" : [  ]
								}

							}
, 							{
								"patchline" : 								{
									"source" : [ "obj-25", 0 ],
									"destination" : [ "obj-24", 0 ],
									"hidden" : 0,
									"midpoints" : [  ]
								}

							}
, 							{
								"patchline" : 								{
									"source" : [ "obj-25", 0 ],
									"destination" : [ "obj-7", 0 ],
									"hidden" : 0,
									"midpoints" : [  ]
								}

							}
, 							{
								"patchline" : 								{
									"source" : [ "obj-29", 0 ],
									"destination" : [ "obj-39", 0 ],
									"hidden" : 0,
									"midpoints" : [  ]
								}

							}
, 							{
								"patchline" : 								{
									"source" : [ "obj-29", 0 ],
									"destination" : [ "obj-9", 0 ],
									"hidden" : 0,
									"midpoints" : [  ]
								}

							}
, 							{
								"patchline" : 								{
									"source" : [ "obj-32", 0 ],
									"destination" : [ "obj-17", 0 ],
									"hidden" : 0,
									"midpoints" : [  ]
								}

							}
, 							{
								"patchline" : 								{
									"source" : [ "obj-32", 0 ],
									"destination" : [ "obj-40", 0 ],
									"hidden" : 0,
									"midpoints" : [  ]
								}

							}
, 							{
								"patchline" : 								{
									"source" : [ "obj-34", 0 ],
									"destination" : [ "obj-41", 0 ],
									"hidden" : 0,
									"midpoints" : [  ]
								}

							}
, 							{
								"patchline" : 								{
									"source" : [ "obj-34", 0 ],
									"destination" : [ "obj-11", 0 ],
									"hidden" : 0,
									"midpoints" : [  ]
								}

							}
, 							{
								"patchline" : 								{
									"source" : [ "obj-31", 0 ],
									"destination" : [ "obj-23", 0 ],
									"hidden" : 0,
									"midpoints" : [  ]
								}

							}
, 							{
								"patchline" : 								{
									"source" : [ "obj-31", 0 ],
									"destination" : [ "obj-45", 0 ],
									"hidden" : 0,
									"midpoints" : [  ]
								}

							}
, 							{
								"patchline" : 								{
									"source" : [ "obj-12", 0 ],
									"destination" : [ "obj-37", 8 ],
									"hidden" : 0,
									"midpoints" : [  ]
								}

							}
, 							{
								"patchline" : 								{
									"source" : [ "obj-13", 0 ],
									"destination" : [ "obj-12", 0 ],
									"hidden" : 0,
									"midpoints" : [  ]
								}

							}
, 							{
								"patchline" : 								{
									"source" : [ "obj-1", 0 ],
									"destination" : [ "obj-12", 0 ],
									"hidden" : 0,
									"midpoints" : [  ]
								}

							}
, 							{
								"patchline" : 								{
									"source" : [ "obj-37", 11 ],
									"destination" : [ "obj-48", 0 ],
									"hidden" : 0,
									"midpoints" : [  ]
								}

							}
, 							{
								"patchline" : 								{
									"source" : [ "obj-6", 0 ],
									"destination" : [ "obj-37", 7 ],
									"hidden" : 0,
									"midpoints" : [  ]
								}

							}
, 							{
								"patchline" : 								{
									"source" : [ "obj-2", 0 ],
									"destination" : [ "obj-6", 0 ],
									"hidden" : 0,
									"midpoints" : [  ]
								}

							}
, 							{
								"patchline" : 								{
									"source" : [ "obj-7", 0 ],
									"destination" : [ "obj-6", 0 ],
									"hidden" : 0,
									"midpoints" : [  ]
								}

							}
, 							{
								"patchline" : 								{
									"source" : [ "obj-37", 10 ],
									"destination" : [ "obj-47", 0 ],
									"hidden" : 0,
									"midpoints" : [  ]
								}

							}
, 							{
								"patchline" : 								{
									"source" : [ "obj-37", 9 ],
									"destination" : [ "obj-30", 9 ],
									"hidden" : 0,
									"midpoints" : [  ]
								}

							}
, 							{
								"patchline" : 								{
									"source" : [ "obj-14", 0 ],
									"destination" : [ "obj-37", 6 ],
									"hidden" : 0,
									"midpoints" : [  ]
								}

							}
, 							{
								"patchline" : 								{
									"source" : [ "obj-15", 0 ],
									"destination" : [ "obj-14", 0 ],
									"hidden" : 0,
									"midpoints" : [  ]
								}

							}
, 							{
								"patchline" : 								{
									"source" : [ "obj-3", 0 ],
									"destination" : [ "obj-14", 0 ],
									"hidden" : 0,
									"midpoints" : [  ]
								}

							}
, 							{
								"patchline" : 								{
									"source" : [ "obj-37", 8 ],
									"destination" : [ "obj-30", 8 ],
									"hidden" : 0,
									"midpoints" : [  ]
								}

							}
, 							{
								"patchline" : 								{
									"source" : [ "obj-8", 0 ],
									"destination" : [ "obj-37", 5 ],
									"hidden" : 0,
									"midpoints" : [  ]
								}

							}
, 							{
								"patchline" : 								{
									"source" : [ "obj-4", 0 ],
									"destination" : [ "obj-8", 0 ],
									"hidden" : 0,
									"midpoints" : [  ]
								}

							}
, 							{
								"patchline" : 								{
									"source" : [ "obj-9", 0 ],
									"destination" : [ "obj-8", 0 ],
									"hidden" : 0,
									"midpoints" : [  ]
								}

							}
, 							{
								"patchline" : 								{
									"source" : [ "obj-37", 7 ],
									"destination" : [ "obj-30", 7 ],
									"hidden" : 0,
									"midpoints" : [  ]
								}

							}
, 							{
								"patchline" : 								{
									"source" : [ "obj-37", 6 ],
									"destination" : [ "obj-30", 6 ],
									"hidden" : 0,
									"midpoints" : [  ]
								}

							}
, 							{
								"patchline" : 								{
									"source" : [ "obj-16", 0 ],
									"destination" : [ "obj-37", 4 ],
									"hidden" : 0,
									"midpoints" : [  ]
								}

							}
, 							{
								"patchline" : 								{
									"source" : [ "obj-17", 0 ],
									"destination" : [ "obj-16", 0 ],
									"hidden" : 0,
									"midpoints" : [  ]
								}

							}
, 							{
								"patchline" : 								{
									"source" : [ "obj-4", 0 ],
									"destination" : [ "obj-16", 0 ],
									"hidden" : 0,
									"midpoints" : [  ]
								}

							}
, 							{
								"patchline" : 								{
									"source" : [ "obj-37", 5 ],
									"destination" : [ "obj-30", 5 ],
									"hidden" : 0,
									"midpoints" : [  ]
								}

							}
, 							{
								"patchline" : 								{
									"source" : [ "obj-10", 0 ],
									"destination" : [ "obj-37", 3 ],
									"hidden" : 0,
									"midpoints" : [  ]
								}

							}
, 							{
								"patchline" : 								{
									"source" : [ "obj-11", 0 ],
									"destination" : [ "obj-10", 0 ],
									"hidden" : 0,
									"midpoints" : [  ]
								}

							}
, 							{
								"patchline" : 								{
									"source" : [ "obj-4", 0 ],
									"destination" : [ "obj-10", 0 ],
									"hidden" : 0,
									"midpoints" : [  ]
								}

							}
, 							{
								"patchline" : 								{
									"source" : [ "obj-37", 4 ],
									"destination" : [ "obj-30", 4 ],
									"hidden" : 0,
									"midpoints" : [  ]
								}

							}
, 							{
								"patchline" : 								{
									"source" : [ "obj-37", 3 ],
									"destination" : [ "obj-30", 3 ],
									"hidden" : 0,
									"midpoints" : [  ]
								}

							}
, 							{
								"patchline" : 								{
									"source" : [ "obj-18", 0 ],
									"destination" : [ "obj-37", 2 ],
									"hidden" : 0,
									"midpoints" : [  ]
								}

							}
, 							{
								"patchline" : 								{
									"source" : [ "obj-19", 0 ],
									"destination" : [ "obj-18", 0 ],
									"hidden" : 0,
									"midpoints" : [  ]
								}

							}
, 							{
								"patchline" : 								{
									"source" : [ "obj-4", 0 ],
									"destination" : [ "obj-18", 0 ],
									"hidden" : 0,
									"midpoints" : [  ]
								}

							}
, 							{
								"patchline" : 								{
									"source" : [ "obj-37", 2 ],
									"destination" : [ "obj-30", 2 ],
									"hidden" : 0,
									"midpoints" : [  ]
								}

							}
, 							{
								"patchline" : 								{
									"source" : [ "obj-20", 0 ],
									"destination" : [ "obj-37", 1 ],
									"hidden" : 0,
									"midpoints" : [  ]
								}

							}
, 							{
								"patchline" : 								{
									"source" : [ "obj-21", 0 ],
									"destination" : [ "obj-20", 0 ],
									"hidden" : 0,
									"midpoints" : [  ]
								}

							}
, 							{
								"patchline" : 								{
									"source" : [ "obj-4", 0 ],
									"destination" : [ "obj-20", 0 ],
									"hidden" : 0,
									"midpoints" : [  ]
								}

							}
, 							{
								"patchline" : 								{
									"source" : [ "obj-37", 1 ],
									"destination" : [ "obj-30", 1 ],
									"hidden" : 0,
									"midpoints" : [  ]
								}

							}
, 							{
								"patchline" : 								{
									"source" : [ "obj-37", 0 ],
									"destination" : [ "obj-30", 0 ],
									"hidden" : 0,
									"midpoints" : [  ]
								}

							}
, 							{
								"patchline" : 								{
									"source" : [ "obj-22", 0 ],
									"destination" : [ "obj-37", 0 ],
									"hidden" : 0,
									"midpoints" : [  ]
								}

							}
, 							{
								"patchline" : 								{
									"source" : [ "obj-36", 0 ],
									"destination" : [ "obj-37", 0 ],
									"hidden" : 0,
									"midpoints" : [ 31.5, 182.0, 169.5, 182.0 ]
								}

							}
, 							{
								"patchline" : 								{
									"source" : [ "obj-38", 0 ],
									"destination" : [ "obj-37", 0 ],
									"hidden" : 0,
									"midpoints" : [  ]
								}

							}
, 							{
								"patchline" : 								{
									"source" : [ "obj-5", 0 ],
									"destination" : [ "obj-22", 0 ],
									"hidden" : 0,
									"midpoints" : [  ]
								}

							}
, 							{
								"patchline" : 								{
									"source" : [ "obj-23", 0 ],
									"destination" : [ "obj-22", 0 ],
									"hidden" : 0,
									"midpoints" : [  ]
								}

							}
, 							{
								"patchline" : 								{
									"source" : [ "obj-26", 0 ],
									"destination" : [ "obj-36", 0 ],
									"hidden" : 0,
									"midpoints" : [  ]
								}

							}
 ]
					}
,
					"saved_object_attributes" : 					{
						"fontname" : "Arial",
						"default_fontface" : 0,
						"globalpatchername" : "",
						"default_fontname" : "Arial",
						"fontface" : 0,
						"fontsize" : 12.0,
						"default_fontsize" : 12.0
					}

				}

			}
, 			{
				"box" : 				{
					"maxclass" : "meter~",
					"presentation_rect" : [ 149.0, 42.0, 12.0, 58.0 ],
					"patching_rect" : [ 151.0, 40.0, 16.0, 58.0 ],
					"presentation" : 1,
					"id" : "obj-52",
					"coldcolor" : [ 0.0, 0.658824, 0.0, 1.0 ],
					"numinlets" : 1,
					"interval" : 100,
					"warmcolor" : [ 0.85098, 0.85098, 0.0, 1.0 ],
					"numoutlets" : 1,
					"tepidcolor" : [ 0.6, 0.729412, 0.0, 1.0 ],
					"bgcolor" : [ 0.239216, 0.537255, 0.403922, 1.0 ],
					"outlettype" : [ "float" ]
				}

			}
, 			{
				"box" : 				{
					"maxclass" : "meter~",
					"presentation_rect" : [ 207.0, 23.0, 13.0, 58.0 ],
					"patching_rect" : [ 206.0, 23.0, 13.0, 61.0 ],
					"presentation" : 1,
					"id" : "obj-53",
					"coldcolor" : [ 0.0, 0.658824, 0.0, 1.0 ],
					"numinlets" : 1,
					"warmcolor" : [ 0.85098, 0.85098, 0.0, 1.0 ],
					"numoutlets" : 1,
					"tepidcolor" : [ 0.6, 0.729412, 0.0, 1.0 ],
					"bgcolor" : [ 0.658824, 0.117647, 0.117647, 1.0 ],
					"outlettype" : [ "float" ]
				}

			}
, 			{
				"box" : 				{
					"maxclass" : "meter~",
					"presentation_rect" : [ 220.0, 23.0, 13.0, 58.0 ],
					"patching_rect" : [ 221.0, 23.0, 13.0, 61.0 ],
					"presentation" : 1,
					"id" : "obj-54",
					"coldcolor" : [ 0.0, 0.658824, 0.0, 1.0 ],
					"numinlets" : 1,
					"warmcolor" : [ 0.85098, 0.85098, 0.0, 1.0 ],
					"numoutlets" : 1,
					"tepidcolor" : [ 0.6, 0.729412, 0.0, 1.0 ],
					"bgcolor" : [ 0.639216, 0.2, 0.2, 1.0 ],
					"outlettype" : [ "float" ]
				}

			}
, 			{
				"box" : 				{
					"maxclass" : "meter~",
					"presentation_rect" : [ 109.0, 42.0, 17.0, 59.0 ],
					"patching_rect" : [ 111.0, 40.0, 17.0, 59.0 ],
					"presentation" : 1,
					"id" : "obj-55",
					"coldcolor" : [ 0.0, 0.658824, 0.0, 1.0 ],
					"numinlets" : 1,
					"interval" : 100,
					"warmcolor" : [ 0.85098, 0.85098, 0.0, 1.0 ],
					"numoutlets" : 1,
					"tepidcolor" : [ 0.6, 0.729412, 0.0, 1.0 ],
					"bgcolor" : [ 0.745098, 0.745098, 0.745098, 1.0 ],
					"outlettype" : [ "float" ]
				}

			}
, 			{
				"box" : 				{
					"maxclass" : "meter~",
					"presentation_rect" : [ 6.0, 27.0, 18.0, 58.0 ],
					"patching_rect" : [ 7.0, 25.0, 18.0, 58.0 ],
					"presentation" : 1,
					"id" : "obj-56",
					"coldcolor" : [ 0.0, 0.658824, 0.0, 1.0 ],
					"numinlets" : 1,
					"interval" : 100,
					"warmcolor" : [ 0.85098, 0.85098, 0.0, 1.0 ],
					"numoutlets" : 1,
					"tepidcolor" : [ 0.6, 0.729412, 0.0, 1.0 ],
					"bgcolor" : [ 0.937255, 0.937255, 0.937255, 1.0 ],
					"outlettype" : [ "float" ]
				}

			}
, 			{
				"box" : 				{
					"maxclass" : "comment",
					"text" : "continu",
					"presentation_rect" : [ 1.0, 100.0, 41.0, 17.0 ],
					"patching_rect" : [ 1.0, 100.0, 41.0, 17.0 ],
					"presentation" : 1,
					"id" : "obj-57",
					"fontname" : "Arial",
					"numinlets" : 1,
					"numoutlets" : 0,
					"fontsize" : 9.0
				}

			}
, 			{
				"box" : 				{
					"maxclass" : "comment",
					"text" : "routing",
					"presentation_rect" : [ 170.0, 40.0, 41.0, 17.0 ],
					"patching_rect" : [ 166.0, 40.0, 41.0, 17.0 ],
					"presentation" : 1,
					"id" : "obj-58",
					"fontname" : "Arial",
					"numinlets" : 1,
					"numoutlets" : 0,
					"fontsize" : 9.0
				}

			}
, 			{
				"box" : 				{
					"maxclass" : "comment",
					"text" : "rec 1/0",
					"presentation_rect" : [ 165.0, 52.0, 41.0, 17.0 ],
					"patching_rect" : [ 165.0, 52.0, 41.0, 17.0 ],
					"presentation" : 1,
					"id" : "obj-59",
					"fontname" : "Arial",
					"numinlets" : 1,
					"numoutlets" : 0,
					"fontsize" : 9.0
				}

			}
, 			{
				"box" : 				{
					"maxclass" : "comment",
					"text" : "ICI",
					"patching_rect" : [ 327.0, 21.0, 26.0, 17.0 ],
					"id" : "obj-60",
					"fontname" : "Arial",
					"numinlets" : 1,
					"numoutlets" : 0,
					"fontsize" : 9.0
				}

			}
, 			{
				"box" : 				{
					"maxclass" : "comment",
					"text" : "MIDI",
					"presentation_rect" : [ 89.0, 10.0, 27.0, 17.0 ],
					"patching_rect" : [ 86.0, 10.0, 27.0, 17.0 ],
					"presentation" : 1,
					"id" : "obj-61",
					"fontname" : "Arial",
					"numinlets" : 1,
					"numoutlets" : 0,
					"fontsize" : 9.0
				}

			}
, 			{
				"box" : 				{
					"maxclass" : "comment",
					"text" : "monitor",
					"linecount" : 2,
					"presentation_rect" : [ 156.0, 7.0, 49.0, 19.0 ],
					"patching_rect" : [ 156.0, 8.0, 45.0, 32.0 ],
					"presentation" : 1,
					"id" : "obj-62",
					"fontname" : "Arial Black",
					"numinlets" : 1,
					"numoutlets" : 0,
					"fontsize" : 9.0
				}

			}
, 			{
				"box" : 				{
					"maxclass" : "panel",
					"presentation_rect" : [ 1.0, 8.0, 235.0, 105.0 ],
					"patching_rect" : [ 1.0, 8.0, 235.0, 105.0 ],
					"presentation" : 1,
					"id" : "obj-63",
					"rounded" : 0,
					"border" : 1,
					"numinlets" : 1,
					"numoutlets" : 0,
					"bgcolor" : [ 0.007843, 0.776471, 0.901961, 1.0 ]
				}

			}
 ],
		"lines" : [ 			{
				"patchline" : 				{
					"source" : [ "obj-43", 1 ],
					"destination" : [ "obj-42", 0 ],
					"hidden" : 1,
					"midpoints" : [  ]
				}

			}
, 			{
				"patchline" : 				{
					"source" : [ "obj-43", 0 ],
					"destination" : [ "obj-44", 0 ],
					"hidden" : 1,
					"midpoints" : [  ]
				}

			}
, 			{
				"patchline" : 				{
					"source" : [ "obj-46", 0 ],
					"destination" : [ "obj-43", 0 ],
					"hidden" : 1,
					"midpoints" : [  ]
				}

			}
, 			{
				"patchline" : 				{
					"source" : [ "obj-45", 0 ],
					"destination" : [ "obj-47", 0 ],
					"hidden" : 1,
					"midpoints" : [  ]
				}

			}
, 			{
				"patchline" : 				{
					"source" : [ "obj-44", 0 ],
					"destination" : [ "obj-45", 0 ],
					"hidden" : 1,
					"midpoints" : [  ]
				}

			}
, 			{
				"patchline" : 				{
					"source" : [ "obj-42", 0 ],
					"destination" : [ "obj-45", 0 ],
					"hidden" : 1,
					"midpoints" : [  ]
				}

			}
, 			{
				"patchline" : 				{
					"source" : [ "obj-51", 9 ],
					"destination" : [ "obj-41", 1 ],
					"hidden" : 1,
					"midpoints" : [  ]
				}

			}
, 			{
				"patchline" : 				{
					"source" : [ "obj-51", 9 ],
					"destination" : [ "obj-54", 0 ],
					"hidden" : 1,
					"midpoints" : [  ]
				}

			}
, 			{
				"patchline" : 				{
					"source" : [ "obj-51", 7 ],
					"destination" : [ "obj-53", 0 ],
					"hidden" : 1,
					"midpoints" : [  ]
				}

			}
, 			{
				"patchline" : 				{
					"source" : [ "obj-41", 0 ],
					"destination" : [ "obj-40", 0 ],
					"hidden" : 0,
					"midpoints" : [  ]
				}

			}
, 			{
				"patchline" : 				{
					"source" : [ "obj-38", 0 ],
					"destination" : [ "obj-41", 0 ],
					"hidden" : 1,
					"midpoints" : [  ]
				}

			}
, 			{
				"patchline" : 				{
					"source" : [ "obj-39", 0 ],
					"destination" : [ "obj-41", 0 ],
					"hidden" : 1,
					"midpoints" : [  ]
				}

			}
, 			{
				"patchline" : 				{
					"source" : [ "obj-51", 7 ],
					"destination" : [ "obj-41", 0 ],
					"hidden" : 1,
					"midpoints" : [  ]
				}

			}
, 			{
				"patchline" : 				{
					"source" : [ "obj-6", 0 ],
					"destination" : [ "obj-3", 0 ],
					"hidden" : 1,
					"midpoints" : [  ]
				}

			}
, 			{
				"patchline" : 				{
					"source" : [ "obj-51", 10 ],
					"destination" : [ "obj-52", 0 ],
					"hidden" : 1,
					"midpoints" : [  ]
				}

			}
, 			{
				"patchline" : 				{
					"source" : [ "obj-3", 0 ],
					"destination" : [ "obj-13", 0 ],
					"hidden" : 1,
					"midpoints" : [  ]
				}

			}
, 			{
				"patchline" : 				{
					"source" : [ "obj-11", 0 ],
					"destination" : [ "obj-13", 0 ],
					"hidden" : 1,
					"midpoints" : [  ]
				}

			}
, 			{
				"patchline" : 				{
					"source" : [ "obj-13", 0 ],
					"destination" : [ "obj-16", 0 ],
					"hidden" : 1,
					"midpoints" : [  ]
				}

			}
, 			{
				"patchline" : 				{
					"source" : [ "obj-51", 8 ],
					"destination" : [ "obj-37", 0 ],
					"hidden" : 1,
					"midpoints" : [  ]
				}

			}
, 			{
				"patchline" : 				{
					"source" : [ "obj-31", 6 ],
					"destination" : [ "obj-24", 0 ],
					"hidden" : 1,
					"midpoints" : [  ]
				}

			}
, 			{
				"patchline" : 				{
					"source" : [ "obj-1", 0 ],
					"destination" : [ "obj-12", 0 ],
					"hidden" : 1,
					"midpoints" : [  ]
				}

			}
, 			{
				"patchline" : 				{
					"source" : [ "obj-11", 0 ],
					"destination" : [ "obj-12", 0 ],
					"hidden" : 1,
					"midpoints" : [  ]
				}

			}
, 			{
				"patchline" : 				{
					"source" : [ "obj-12", 0 ],
					"destination" : [ "obj-17", 0 ],
					"hidden" : 1,
					"midpoints" : [  ]
				}

			}
, 			{
				"patchline" : 				{
					"source" : [ "obj-7", 0 ],
					"destination" : [ "obj-1", 0 ],
					"hidden" : 1,
					"midpoints" : [  ]
				}

			}
, 			{
				"patchline" : 				{
					"source" : [ "obj-51", 6 ],
					"destination" : [ "obj-55", 0 ],
					"hidden" : 1,
					"midpoints" : [  ]
				}

			}
, 			{
				"patchline" : 				{
					"source" : [ "obj-8", 0 ],
					"destination" : [ "obj-2", 0 ],
					"hidden" : 1,
					"midpoints" : [  ]
				}

			}
, 			{
				"patchline" : 				{
					"source" : [ "obj-2", 0 ],
					"destination" : [ "obj-14", 0 ],
					"hidden" : 1,
					"midpoints" : [  ]
				}

			}
, 			{
				"patchline" : 				{
					"source" : [ "obj-11", 0 ],
					"destination" : [ "obj-14", 0 ],
					"hidden" : 1,
					"midpoints" : [  ]
				}

			}
, 			{
				"patchline" : 				{
					"source" : [ "obj-14", 0 ],
					"destination" : [ "obj-18", 0 ],
					"hidden" : 1,
					"midpoints" : [  ]
				}

			}
, 			{
				"patchline" : 				{
					"source" : [ "obj-31", 5 ],
					"destination" : [ "obj-25", 0 ],
					"hidden" : 1,
					"midpoints" : [  ]
				}

			}
, 			{
				"patchline" : 				{
					"source" : [ "obj-51", 5 ],
					"destination" : [ "obj-32", 0 ],
					"hidden" : 1,
					"midpoints" : [  ]
				}

			}
, 			{
				"patchline" : 				{
					"source" : [ "obj-31", 4 ],
					"destination" : [ "obj-26", 0 ],
					"hidden" : 1,
					"midpoints" : [  ]
				}

			}
, 			{
				"patchline" : 				{
					"source" : [ "obj-51", 4 ],
					"destination" : [ "obj-33", 0 ],
					"hidden" : 1,
					"midpoints" : [  ]
				}

			}
, 			{
				"patchline" : 				{
					"source" : [ "obj-22", 0 ],
					"destination" : [ "obj-23", 0 ],
					"hidden" : 1,
					"midpoints" : [  ]
				}

			}
, 			{
				"patchline" : 				{
					"source" : [ "obj-51", 3 ],
					"destination" : [ "obj-34", 0 ],
					"hidden" : 1,
					"midpoints" : [  ]
				}

			}
, 			{
				"patchline" : 				{
					"source" : [ "obj-31", 3 ],
					"destination" : [ "obj-27", 0 ],
					"hidden" : 1,
					"midpoints" : [  ]
				}

			}
, 			{
				"patchline" : 				{
					"source" : [ "obj-51", 2 ],
					"destination" : [ "obj-35", 0 ],
					"hidden" : 1,
					"midpoints" : [  ]
				}

			}
, 			{
				"patchline" : 				{
					"source" : [ "obj-31", 2 ],
					"destination" : [ "obj-28", 0 ],
					"hidden" : 1,
					"midpoints" : [  ]
				}

			}
, 			{
				"patchline" : 				{
					"source" : [ "obj-15", 0 ],
					"destination" : [ "obj-19", 0 ],
					"hidden" : 1,
					"midpoints" : [  ]
				}

			}
, 			{
				"patchline" : 				{
					"source" : [ "obj-4", 0 ],
					"destination" : [ "obj-15", 0 ],
					"hidden" : 1,
					"midpoints" : [  ]
				}

			}
, 			{
				"patchline" : 				{
					"source" : [ "obj-11", 0 ],
					"destination" : [ "obj-15", 0 ],
					"hidden" : 1,
					"midpoints" : [  ]
				}

			}
, 			{
				"patchline" : 				{
					"source" : [ "obj-9", 0 ],
					"destination" : [ "obj-4", 0 ],
					"hidden" : 1,
					"midpoints" : [  ]
				}

			}
, 			{
				"patchline" : 				{
					"source" : [ "obj-51", 1 ],
					"destination" : [ "obj-36", 0 ],
					"hidden" : 1,
					"midpoints" : [  ]
				}

			}
, 			{
				"patchline" : 				{
					"source" : [ "obj-31", 1 ],
					"destination" : [ "obj-29", 0 ],
					"hidden" : 1,
					"midpoints" : [  ]
				}

			}
, 			{
				"patchline" : 				{
					"source" : [ "obj-47", 0 ],
					"destination" : [ "obj-51", 0 ],
					"hidden" : 1,
					"midpoints" : [  ]
				}

			}
, 			{
				"patchline" : 				{
					"source" : [ "obj-31", 0 ],
					"destination" : [ "obj-30", 0 ],
					"hidden" : 1,
					"midpoints" : [  ]
				}

			}
, 			{
				"patchline" : 				{
					"source" : [ "obj-51", 0 ],
					"destination" : [ "obj-56", 0 ],
					"hidden" : 1,
					"midpoints" : [  ]
				}

			}
, 			{
				"patchline" : 				{
					"source" : [ "obj-10", 0 ],
					"destination" : [ "obj-5", 0 ],
					"hidden" : 1,
					"midpoints" : [  ]
				}

			}
, 			{
				"patchline" : 				{
					"source" : [ "obj-23", 0 ],
					"destination" : [ "obj-31", 0 ],
					"hidden" : 1,
					"midpoints" : [  ]
				}

			}
, 			{
				"patchline" : 				{
					"source" : [ "obj-5", 0 ],
					"destination" : [ "obj-21", 0 ],
					"hidden" : 1,
					"midpoints" : [  ]
				}

			}
, 			{
				"patchline" : 				{
					"source" : [ "obj-11", 0 ],
					"destination" : [ "obj-21", 0 ],
					"hidden" : 1,
					"midpoints" : [  ]
				}

			}
, 			{
				"patchline" : 				{
					"source" : [ "obj-21", 0 ],
					"destination" : [ "obj-20", 0 ],
					"hidden" : 1,
					"midpoints" : [  ]
				}

			}
 ]
	}

}
