{
	"patcher" : 	{
		"fileversion" : 1,
		"rect" : [ 631.0, 156.0, 592.0, 718.0 ],
		"bglocked" : 0,
		"defrect" : [ 631.0, 156.0, 592.0, 718.0 ],
		"openrect" : [ 0.0, 0.0, 0.0, 0.0 ],
		"openinpresentation" : 0,
		"default_fontsize" : 12.0,
		"default_fontface" : 0,
		"default_fontname" : "Arial",
		"gridonopen" : 0,
		"gridsize" : [ 15.0, 15.0 ],
		"gridsnaponopen" : 0,
		"toolbarvisible" : 1,
		"boxanimatetime" : 200,
		"imprint" : 0,
		"metadata" : [  ],
		"boxes" : [ 			{
				"box" : 				{
					"maxclass" : "newobj",
					"text" : "prepend set",
					"outlettype" : [ "" ],
					"id" : "obj-65",
					"fontname" : "Arial",
					"patching_rect" : [ 368.0, 209.0, 74.0, 20.0 ],
					"numinlets" : 1,
					"fontsize" : 12.0,
					"numoutlets" : 1
				}

			}
, 			{
				"box" : 				{
					"maxclass" : "newobj",
					"text" : "value #1_buffer_courant #2_buffer",
					"outlettype" : [ "" ],
					"id" : "obj-63",
					"fontname" : "Arial",
					"patching_rect" : [ 438.0, 247.0, 148.0, 17.0 ],
					"numinlets" : 1,
					"fontsize" : 9.0,
					"numoutlets" : 1
				}

			}
, 			{
				"box" : 				{
					"maxclass" : "newobj",
					"text" : "sprintf  #2_buf%ld",
					"outlettype" : [ "" ],
					"id" : "obj-1",
					"fontname" : "Arial",
					"patching_rect" : [ 437.0, 185.0, 83.0, 17.0 ],
					"numinlets" : 1,
					"fontsize" : 9.0,
					"numoutlets" : 1
				}

			}
, 			{
				"box" : 				{
					"maxclass" : "message",
					"text" : "#2_buffer",
					"outlettype" : [ "" ],
					"id" : "obj-2",
					"fontname" : "Arial",
					"patching_rect" : [ 368.0, 185.0, 49.0, 15.0 ],
					"numinlets" : 2,
					"fontsize" : 9.0,
					"numoutlets" : 1
				}

			}
, 			{
				"box" : 				{
					"maxclass" : "newobj",
					"text" : "sel 0",
					"outlettype" : [ "bang", "" ],
					"id" : "obj-3",
					"fontname" : "Arial",
					"patching_rect" : [ 368.0, 164.0, 88.0, 17.0 ],
					"numinlets" : 2,
					"fontsize" : 9.0,
					"numoutlets" : 2
				}

			}
, 			{
				"box" : 				{
					"maxclass" : "newobj",
					"text" : "r #1_registre_courant",
					"outlettype" : [ "" ],
					"id" : "obj-4",
					"fontname" : "Arial",
					"patching_rect" : [ 368.0, 143.0, 114.0, 17.0 ],
					"numinlets" : 0,
					"fontsize" : 9.0,
					"numoutlets" : 1
				}

			}
, 			{
				"box" : 				{
					"maxclass" : "newobj",
					"text" : "r #1_crossfade",
					"outlettype" : [ "" ],
					"id" : "obj-5",
					"fontname" : "Arial",
					"patching_rect" : [ 347.0, 291.0, 81.0, 17.0 ],
					"numinlets" : 0,
					"fontsize" : 9.0,
					"numoutlets" : 1
				}

			}
, 			{
				"box" : 				{
					"maxclass" : "newobj",
					"text" : "p",
					"outlettype" : [ "signal", "float" ],
					"id" : "obj-6",
					"fontname" : "Arial",
					"patching_rect" : [ 243.0, 184.0, 60.0, 17.0 ],
					"numinlets" : 1,
					"fontsize" : 9.0,
					"numoutlets" : 2,
					"patcher" : 					{
						"fileversion" : 1,
						"rect" : [ 24.0, 74.0, 316.0, 281.0 ],
						"bglocked" : 0,
						"defrect" : [ 24.0, 74.0, 316.0, 281.0 ],
						"openrect" : [ 0.0, 0.0, 0.0, 0.0 ],
						"openinpresentation" : 0,
						"default_fontsize" : 12.0,
						"default_fontface" : 0,
						"default_fontname" : "Arial",
						"gridonopen" : 0,
						"gridsize" : [ 15.0, 15.0 ],
						"gridsnaponopen" : 0,
						"toolbarvisible" : 1,
						"boxanimatetime" : 200,
						"imprint" : 0,
						"metadata" : [  ],
						"boxes" : [ 							{
								"box" : 								{
									"maxclass" : "newobj",
									"text" : "1.",
									"outlettype" : [ "float" ],
									"id" : "obj-1",
									"fontname" : "Arial",
									"patching_rect" : [ 24.0, 114.0, 36.0, 17.0 ],
									"numinlets" : 2,
									"fontsize" : 9.0,
									"numoutlets" : 1
								}

							}
, 							{
								"box" : 								{
									"maxclass" : "newobj",
									"text" : "r #1_OMaxSetTempo",
									"outlettype" : [ "" ],
									"id" : "obj-2",
									"fontname" : "Arial",
									"patching_rect" : [ 188.0, 96.0, 106.0, 17.0 ],
									"numinlets" : 0,
									"fontsize" : 9.0,
									"numoutlets" : 1
								}

							}
, 							{
								"box" : 								{
									"maxclass" : "outlet",
									"id" : "obj-3",
									"patching_rect" : [ 76.0, 155.0, 15.0, 15.0 ],
									"numinlets" : 1,
									"numoutlets" : 0,
									"comment" : ""
								}

							}
, 							{
								"box" : 								{
									"maxclass" : "newobj",
									"text" : "sig~",
									"outlettype" : [ "signal" ],
									"id" : "obj-4",
									"fontname" : "Arial",
									"patching_rect" : [ 24.0, 155.0, 29.0, 17.0 ],
									"numinlets" : 1,
									"fontsize" : 9.0,
									"numoutlets" : 1
								}

							}
, 							{
								"box" : 								{
									"maxclass" : "newobj",
									"text" : "t b f b",
									"outlettype" : [ "bang", "float", "bang" ],
									"id" : "obj-5",
									"fontname" : "Arial",
									"patching_rect" : [ 24.0, 53.0, 115.0, 17.0 ],
									"numinlets" : 1,
									"fontsize" : 9.0,
									"numoutlets" : 3
								}

							}
, 							{
								"box" : 								{
									"maxclass" : "message",
									"text" : "0",
									"outlettype" : [ "" ],
									"id" : "obj-6",
									"fontname" : "Arial",
									"patching_rect" : [ 128.0, 95.0, 16.0, 15.0 ],
									"numinlets" : 2,
									"fontsize" : 9.0,
									"numoutlets" : 1
								}

							}
, 							{
								"box" : 								{
									"maxclass" : "newobj",
									"text" : "del 40000",
									"outlettype" : [ "bang" ],
									"id" : "obj-7",
									"fontname" : "Arial",
									"patching_rect" : [ 128.0, 73.0, 54.0, 17.0 ],
									"numinlets" : 2,
									"fontsize" : 9.0,
									"numoutlets" : 1
								}

							}
, 							{
								"box" : 								{
									"maxclass" : "inlet",
									"outlettype" : [ "" ],
									"id" : "obj-8",
									"patching_rect" : [ 24.0, 28.0, 15.0, 15.0 ],
									"numinlets" : 0,
									"numoutlets" : 1,
									"comment" : ""
								}

							}
, 							{
								"box" : 								{
									"maxclass" : "outlet",
									"id" : "obj-9",
									"patching_rect" : [ 24.0, 179.0, 15.0, 15.0 ],
									"numinlets" : 1,
									"numoutlets" : 0,
									"comment" : ""
								}

							}
 ],
						"lines" : [ 							{
								"patchline" : 								{
									"source" : [ "obj-7", 0 ],
									"destination" : [ "obj-6", 0 ],
									"hidden" : 0,
									"midpoints" : [  ]
								}

							}
, 							{
								"patchline" : 								{
									"source" : [ "obj-5", 2 ],
									"destination" : [ "obj-7", 0 ],
									"hidden" : 0,
									"midpoints" : [  ]
								}

							}
, 							{
								"patchline" : 								{
									"source" : [ "obj-5", 1 ],
									"destination" : [ "obj-3", 0 ],
									"hidden" : 0,
									"midpoints" : [  ]
								}

							}
, 							{
								"patchline" : 								{
									"source" : [ "obj-2", 0 ],
									"destination" : [ "obj-1", 1 ],
									"hidden" : 0,
									"midpoints" : [  ]
								}

							}
, 							{
								"patchline" : 								{
									"source" : [ "obj-4", 0 ],
									"destination" : [ "obj-9", 0 ],
									"hidden" : 0,
									"midpoints" : [  ]
								}

							}
, 							{
								"patchline" : 								{
									"source" : [ "obj-6", 0 ],
									"destination" : [ "obj-4", 0 ],
									"hidden" : 0,
									"midpoints" : [ 137.5, 143.0, 33.5, 143.0 ]
								}

							}
, 							{
								"patchline" : 								{
									"source" : [ "obj-1", 0 ],
									"destination" : [ "obj-4", 0 ],
									"hidden" : 0,
									"midpoints" : [  ]
								}

							}
, 							{
								"patchline" : 								{
									"source" : [ "obj-5", 0 ],
									"destination" : [ "obj-1", 0 ],
									"hidden" : 0,
									"midpoints" : [  ]
								}

							}
, 							{
								"patchline" : 								{
									"source" : [ "obj-8", 0 ],
									"destination" : [ "obj-5", 0 ],
									"hidden" : 0,
									"midpoints" : [  ]
								}

							}
 ]
					}
,
					"saved_object_attributes" : 					{
						"default_fontname" : "Arial",
						"default_fontsize" : 12.0,
						"fontname" : "Arial",
						"globalpatchername" : "",
						"fontface" : 0,
						"fontsize" : 12.0,
						"default_fontface" : 0
					}

				}

			}
, 			{
				"box" : 				{
					"maxclass" : "newobj",
					"text" : "p",
					"outlettype" : [ "signal", "float" ],
					"id" : "obj-7",
					"fontname" : "Arial",
					"patching_rect" : [ 129.0, 186.0, 60.0, 17.0 ],
					"numinlets" : 1,
					"fontsize" : 9.0,
					"numoutlets" : 2,
					"patcher" : 					{
						"fileversion" : 1,
						"rect" : [ 24.0, 74.0, 316.0, 281.0 ],
						"bglocked" : 0,
						"defrect" : [ 24.0, 74.0, 316.0, 281.0 ],
						"openrect" : [ 0.0, 0.0, 0.0, 0.0 ],
						"openinpresentation" : 0,
						"default_fontsize" : 12.0,
						"default_fontface" : 0,
						"default_fontname" : "Arial",
						"gridonopen" : 0,
						"gridsize" : [ 15.0, 15.0 ],
						"gridsnaponopen" : 0,
						"toolbarvisible" : 1,
						"boxanimatetime" : 200,
						"imprint" : 0,
						"metadata" : [  ],
						"boxes" : [ 							{
								"box" : 								{
									"maxclass" : "newobj",
									"text" : "1.",
									"outlettype" : [ "float" ],
									"id" : "obj-1",
									"fontname" : "Arial",
									"patching_rect" : [ 17.0, 107.0, 36.0, 17.0 ],
									"numinlets" : 2,
									"fontsize" : 9.0,
									"numoutlets" : 1
								}

							}
, 							{
								"box" : 								{
									"maxclass" : "newobj",
									"text" : "r #1_OMaxSetTempo",
									"outlettype" : [ "" ],
									"id" : "obj-2",
									"fontname" : "Arial",
									"patching_rect" : [ 181.0, 89.0, 106.0, 17.0 ],
									"numinlets" : 0,
									"fontsize" : 9.0,
									"numoutlets" : 1
								}

							}
, 							{
								"box" : 								{
									"maxclass" : "outlet",
									"id" : "obj-3",
									"patching_rect" : [ 69.0, 148.0, 15.0, 15.0 ],
									"numinlets" : 1,
									"numoutlets" : 0,
									"comment" : ""
								}

							}
, 							{
								"box" : 								{
									"maxclass" : "newobj",
									"text" : "sig~",
									"outlettype" : [ "signal" ],
									"id" : "obj-4",
									"fontname" : "Arial",
									"patching_rect" : [ 17.0, 148.0, 29.0, 17.0 ],
									"numinlets" : 1,
									"fontsize" : 9.0,
									"numoutlets" : 1
								}

							}
, 							{
								"box" : 								{
									"maxclass" : "newobj",
									"text" : "t b f b",
									"outlettype" : [ "bang", "float", "bang" ],
									"id" : "obj-5",
									"fontname" : "Arial",
									"patching_rect" : [ 17.0, 46.0, 115.0, 17.0 ],
									"numinlets" : 1,
									"fontsize" : 9.0,
									"numoutlets" : 3
								}

							}
, 							{
								"box" : 								{
									"maxclass" : "message",
									"text" : "0",
									"outlettype" : [ "" ],
									"id" : "obj-6",
									"fontname" : "Arial",
									"patching_rect" : [ 121.0, 88.0, 16.0, 15.0 ],
									"numinlets" : 2,
									"fontsize" : 9.0,
									"numoutlets" : 1
								}

							}
, 							{
								"box" : 								{
									"maxclass" : "newobj",
									"text" : "del 40000",
									"outlettype" : [ "bang" ],
									"id" : "obj-7",
									"fontname" : "Arial",
									"patching_rect" : [ 121.0, 66.0, 54.0, 17.0 ],
									"numinlets" : 2,
									"fontsize" : 9.0,
									"numoutlets" : 1
								}

							}
, 							{
								"box" : 								{
									"maxclass" : "inlet",
									"outlettype" : [ "" ],
									"id" : "obj-8",
									"patching_rect" : [ 17.0, 21.0, 15.0, 15.0 ],
									"numinlets" : 0,
									"numoutlets" : 1,
									"comment" : ""
								}

							}
, 							{
								"box" : 								{
									"maxclass" : "outlet",
									"id" : "obj-9",
									"patching_rect" : [ 17.0, 172.0, 15.0, 15.0 ],
									"numinlets" : 1,
									"numoutlets" : 0,
									"comment" : ""
								}

							}
 ],
						"lines" : [ 							{
								"patchline" : 								{
									"source" : [ "obj-7", 0 ],
									"destination" : [ "obj-6", 0 ],
									"hidden" : 0,
									"midpoints" : [  ]
								}

							}
, 							{
								"patchline" : 								{
									"source" : [ "obj-5", 2 ],
									"destination" : [ "obj-7", 0 ],
									"hidden" : 0,
									"midpoints" : [  ]
								}

							}
, 							{
								"patchline" : 								{
									"source" : [ "obj-5", 1 ],
									"destination" : [ "obj-3", 0 ],
									"hidden" : 0,
									"midpoints" : [  ]
								}

							}
, 							{
								"patchline" : 								{
									"source" : [ "obj-2", 0 ],
									"destination" : [ "obj-1", 1 ],
									"hidden" : 0,
									"midpoints" : [  ]
								}

							}
, 							{
								"patchline" : 								{
									"source" : [ "obj-4", 0 ],
									"destination" : [ "obj-9", 0 ],
									"hidden" : 0,
									"midpoints" : [  ]
								}

							}
, 							{
								"patchline" : 								{
									"source" : [ "obj-1", 0 ],
									"destination" : [ "obj-4", 0 ],
									"hidden" : 0,
									"midpoints" : [  ]
								}

							}
, 							{
								"patchline" : 								{
									"source" : [ "obj-6", 0 ],
									"destination" : [ "obj-4", 0 ],
									"hidden" : 0,
									"midpoints" : [ 130.5, 136.0, 26.5, 136.0 ]
								}

							}
, 							{
								"patchline" : 								{
									"source" : [ "obj-5", 0 ],
									"destination" : [ "obj-1", 0 ],
									"hidden" : 0,
									"midpoints" : [  ]
								}

							}
, 							{
								"patchline" : 								{
									"source" : [ "obj-8", 0 ],
									"destination" : [ "obj-5", 0 ],
									"hidden" : 0,
									"midpoints" : [  ]
								}

							}
 ]
					}
,
					"saved_object_attributes" : 					{
						"default_fontname" : "Arial",
						"default_fontsize" : 12.0,
						"fontname" : "Arial",
						"globalpatchername" : "",
						"fontface" : 0,
						"fontsize" : 12.0,
						"default_fontface" : 0
					}

				}

			}
, 			{
				"box" : 				{
					"maxclass" : "newobj",
					"text" : "print ofdec",
					"id" : "obj-8",
					"fontname" : "Arial",
					"patching_rect" : [ 130.0, 126.0, 59.0, 17.0 ],
					"numinlets" : 1,
					"fontsize" : 9.0,
					"numoutlets" : 0
				}

			}
, 			{
				"box" : 				{
					"maxclass" : "toggle",
					"outlettype" : [ "int" ],
					"id" : "obj-9",
					"patching_rect" : [ 129.0, 83.0, 15.0, 15.0 ],
					"numinlets" : 1,
					"numoutlets" : 1
				}

			}
, 			{
				"box" : 				{
					"maxclass" : "newobj",
					"text" : "gate",
					"outlettype" : [ "" ],
					"id" : "obj-10",
					"fontname" : "Arial",
					"patching_rect" : [ 130.0, 101.0, 29.0, 17.0 ],
					"numinlets" : 2,
					"fontsize" : 9.0,
					"numoutlets" : 1
				}

			}
, 			{
				"box" : 				{
					"maxclass" : "newobj",
					"text" : "+",
					"outlettype" : [ "int" ],
					"id" : "obj-11",
					"fontname" : "Arial",
					"patching_rect" : [ 27.0, 496.0, 44.0, 17.0 ],
					"numinlets" : 2,
					"fontsize" : 9.0,
					"numoutlets" : 1
				}

			}
, 			{
				"box" : 				{
					"maxclass" : "newobj",
					"text" : "0",
					"outlettype" : [ "int" ],
					"id" : "obj-12",
					"fontname" : "Arial",
					"patching_rect" : [ 27.0, 476.0, 23.0, 17.0 ],
					"numinlets" : 2,
					"fontsize" : 9.0,
					"numoutlets" : 1
				}

			}
, 			{
				"box" : 				{
					"maxclass" : "newobj",
					"text" : "t b i",
					"outlettype" : [ "bang", "int" ],
					"id" : "obj-13",
					"fontname" : "Arial",
					"patching_rect" : [ 44.0, 454.0, 27.0, 17.0 ],
					"numinlets" : 1,
					"fontsize" : 9.0,
					"numoutlets" : 2
				}

			}
, 			{
				"box" : 				{
					"maxclass" : "newobj",
					"text" : "route #3",
					"outlettype" : [ "", "" ],
					"id" : "obj-14",
					"fontname" : "Arial",
					"patching_rect" : [ 213.0, 520.0, 50.0, 17.0 ],
					"numinlets" : 1,
					"fontsize" : 9.0,
					"numoutlets" : 2
				}

			}
, 			{
				"box" : 				{
					"maxclass" : "outlet",
					"id" : "obj-15",
					"patching_rect" : [ 129.0, 590.0, 15.0, 15.0 ],
					"numinlets" : 1,
					"numoutlets" : 0,
					"comment" : ""
				}

			}
, 			{
				"box" : 				{
					"maxclass" : "newobj",
					"text" : "loadmess 1",
					"outlettype" : [ "" ],
					"id" : "obj-16",
					"fontname" : "Arial",
					"patching_rect" : [ 18.0, 543.0, 60.0, 17.0 ],
					"numinlets" : 1,
					"fontsize" : 9.0,
					"numoutlets" : 1
				}

			}
, 			{
				"box" : 				{
					"maxclass" : "newobj",
					"text" : "gate~ 2",
					"outlettype" : [ "signal", "signal" ],
					"id" : "obj-17",
					"fontname" : "Arial",
					"patching_rect" : [ 95.0, 561.0, 44.0, 17.0 ],
					"numinlets" : 2,
					"fontsize" : 9.0,
					"numoutlets" : 2
				}

			}
, 			{
				"box" : 				{
					"maxclass" : "newobj",
					"text" : "+ 1",
					"outlettype" : [ "int" ],
					"id" : "obj-18",
					"fontname" : "Arial",
					"patching_rect" : [ 213.0, 543.0, 27.0, 17.0 ],
					"numinlets" : 2,
					"fontsize" : 9.0,
					"numoutlets" : 1
				}

			}
, 			{
				"box" : 				{
					"maxclass" : "newobj",
					"text" : "r #1_Solo",
					"outlettype" : [ "" ],
					"id" : "obj-19",
					"fontname" : "Arial",
					"patching_rect" : [ 213.0, 498.0, 56.0, 17.0 ],
					"numinlets" : 0,
					"fontsize" : 9.0,
					"numoutlets" : 1
				}

			}
, 			{
				"box" : 				{
					"maxclass" : "newobj",
					"text" : "route #3",
					"outlettype" : [ "", "" ],
					"id" : "obj-20",
					"fontname" : "Arial",
					"patching_rect" : [ 44.0, 434.0, 50.0, 17.0 ],
					"numinlets" : 1,
					"fontsize" : 9.0,
					"numoutlets" : 2
				}

			}
, 			{
				"box" : 				{
					"maxclass" : "newobj",
					"text" : "r #1_tranche",
					"outlettype" : [ "" ],
					"id" : "obj-21",
					"fontname" : "Arial",
					"patching_rect" : [ 44.0, 413.0, 71.0, 17.0 ],
					"numinlets" : 0,
					"fontsize" : 9.0,
					"numoutlets" : 1
				}

			}
, 			{
				"box" : 				{
					"maxclass" : "newobj",
					"text" : "del 100",
					"outlettype" : [ "bang" ],
					"id" : "obj-22",
					"fontname" : "Arial",
					"patching_rect" : [ 70.0, 217.0, 44.0, 17.0 ],
					"numinlets" : 2,
					"fontsize" : 9.0,
					"numoutlets" : 1
				}

			}
, 			{
				"box" : 				{
					"maxclass" : "newobj",
					"text" : "/ 1",
					"outlettype" : [ "int" ],
					"id" : "obj-23",
					"fontname" : "Arial",
					"patching_rect" : [ 381.0, 360.0, 27.0, 17.0 ],
					"numinlets" : 2,
					"fontsize" : 9.0,
					"numoutlets" : 1
				}

			}
, 			{
				"box" : 				{
					"maxclass" : "newobj",
					"text" : "OfonPlay130_decode",
					"outlettype" : [ "int" ],
					"id" : "obj-24",
					"fontname" : "Arial",
					"patching_rect" : [ 192.0, 83.0, 104.0, 17.0 ],
					"numinlets" : 2,
					"fontsize" : 9.0,
					"numoutlets" : 1
				}

			}
, 			{
				"box" : 				{
					"maxclass" : "newobj",
					"text" : "r #1_NiveauGene",
					"outlettype" : [ "" ],
					"id" : "obj-25",
					"fontname" : "Arial",
					"patching_rect" : [ 27.0, 391.0, 81.0, 17.0 ],
					"numinlets" : 0,
					"fontsize" : 9.0,
					"numoutlets" : 1
				}

			}
, 			{
				"box" : 				{
					"maxclass" : "newobj",
					"text" : "dbtoa",
					"outlettype" : [ "" ],
					"id" : "obj-26",
					"fontname" : "Arial",
					"patching_rect" : [ 28.0, 515.0, 33.0, 17.0 ],
					"numinlets" : 1,
					"fontsize" : 9.0,
					"numoutlets" : 1
				}

			}
, 			{
				"box" : 				{
					"maxclass" : "newobj",
					"text" : "*~ 1.",
					"outlettype" : [ "signal" ],
					"id" : "obj-27",
					"fontname" : "Arial",
					"patching_rect" : [ 129.0, 533.0, 48.0, 17.0 ],
					"numinlets" : 2,
					"fontsize" : 9.0,
					"numoutlets" : 1
				}

			}
, 			{
				"box" : 				{
					"maxclass" : "newobj",
					"text" : "+~",
					"outlettype" : [ "signal" ],
					"id" : "obj-28",
					"fontname" : "Arial",
					"patching_rect" : [ 129.0, 416.0, 122.0, 17.0 ],
					"numinlets" : 2,
					"fontsize" : 9.0,
					"numoutlets" : 1
				}

			}
, 			{
				"box" : 				{
					"maxclass" : "outlet",
					"id" : "obj-29",
					"patching_rect" : [ 95.0, 589.0, 15.0, 15.0 ],
					"numinlets" : 1,
					"numoutlets" : 0,
					"comment" : ""
				}

			}
, 			{
				"box" : 				{
					"maxclass" : "newobj",
					"text" : "== 0",
					"outlettype" : [ "int" ],
					"id" : "obj-30",
					"fontname" : "Arial",
					"patching_rect" : [ 207.0, 275.0, 30.0, 17.0 ],
					"numinlets" : 2,
					"fontsize" : 9.0,
					"numoutlets" : 1
				}

			}
, 			{
				"box" : 				{
					"maxclass" : "newobj",
					"text" : "t i i",
					"outlettype" : [ "int", "int" ],
					"id" : "obj-31",
					"fontname" : "Arial",
					"patching_rect" : [ 207.0, 255.0, 125.0, 17.0 ],
					"numinlets" : 1,
					"fontsize" : 9.0,
					"numoutlets" : 2
				}

			}
, 			{
				"box" : 				{
					"maxclass" : "newobj",
					"text" : "t b b",
					"outlettype" : [ "bang", "bang" ],
					"id" : "obj-32",
					"fontname" : "Arial",
					"patching_rect" : [ 192.0, 296.0, 124.0, 17.0 ],
					"numinlets" : 1,
					"fontsize" : 9.0,
					"numoutlets" : 2
				}

			}
, 			{
				"box" : 				{
					"maxclass" : "newobj",
					"text" : "gate 2",
					"outlettype" : [ "", "" ],
					"id" : "obj-33",
					"fontname" : "Arial",
					"patching_rect" : [ 129.0, 161.0, 124.0, 17.0 ],
					"numinlets" : 2,
					"fontsize" : 9.0,
					"numoutlets" : 2
				}

			}
, 			{
				"box" : 				{
					"maxclass" : "newobj",
					"text" : "+ 1",
					"outlettype" : [ "int" ],
					"id" : "obj-34",
					"fontname" : "Arial",
					"patching_rect" : [ 265.0, 143.0, 23.0, 17.0 ],
					"numinlets" : 2,
					"fontsize" : 9.0,
					"numoutlets" : 1
				}

			}
, 			{
				"box" : 				{
					"maxclass" : "newobj",
					"text" : "t i i",
					"outlettype" : [ "int", "int" ],
					"id" : "obj-35",
					"fontname" : "Arial",
					"patching_rect" : [ 264.0, 124.0, 27.0, 17.0 ],
					"numinlets" : 1,
					"fontsize" : 9.0,
					"numoutlets" : 2
				}

			}
, 			{
				"box" : 				{
					"maxclass" : "message",
					"text" : "100",
					"outlettype" : [ "" ],
					"id" : "obj-36",
					"fontname" : "Arial",
					"patching_rect" : [ 100.0, 359.0, 26.0, 15.0 ],
					"numinlets" : 2,
					"fontsize" : 9.0,
					"numoutlets" : 1
				}

			}
, 			{
				"box" : 				{
					"maxclass" : "newobj",
					"text" : "t b b",
					"outlettype" : [ "bang", "bang" ],
					"id" : "obj-37",
					"fontname" : "Arial",
					"patching_rect" : [ 70.0, 336.0, 40.0, 17.0 ],
					"numinlets" : 1,
					"fontsize" : 9.0,
					"numoutlets" : 2
				}

			}
, 			{
				"box" : 				{
					"maxclass" : "message",
					"text" : "0.",
					"outlettype" : [ "" ],
					"id" : "obj-38",
					"fontname" : "Arial",
					"patching_rect" : [ 70.0, 359.0, 17.0, 15.0 ],
					"numinlets" : 2,
					"fontsize" : 9.0,
					"numoutlets" : 1
				}

			}
, 			{
				"box" : 				{
					"maxclass" : "inlet",
					"outlettype" : [ "" ],
					"id" : "obj-39",
					"patching_rect" : [ 192.0, 62.0, 15.0, 15.0 ],
					"numinlets" : 0,
					"numoutlets" : 1,
					"comment" : ""
				}

			}
, 			{
				"box" : 				{
					"maxclass" : "button",
					"outlettype" : [ "bang" ],
					"id" : "obj-40",
					"patching_rect" : [ 70.0, 106.0, 45.0, 45.0 ],
					"numinlets" : 1,
					"numoutlets" : 1
				}

			}
, 			{
				"box" : 				{
					"maxclass" : "newobj",
					"text" : "t f b",
					"outlettype" : [ "float", "bang" ],
					"id" : "obj-41",
					"fontname" : "Arial",
					"patching_rect" : [ 306.0, 339.0, 29.0, 17.0 ],
					"numinlets" : 1,
					"fontsize" : 9.0,
					"numoutlets" : 2
				}

			}
, 			{
				"box" : 				{
					"maxclass" : "newobj",
					"text" : "50.",
					"outlettype" : [ "float" ],
					"id" : "obj-42",
					"fontname" : "Arial",
					"patching_rect" : [ 336.0, 357.0, 27.0, 17.0 ],
					"numinlets" : 2,
					"fontsize" : 9.0,
					"numoutlets" : 1
				}

			}
, 			{
				"box" : 				{
					"maxclass" : "newobj",
					"text" : "t f b",
					"outlettype" : [ "float", "bang" ],
					"id" : "obj-43",
					"fontname" : "Arial",
					"patching_rect" : [ 192.0, 339.0, 29.0, 17.0 ],
					"numinlets" : 1,
					"fontsize" : 9.0,
					"numoutlets" : 2
				}

			}
, 			{
				"box" : 				{
					"maxclass" : "newobj",
					"text" : "t b i b",
					"outlettype" : [ "bang", "int", "bang" ],
					"id" : "obj-44",
					"fontname" : "Arial",
					"patching_rect" : [ 192.0, 105.0, 113.0, 17.0 ],
					"numinlets" : 1,
					"fontsize" : 9.0,
					"numoutlets" : 3
				}

			}
, 			{
				"box" : 				{
					"maxclass" : "toggle",
					"outlettype" : [ "int" ],
					"id" : "obj-45",
					"patching_rect" : [ 294.0, 125.0, 15.0, 15.0 ],
					"numinlets" : 1,
					"numoutlets" : 1
				}

			}
, 			{
				"box" : 				{
					"maxclass" : "comment",
					"text" : "3- il lance la\"line~\" du crossfade",
					"linecount" : 2,
					"id" : "obj-46",
					"fontname" : "Arial",
					"patching_rect" : [ 324.0, 127.0, 101.0, 27.0 ],
					"numinlets" : 1,
					"fontsize" : 9.0,
					"numoutlets" : 0
				}

			}
, 			{
				"box" : 				{
					"maxclass" : "comment",
					"text" : "2- il déclanche le cue",
					"id" : "obj-47",
					"fontname" : "Arial",
					"patching_rect" : [ 324.0, 111.0, 100.0, 17.0 ],
					"numinlets" : 1,
					"fontsize" : 9.0,
					"numoutlets" : 0
				}

			}
, 			{
				"box" : 				{
					"maxclass" : "comment",
					"text" : "1- le pg décide que sfplay va jouer (=celui qui ne joue pas)",
					"linecount" : 4,
					"id" : "obj-48",
					"fontname" : "Arial",
					"patching_rect" : [ 324.0, 59.0, 95.0, 48.0 ],
					"numinlets" : 1,
					"fontsize" : 9.0,
					"numoutlets" : 0
				}

			}
, 			{
				"box" : 				{
					"maxclass" : "newobj",
					"text" : "1",
					"outlettype" : [ "int" ],
					"id" : "obj-49",
					"fontname" : "Arial",
					"patching_rect" : [ 192.0, 319.0, 26.0, 17.0 ],
					"numinlets" : 2,
					"fontsize" : 9.0,
					"numoutlets" : 1
				}

			}
, 			{
				"box" : 				{
					"maxclass" : "newobj",
					"text" : "0",
					"outlettype" : [ "int" ],
					"id" : "obj-50",
					"fontname" : "Arial",
					"patching_rect" : [ 306.0, 319.0, 26.0, 17.0 ],
					"numinlets" : 2,
					"fontsize" : 9.0,
					"numoutlets" : 1
				}

			}
, 			{
				"box" : 				{
					"maxclass" : "newobj",
					"text" : "line~ 1.",
					"outlettype" : [ "signal", "bang" ],
					"id" : "obj-51",
					"fontname" : "Arial",
					"patching_rect" : [ 192.0, 375.0, 40.0, 17.0 ],
					"numinlets" : 2,
					"fontsize" : 9.0,
					"numoutlets" : 2
				}

			}
, 			{
				"box" : 				{
					"maxclass" : "number",
					"outlettype" : [ "int", "bang" ],
					"bgcolor" : [ 0.866667, 0.866667, 0.866667, 1.0 ],
					"id" : "obj-52",
					"fontname" : "Arial",
					"patching_rect" : [ 347.0, 329.0, 75.0, 23.0 ],
					"triscale" : 0.9,
					"numinlets" : 1,
					"fontsize" : 14.0,
					"htextcolor" : [ 0.870588, 0.870588, 0.870588, 1.0 ],
					"numoutlets" : 2
				}

			}
, 			{
				"box" : 				{
					"maxclass" : "newobj",
					"text" : "*~",
					"outlettype" : [ "signal" ],
					"id" : "obj-53",
					"fontname" : "Arial",
					"patching_rect" : [ 129.0, 393.0, 20.0, 17.0 ],
					"numinlets" : 2,
					"fontsize" : 9.0,
					"numoutlets" : 1
				}

			}
, 			{
				"box" : 				{
					"maxclass" : "newobj",
					"text" : "*~",
					"outlettype" : [ "signal" ],
					"id" : "obj-54",
					"fontname" : "Arial",
					"patching_rect" : [ 243.0, 393.0, 19.0, 17.0 ],
					"numinlets" : 2,
					"fontsize" : 9.0,
					"numoutlets" : 1
				}

			}
, 			{
				"box" : 				{
					"maxclass" : "newobj",
					"text" : "line~ 1.",
					"outlettype" : [ "signal", "bang" ],
					"id" : "obj-55",
					"fontname" : "Arial",
					"patching_rect" : [ 306.0, 375.0, 40.0, 17.0 ],
					"numinlets" : 2,
					"fontsize" : 9.0,
					"numoutlets" : 2
				}

			}
, 			{
				"box" : 				{
					"maxclass" : "comment",
					"text" : "crossfade (défaut 50 ms)",
					"id" : "obj-56",
					"fontname" : "Times Roman",
					"patching_rect" : [ 336.0, 314.0, 107.0, 16.0 ],
					"numinlets" : 1,
					"fontsize" : 10.0,
					"numoutlets" : 0
				}

			}
, 			{
				"box" : 				{
					"maxclass" : "newobj",
					"text" : "groove~ #2_buffer",
					"outlettype" : [ "signal", "signal" ],
					"id" : "obj-57",
					"fontname" : "Courier",
					"patching_rect" : [ 129.0, 231.0, 112.0, 16.0 ],
					"numinlets" : 3,
					"fontsize" : 10.0,
					"numoutlets" : 2,
					"color" : [ 1.0, 0.890196, 0.090196, 1.0 ]
				}

			}
, 			{
				"box" : 				{
					"maxclass" : "newobj",
					"text" : "groove~ #2_buffer",
					"outlettype" : [ "signal", "signal" ],
					"id" : "obj-58",
					"fontname" : "Courier",
					"patching_rect" : [ 243.0, 231.0, 112.0, 16.0 ],
					"numinlets" : 3,
					"fontsize" : 10.0,
					"numoutlets" : 2,
					"color" : [ 1.0, 0.890196, 0.090196, 1.0 ]
				}

			}
, 			{
				"box" : 				{
					"maxclass" : "comment",
					"text" : "réception des données Ofon",
					"id" : "obj-59",
					"fontname" : "Arial",
					"patching_rect" : [ 126.0, 26.0, 283.0, 29.0 ],
					"numinlets" : 1,
					"fontsize" : 20.0,
					"numoutlets" : 0
				}

			}
, 			{
				"box" : 				{
					"maxclass" : "comment",
					"text" : "SZTOOOP",
					"id" : "obj-60",
					"fontname" : "Arial",
					"patching_rect" : [ 48.0, 67.0, 53.0, 17.0 ],
					"numinlets" : 1,
					"fontsize" : 9.0,
					"numoutlets" : 0
				}

			}
, 			{
				"box" : 				{
					"maxclass" : "inlet",
					"outlettype" : [ "" ],
					"id" : "obj-61",
					"patching_rect" : [ 70.0, 85.0, 15.0, 15.0 ],
					"numinlets" : 0,
					"numoutlets" : 1,
					"comment" : ""
				}

			}
, 			{
				"box" : 				{
					"maxclass" : "comment",
					"text" : "sortie de la coll",
					"id" : "obj-62",
					"fontname" : "Arial",
					"patching_rect" : [ 162.0, 44.0, 81.0, 17.0 ],
					"numinlets" : 1,
					"fontsize" : 9.0,
					"numoutlets" : 0
				}

			}
 ],
		"lines" : [ 			{
				"patchline" : 				{
					"source" : [ "obj-65", 0 ],
					"destination" : [ "obj-57", 0 ],
					"hidden" : 0,
					"midpoints" : [ 377.5, 231.0, 357.0, 231.0, 357.0, 224.0, 138.5, 224.0 ]
				}

			}
, 			{
				"patchline" : 				{
					"source" : [ "obj-65", 0 ],
					"destination" : [ "obj-58", 0 ],
					"hidden" : 0,
					"midpoints" : [ 377.5, 231.0, 357.0, 231.0, 357.0, 223.0, 252.5, 223.0 ]
				}

			}
, 			{
				"patchline" : 				{
					"source" : [ "obj-1", 0 ],
					"destination" : [ "obj-63", 0 ],
					"hidden" : 0,
					"midpoints" : [  ]
				}

			}
, 			{
				"patchline" : 				{
					"source" : [ "obj-2", 0 ],
					"destination" : [ "obj-63", 0 ],
					"hidden" : 0,
					"midpoints" : [ 377.5, 201.0, 363.0, 201.0, 363.0, 240.0, 447.5, 240.0 ]
				}

			}
, 			{
				"patchline" : 				{
					"source" : [ "obj-1", 0 ],
					"destination" : [ "obj-65", 0 ],
					"hidden" : 0,
					"midpoints" : [ 446.5, 204.0, 377.5, 204.0 ]
				}

			}
, 			{
				"patchline" : 				{
					"source" : [ "obj-3", 1 ],
					"destination" : [ "obj-1", 0 ],
					"hidden" : 0,
					"midpoints" : [  ]
				}

			}
, 			{
				"patchline" : 				{
					"source" : [ "obj-2", 0 ],
					"destination" : [ "obj-65", 0 ],
					"hidden" : 0,
					"midpoints" : [  ]
				}

			}
, 			{
				"patchline" : 				{
					"source" : [ "obj-25", 0 ],
					"destination" : [ "obj-12", 0 ],
					"hidden" : 0,
					"midpoints" : [  ]
				}

			}
, 			{
				"patchline" : 				{
					"source" : [ "obj-52", 0 ],
					"destination" : [ "obj-23", 0 ],
					"hidden" : 0,
					"midpoints" : [ 356.5, 353.0, 390.5, 353.0 ]
				}

			}
, 			{
				"patchline" : 				{
					"source" : [ "obj-3", 0 ],
					"destination" : [ "obj-2", 0 ],
					"hidden" : 0,
					"midpoints" : [  ]
				}

			}
, 			{
				"patchline" : 				{
					"source" : [ "obj-4", 0 ],
					"destination" : [ "obj-3", 0 ],
					"hidden" : 0,
					"midpoints" : [  ]
				}

			}
, 			{
				"patchline" : 				{
					"source" : [ "obj-52", 0 ],
					"destination" : [ "obj-42", 1 ],
					"hidden" : 0,
					"midpoints" : [  ]
				}

			}
, 			{
				"patchline" : 				{
					"source" : [ "obj-5", 0 ],
					"destination" : [ "obj-52", 0 ],
					"hidden" : 0,
					"midpoints" : [  ]
				}

			}
, 			{
				"patchline" : 				{
					"source" : [ "obj-42", 0 ],
					"destination" : [ "obj-55", 1 ],
					"hidden" : 0,
					"midpoints" : [  ]
				}

			}
, 			{
				"patchline" : 				{
					"source" : [ "obj-36", 0 ],
					"destination" : [ "obj-55", 1 ],
					"hidden" : 0,
					"midpoints" : [  ]
				}

			}
, 			{
				"patchline" : 				{
					"source" : [ "obj-41", 1 ],
					"destination" : [ "obj-42", 0 ],
					"hidden" : 0,
					"midpoints" : [  ]
				}

			}
, 			{
				"patchline" : 				{
					"source" : [ "obj-43", 1 ],
					"destination" : [ "obj-42", 0 ],
					"hidden" : 0,
					"midpoints" : [  ]
				}

			}
, 			{
				"patchline" : 				{
					"source" : [ "obj-31", 1 ],
					"destination" : [ "obj-50", 1 ],
					"hidden" : 0,
					"midpoints" : [  ]
				}

			}
, 			{
				"patchline" : 				{
					"source" : [ "obj-41", 0 ],
					"destination" : [ "obj-55", 0 ],
					"hidden" : 0,
					"midpoints" : [  ]
				}

			}
, 			{
				"patchline" : 				{
					"source" : [ "obj-38", 0 ],
					"destination" : [ "obj-55", 0 ],
					"hidden" : 0,
					"midpoints" : [  ]
				}

			}
, 			{
				"patchline" : 				{
					"source" : [ "obj-50", 0 ],
					"destination" : [ "obj-41", 0 ],
					"hidden" : 0,
					"midpoints" : [  ]
				}

			}
, 			{
				"patchline" : 				{
					"source" : [ "obj-32", 1 ],
					"destination" : [ "obj-50", 0 ],
					"hidden" : 0,
					"midpoints" : [  ]
				}

			}
, 			{
				"patchline" : 				{
					"source" : [ "obj-44", 2 ],
					"destination" : [ "obj-45", 0 ],
					"hidden" : 0,
					"midpoints" : [  ]
				}

			}
, 			{
				"patchline" : 				{
					"source" : [ "obj-23", 0 ],
					"destination" : [ "obj-24", 1 ],
					"hidden" : 0,
					"midpoints" : [ 390.5, 383.0, 428.0, 383.0, 428.0, 74.0, 286.5, 74.0 ]
				}

			}
, 			{
				"patchline" : 				{
					"source" : [ "obj-35", 0 ],
					"destination" : [ "obj-34", 0 ],
					"hidden" : 0,
					"midpoints" : [  ]
				}

			}
, 			{
				"patchline" : 				{
					"source" : [ "obj-45", 0 ],
					"destination" : [ "obj-35", 0 ],
					"hidden" : 0,
					"midpoints" : [  ]
				}

			}
, 			{
				"patchline" : 				{
					"source" : [ "obj-55", 0 ],
					"destination" : [ "obj-54", 1 ],
					"hidden" : 0,
					"midpoints" : [  ]
				}

			}
, 			{
				"patchline" : 				{
					"source" : [ "obj-58", 0 ],
					"destination" : [ "obj-54", 0 ],
					"hidden" : 0,
					"midpoints" : [  ]
				}

			}
, 			{
				"patchline" : 				{
					"source" : [ "obj-6", 0 ],
					"destination" : [ "obj-58", 0 ],
					"hidden" : 0,
					"midpoints" : [  ]
				}

			}
, 			{
				"patchline" : 				{
					"source" : [ "obj-6", 1 ],
					"destination" : [ "obj-58", 0 ],
					"hidden" : 0,
					"midpoints" : [ 293.5, 216.0, 252.5, 216.0 ]
				}

			}
, 			{
				"patchline" : 				{
					"source" : [ "obj-33", 1 ],
					"destination" : [ "obj-6", 0 ],
					"hidden" : 0,
					"midpoints" : [  ]
				}

			}
, 			{
				"patchline" : 				{
					"source" : [ "obj-44", 1 ],
					"destination" : [ "obj-33", 1 ],
					"hidden" : 0,
					"midpoints" : [  ]
				}

			}
, 			{
				"patchline" : 				{
					"source" : [ "obj-54", 0 ],
					"destination" : [ "obj-28", 1 ],
					"hidden" : 0,
					"midpoints" : [  ]
				}

			}
, 			{
				"patchline" : 				{
					"source" : [ "obj-36", 0 ],
					"destination" : [ "obj-51", 1 ],
					"hidden" : 0,
					"midpoints" : [  ]
				}

			}
, 			{
				"patchline" : 				{
					"source" : [ "obj-42", 0 ],
					"destination" : [ "obj-51", 1 ],
					"hidden" : 0,
					"midpoints" : [  ]
				}

			}
, 			{
				"patchline" : 				{
					"source" : [ "obj-14", 0 ],
					"destination" : [ "obj-18", 0 ],
					"hidden" : 0,
					"midpoints" : [  ]
				}

			}
, 			{
				"patchline" : 				{
					"source" : [ "obj-19", 0 ],
					"destination" : [ "obj-14", 0 ],
					"hidden" : 0,
					"midpoints" : [  ]
				}

			}
, 			{
				"patchline" : 				{
					"source" : [ "obj-30", 0 ],
					"destination" : [ "obj-49", 1 ],
					"hidden" : 0,
					"midpoints" : [  ]
				}

			}
, 			{
				"patchline" : 				{
					"source" : [ "obj-31", 0 ],
					"destination" : [ "obj-30", 0 ],
					"hidden" : 0,
					"midpoints" : [  ]
				}

			}
, 			{
				"patchline" : 				{
					"source" : [ "obj-35", 1 ],
					"destination" : [ "obj-31", 0 ],
					"hidden" : 0,
					"midpoints" : [  ]
				}

			}
, 			{
				"patchline" : 				{
					"source" : [ "obj-43", 0 ],
					"destination" : [ "obj-51", 0 ],
					"hidden" : 0,
					"midpoints" : [  ]
				}

			}
, 			{
				"patchline" : 				{
					"source" : [ "obj-38", 0 ],
					"destination" : [ "obj-51", 0 ],
					"hidden" : 0,
					"midpoints" : [  ]
				}

			}
, 			{
				"patchline" : 				{
					"source" : [ "obj-49", 0 ],
					"destination" : [ "obj-43", 0 ],
					"hidden" : 0,
					"midpoints" : [  ]
				}

			}
, 			{
				"patchline" : 				{
					"source" : [ "obj-32", 0 ],
					"destination" : [ "obj-49", 0 ],
					"hidden" : 0,
					"midpoints" : [  ]
				}

			}
, 			{
				"patchline" : 				{
					"source" : [ "obj-44", 0 ],
					"destination" : [ "obj-32", 0 ],
					"hidden" : 0,
					"midpoints" : [  ]
				}

			}
, 			{
				"patchline" : 				{
					"source" : [ "obj-24", 0 ],
					"destination" : [ "obj-44", 0 ],
					"hidden" : 0,
					"midpoints" : [  ]
				}

			}
, 			{
				"patchline" : 				{
					"source" : [ "obj-39", 0 ],
					"destination" : [ "obj-24", 0 ],
					"hidden" : 0,
					"midpoints" : [  ]
				}

			}
, 			{
				"patchline" : 				{
					"source" : [ "obj-26", 0 ],
					"destination" : [ "obj-27", 1 ],
					"hidden" : 0,
					"midpoints" : [  ]
				}

			}
, 			{
				"patchline" : 				{
					"source" : [ "obj-24", 0 ],
					"destination" : [ "obj-10", 1 ],
					"hidden" : 0,
					"midpoints" : [  ]
				}

			}
, 			{
				"patchline" : 				{
					"source" : [ "obj-51", 0 ],
					"destination" : [ "obj-53", 1 ],
					"hidden" : 0,
					"midpoints" : [  ]
				}

			}
, 			{
				"patchline" : 				{
					"source" : [ "obj-10", 0 ],
					"destination" : [ "obj-8", 0 ],
					"hidden" : 0,
					"midpoints" : [  ]
				}

			}
, 			{
				"patchline" : 				{
					"source" : [ "obj-9", 0 ],
					"destination" : [ "obj-10", 0 ],
					"hidden" : 0,
					"midpoints" : [  ]
				}

			}
, 			{
				"patchline" : 				{
					"source" : [ "obj-17", 1 ],
					"destination" : [ "obj-15", 0 ],
					"hidden" : 0,
					"midpoints" : [  ]
				}

			}
, 			{
				"patchline" : 				{
					"source" : [ "obj-27", 0 ],
					"destination" : [ "obj-17", 1 ],
					"hidden" : 0,
					"midpoints" : [  ]
				}

			}
, 			{
				"patchline" : 				{
					"source" : [ "obj-28", 0 ],
					"destination" : [ "obj-27", 0 ],
					"hidden" : 0,
					"midpoints" : [  ]
				}

			}
, 			{
				"patchline" : 				{
					"source" : [ "obj-53", 0 ],
					"destination" : [ "obj-28", 0 ],
					"hidden" : 0,
					"midpoints" : [  ]
				}

			}
, 			{
				"patchline" : 				{
					"source" : [ "obj-57", 0 ],
					"destination" : [ "obj-53", 0 ],
					"hidden" : 0,
					"midpoints" : [  ]
				}

			}
, 			{
				"patchline" : 				{
					"source" : [ "obj-7", 1 ],
					"destination" : [ "obj-57", 0 ],
					"hidden" : 0,
					"midpoints" : [ 179.5, 217.0, 138.5, 217.0 ]
				}

			}
, 			{
				"patchline" : 				{
					"source" : [ "obj-7", 0 ],
					"destination" : [ "obj-57", 0 ],
					"hidden" : 0,
					"midpoints" : [  ]
				}

			}
, 			{
				"patchline" : 				{
					"source" : [ "obj-33", 0 ],
					"destination" : [ "obj-7", 0 ],
					"hidden" : 0,
					"midpoints" : [  ]
				}

			}
, 			{
				"patchline" : 				{
					"source" : [ "obj-34", 0 ],
					"destination" : [ "obj-33", 0 ],
					"hidden" : 0,
					"midpoints" : [  ]
				}

			}
, 			{
				"patchline" : 				{
					"source" : [ "obj-37", 1 ],
					"destination" : [ "obj-36", 0 ],
					"hidden" : 0,
					"midpoints" : [  ]
				}

			}
, 			{
				"patchline" : 				{
					"source" : [ "obj-17", 0 ],
					"destination" : [ "obj-29", 0 ],
					"hidden" : 0,
					"midpoints" : [  ]
				}

			}
, 			{
				"patchline" : 				{
					"source" : [ "obj-16", 0 ],
					"destination" : [ "obj-17", 0 ],
					"hidden" : 0,
					"midpoints" : [  ]
				}

			}
, 			{
				"patchline" : 				{
					"source" : [ "obj-18", 0 ],
					"destination" : [ "obj-17", 0 ],
					"hidden" : 0,
					"midpoints" : [  ]
				}

			}
, 			{
				"patchline" : 				{
					"source" : [ "obj-37", 0 ],
					"destination" : [ "obj-38", 0 ],
					"hidden" : 0,
					"midpoints" : [  ]
				}

			}
, 			{
				"patchline" : 				{
					"source" : [ "obj-22", 0 ],
					"destination" : [ "obj-37", 0 ],
					"hidden" : 0,
					"midpoints" : [  ]
				}

			}
, 			{
				"patchline" : 				{
					"source" : [ "obj-40", 0 ],
					"destination" : [ "obj-22", 0 ],
					"hidden" : 0,
					"midpoints" : [  ]
				}

			}
, 			{
				"patchline" : 				{
					"source" : [ "obj-61", 0 ],
					"destination" : [ "obj-40", 0 ],
					"hidden" : 0,
					"midpoints" : [  ]
				}

			}
, 			{
				"patchline" : 				{
					"source" : [ "obj-13", 1 ],
					"destination" : [ "obj-11", 1 ],
					"hidden" : 0,
					"midpoints" : [  ]
				}

			}
, 			{
				"patchline" : 				{
					"source" : [ "obj-20", 0 ],
					"destination" : [ "obj-13", 0 ],
					"hidden" : 0,
					"midpoints" : [  ]
				}

			}
, 			{
				"patchline" : 				{
					"source" : [ "obj-21", 0 ],
					"destination" : [ "obj-20", 0 ],
					"hidden" : 0,
					"midpoints" : [  ]
				}

			}
, 			{
				"patchline" : 				{
					"source" : [ "obj-11", 0 ],
					"destination" : [ "obj-26", 0 ],
					"hidden" : 0,
					"midpoints" : [  ]
				}

			}
, 			{
				"patchline" : 				{
					"source" : [ "obj-12", 0 ],
					"destination" : [ "obj-11", 0 ],
					"hidden" : 0,
					"midpoints" : [  ]
				}

			}
, 			{
				"patchline" : 				{
					"source" : [ "obj-13", 0 ],
					"destination" : [ "obj-12", 0 ],
					"hidden" : 0,
					"midpoints" : [  ]
				}

			}
 ]
	}

}
