max v2;#N vpatcher 15 606 337 912;#P origin 175 44;#P window setfont "Sans Serif" 10.;#P message 216 62 61 196618 127.0.0.4;#P window setfont "Sans Serif" 9.;#N vpatcher 24 74 624 474;#P window setfont "Sans Serif" 9.;#P newex 50 74 69 196617 route symbol;#P newex 50 105 62 196617 prepend set;#P newex 50 50 80 196617 r v_adresse_IP;#P outlet 50 127 15 0;#P connect 1 0 3 0;#P connect 3 0 2 0;#P connect 3 1 2 0;#P connect 2 0 0 0;#P pop;#P hidden newobj 224 6 18 196617 p;#P window setfont "Arial Rounded MT Bold" 12.;#P message 174 4 98 -859832308 127.0.0.1;#B color 14;#P window setfont "Sans Serif" 9.;#P hidden newex 336 108 21 196617 t 7;#P message 239 90 33 196617 direct;#P message 245 110 14 196617 5;#P message 227 110 14 196617 4;#P message 209 110 14 196617 3;#P hidden newex 286 107 21 196617 t 9;#P hidden newex 311 106 21 196617 t 6;#P newex 172 131 107 196617 s $1_nouveaucourant;#P message 190 110 14 196617 2;#P message 172 110 14 196617 1;#P message 199 90 38 196617 continu;#P message 172 90 26 196617 noir;#P number 34 108 35 9 0 0 0 3 0 0 0 221 221 221 222 222 222 0 0 0;#P message 107 92 26 196617 400;#P message 80 92 26 196617 200;#P message 65 92 14 196617 0;#P message 36 92 28 196617 -200;#P message 7 92 28 196617 -400;#P newex 34 124 94 196617 s $1_offset_video;#P hidden newex 75 256 60 196617 loadmess 1;#P toggle 5 238 15 0;#P newex 5 256 66 196617 s $1_audio?;#P comment 2 220 113 196617 triche : canal 10017;#P comment 149 254 113 196617 seqdirect : canal 10016;#P window setfont "Sans Serif" 12.;#N vpatcher 89 269 596 588;#P origin -75 0;#P window setfont "Sans Serif" 9.;#P newex 355 81 27 196617 del;#P newex 240 74 84 196617 pack;#P newex 240 52 85 196617 unpack 1 100 99;#P window linecount 1;#P newex 362 232 80 196617 sprintf host %s;#P newex 362 209 80 196617 r v_adresse_IP;#P newex 240 250 126 196617 udpsend 127.0.0.1 10016;#P toggle 180 98 15 0;#P window linecount 0;#P newex 180 121 29 196617 gate;#P newex 180 166 59 196617 print video;#P newex 240 103 75 196617 prepend film 1;#P message 355 103 20 196617 fin;#P message 50 111 40 196617 15000;#P message 71 163 40 196617 50000;#P message 71 183 79 196617 film 11 \$1 500;#P message 50 93 34 196617 1000;#P message 50 130 79 196617 film 10 \$1 500;#P newex 240 18 90 196617 r $1_seqdirsound;#P comment 250 36 108 196617 msg : début \, fin durée;#P connect 6 0 2 0;#P connect 3 0 2 0;#P connect 5 0 4 0;#P connect 11 0 10 0;#P connect 10 0 9 0;#P connect 8 0 10 1;#P connect 1 0 15 0;#P connect 15 0 16 0;#P connect 16 0 8 0;#P fasten 2 0 12 0 55 226 245 226;#P fasten 4 0 12 0 76 238 245 238;#P fasten 7 0 12 0 360 151 245 151;#P connect 14 0 12 0;#P connect 8 0 12 0;#P connect 15 2 16 1;#P connect 15 2 17 0;#P connect 17 0 7 0;#P connect 13 0 14 0;#P pop;#P newobj 149 232 131 196620 p OSC_to_seqdirect;#P window setfont "Sans Serif" 9.;#N vpatcher 713 234 1229 634;#P inlet 305 53 15 0;#P window setfont "Sans Serif" 9.;#P message 121 109 55 196617 127.0.0.1;#P newex 195 286 32 196617 print;#P inlet 197 51 15 0;#P button 240 111 15 0;#P newex 197 154 44 196617 del 100;#P newex 50 153 62 196617 prepend set;#P objectname duc;#P newex 50 125 90 196617 pattr videoadress;#X prestore 1 0 127.0.0.1;#P objectname videoadress;#P newex 50 98 61 196617 sprintf %s;#P newex 50 209 80 196617 prepend symbol;#P message 50 184 81 196617 127.0.0.1;#P objectname adressvideo;#P newex 50 238 185 196617 dialog adresse_de_l'ordinateur_vidéo?;#P outlet 50 318 15 0;#P fasten 1 0 4 0 55 265 14 265 14 67 55 67;#P fasten 12 0 5 0 310 94 55 94;#P connect 11 0 5 0;#P fasten 4 0 5 0 55 118 55 118;#P connect 5 0 6 0;#P connect 6 0 2 0;#P fasten 7 0 2 0 202 178 55 178;#P connect 2 0 3 0;#P connect 3 0 1 0;#P connect 1 0 0 0;#P fasten 12 0 0 0 310 316 55 316;#P connect 1 0 10 0;#P connect 9 0 7 0;#P connect 8 0 7 0;#P pop;#P newobj 133 45 63 196617 p videopatch;#P objectname videopatch;#P hidden newex 186 -8 94 196617 bgcolor 46 255 10;#P comment 149 176 113 196617 continu : canal 10010;#P window setfont "Sans Serif" 12.;#N vpatcher 168 503 675 822;#P origin -75 0;#P window setfont "Sans Serif" 9.;#P newex 300 42 94 196617 r $1_offset_video;#P newex 283 88 27 196617 + 0;#P window linecount 1;#P newex 240 113 96 196617 pack 3 1000 100;#P window linecount 0;#P newex 240 66 97 196617 unpack 3 1000 100;#P newex 167 43 32 196617 print;#P newex 17 51 30 196617 pack;#P number 11 26 35 9 0 0 0 3 0 0 0 221 221 221 222 222 222 0 0 0;#P window linecount 1;#P newex 362 232 80 196617 sprintf host %s;#P newex 362 209 80 196617 r v_adresse_IP;#P newex 240 250 126 196617 udpsend 127.0.0.1 10010;#P message 26 73 85 196617 film \$1 \$2 5000;#P number 57 32 35 9 0 0 0 3 0 0 0 221 221 221 222 222 222 0 0 0;#P toggle 179 134 15 0;#P window linecount 0;#P newex 179 157 29 196617 gate;#P newex 179 180 59 196617 print video;#P newex 240 139 66 196617 prepend film;#P message 355 113 20 196617 fin;#P newex 355 88 44 196617 del 500;#P newex 355 66 95 196617 r $1_KLUDGESTOP;#P message 50 111 40 196617 15000;#P message 71 163 40 196617 50000;#P message 71 183 79 196617 film 11 \$1 500;#P message 50 93 34 196617 1000;#P message 50 130 79 196617 film 10 \$1 500;#P newex 240 21 62 196617 r $1_sound;#P connect 18 0 19 0;#P connect 19 0 14 0;#P connect 13 0 19 1;#P connect 2 0 1 0;#P connect 5 0 1 0;#P connect 4 0 3 0;#P connect 12 0 11 0;#P connect 11 0 10 0;#P connect 9 0 11 1;#P connect 0 0 21 0;#P connect 21 0 22 0;#P connect 22 0 9 0;#P fasten 1 0 15 0 55 226 245 226;#P fasten 14 0 15 0 31 214 245 214;#P fasten 3 0 15 0 76 238 245 238;#P fasten 8 0 15 0 360 192 245 192;#P connect 17 0 15 0;#P connect 9 0 15 0;#P connect 21 1 23 0;#P connect 23 0 22 1;#P connect 24 0 23 1;#P connect 21 2 22 2;#P connect 6 0 7 0;#P connect 7 0 8 0;#P connect 16 0 17 0;#P pop;#P newobj 149 154 127 196620 p OSC_to_continu;#P window setfont "Sans Serif" 10.;#P window linecount 2;#P comment 0 61 103 196618 commandes/voyants CANAL 9998;#P window linecount 1;#P comment 0 23 126 196618 acquisition CANAL 9999;#P window setfont "Sans Serif" 12.;#N vpatcher 167 679 781 918;#P origin 0 106;#P window setfont "Sans Serif" 9.;#P window linecount 1;#P newex 203 69 100 196617 r $1_save_to_fileO;#P newex 138 45 109 196617 r $1_save_to_videoO;#P newex 305 116 110 196617 unpack 1 nomdufichier;#P newex 457 165 124 196617 prepend /nouveaucourant;#P newex 457 144 107 196617 r $1_nouveaucourant;#P button 137 73 15 0;#N vpatcher 648 594 1248 994;#P window setfont "Sans Serif" 9.;#P newex 50 74 21 196617 t 0;#P inlet 125 47 15 0;#P newex 50 259 126 196617 sprintf /savefilm %ld %s;#P newex 166 231 51 196617 tosymbol;#P message 257 216 70 196617 separator " ";#P newex 257 195 48 196617 loadbang;#P newex 166 209 75 196617 sprintf %s.%s;#P message 231 161 29 196617 mov;#P newex 125 139 116 196617 t l b;#P newex 166 183 40 196617 itoa;#P newex 125 160 51 196617 zl slice 3;#P newex 125 117 44 196617 zl rot 3;#P newex 125 97 40 196617 atoi;#P newex 125 74 51 196617 strippath;#P inlet 50 47 15 0;#P outlet 50 281 15 0;#P connect 1 0 15 0;#P connect 15 0 13 0;#P connect 13 0 0 0;#P connect 14 0 2 0;#P connect 2 0 3 0;#P connect 3 0 4 0;#P connect 4 0 7 0;#P connect 7 0 5 0;#P connect 5 1 6 0;#P connect 6 0 9 0;#P connect 11 0 12 0;#P connect 9 0 12 0;#P connect 12 0 13 1;#P connect 7 1 8 0;#P connect 8 0 9 1;#P connect 10 0 11 0;#P pop;#P newobj 137 95 76 196617 p $1_savefilm;#P newex 305 93 107 196617 r $1_loadfiletobuffer;#P newex 339 165 91 196617 prepend /registre;#P newex 339 144 114 196617 r $1_registre_courant;#P newex 244 165 71 196617 pak /buffer 1;#P newex 148 165 80 196617 sprintf host %s;#P newex 148 142 80 196617 r v_adresse_IP;#P newex 27 183 120 196617 udpsend 127.0.0.1 9998;#P newex 27 45 80 196617 prepend /light;#P newex 27 21 57 196617 r $1_light;#P window linecount 2;#P comment 51 114 231 196617 autosave : demande la sauvegarde des fichiers video avec le mêm nom que les fichiers oracle;#P connect 1 0 2 0;#P connect 13 0 3 0;#P connect 2 0 3 0;#P connect 5 0 3 0;#P connect 6 0 3 0;#P connect 8 0 3 0;#P connect 10 0 3 0;#P connect 15 0 10 0;#P connect 11 0 10 0;#P connect 4 0 5 0;#P connect 16 0 10 1;#P connect 9 0 14 0;#P connect 14 0 6 1;#P connect 7 0 8 0;#P connect 12 0 13 0;#P pop;#P newobj 0 39 97 196620 p IO;#N vpatcher 225 628 911 793;#P origin 10 -19;#P window setfont "Sans Serif" 9.;#P window linecount 1;#P newex 374 45 152 196617 prepend $1_OMaxReInitSession;#P newex 374 21 122 196617 r $1_OMaxReInitSession;#P newex 14 76 106 196617 prepend $1_Videorec;#P newex 243 45 123 196617 prepend $1_videoreglgth;#P newex 243 21 125 196617 r $1_videoregisterlength;#N vpatcher 201 166 801 566;#P window setfont "Sans Serif" 9.;#P newex 151 96 22 196617 b 1;#P newex 50 57 60 196617 loadmess 1;#P newex 125 77 18 196617 1;#P newex 151 74 29 196617 gate;#P newex 151 50 29 196617 t 0 i;#P newex 151 120 38 196617 del 20;#P inlet 151 30 15 0;#P outlet 151 96 15 0;#P connect 2 0 5 0;#P connect 1 0 3 0;#P connect 5 0 4 0;#P connect 3 0 4 0;#P connect 6 0 4 0;#P connect 4 0 0 0;#P connect 4 0 7 0;#P connect 7 0 2 0;#P connect 3 1 4 1;#P pop;#P newobj 139 41 75 196617 p fauxspeed20;#P message 139 63 95 196617 $1_Currentime \$1;#P newex 139 21 96 196617 r $1_current_time;#P window linecount 0;#P newex 21 59 30 196617 pack;#P toggle 22 41 15 0;#P number 41 41 80 9 0 0 0 3 0 0 0 221 221 221 222 222 222 0 0 0;#P newex 14 21 108 196617 r $1_Videorec;#P newex 388 103 82 196617 sprintf host %s;#P newex 388 83 82 196617 r v_adresse_IP;#P newex 14 121 120 196617 udpsend 127.0.0.1 9999;#P comment 21 103 100 196617 1/0 date_buffer/-1;#P connect 7 0 13 0;#P connect 4 0 13 0;#P connect 13 0 1 0;#P fasten 12 0 1 0 248 96 19 96;#P connect 3 0 1 0;#P fasten 9 0 1 0 144 94 19 94;#P fasten 15 0 1 0 379 98 19 98;#P connect 6 0 7 0;#P connect 5 0 7 1;#P connect 8 0 10 0;#P connect 10 0 9 0;#P connect 11 0 12 0;#P connect 14 0 15 0;#P connect 2 0 3 0;#P pop;#P newobj 0 1 96 196620 p acquisition;#N vpatcher 84 612 1048 888;#P window setfont "Sans Serif" 9.;#P window linecount 1;#P newex 819 43 94 196617 r $1_offset_video;#P newex 744 119 27 196617 + 0;#P newex 701 144 96 196617 pack 3 1000 100;#P newex 701 73 97 196617 unpack 3 1000 100;#P newex 594 119 27 196617 + 0;#P newex 551 144 96 196617 pack 3 1000 100;#P newex 551 73 97 196617 unpack 3 1000 100;#P newex 444 119 27 196617 + 0;#P newex 401 144 96 196617 pack 3 1000 100;#P newex 401 73 97 196617 unpack 3 1000 100;#P newex 294 119 27 196617 + 0;#P newex 251 144 96 196617 pack 3 1000 100;#P newex 251 73 97 196617 unpack 3 1000 100;#P newex 144 119 27 196617 + 0;#P newex 101 144 96 196617 pack 3 1000 100;#P newex 101 73 97 196617 unpack 3 1000 100;#P newex 657 168 29 196617 t fin;#P newex 506 168 29 196617 t fin;#P newex 357 168 29 196617 t fin;#P newex 207 168 29 196617 t fin;#P number 914 103 35 9 0 0 0 3 0 0 0 221 221 221 222 222 222 0 0 0;#P message 836 111 40 196617 15000;#P message 836 93 34 196617 1000;#P message 836 130 79 196617 film 10 \$1 500;#P window linecount 0;#P newex 57 168 29 196617 t fin;#P newex 701 168 66 196617 prepend film;#P newex 701 194 126 196617 udpsend 127.0.0.1 10015;#P newex 657 48 54 196617 route stop;#P newex 550 168 66 196617 prepend film;#P newex 550 194 126 196617 udpsend 127.0.0.1 10014;#P newex 506 48 54 196617 route stop;#P newex 401 168 66 196617 prepend film;#P newex 401 194 126 196617 udpsend 127.0.0.1 10013;#P newex 357 48 54 196617 route stop;#P newex 251 168 66 196617 prepend film;#P newex 251 194 126 196617 udpsend 127.0.0.1 10012;#P newex 207 48 54 196617 route stop;#P newex 101 168 66 196617 prepend film;#P newex 836 176 80 196617 sprintf host %s;#P newex 836 153 80 196617 r v_adresse_IP;#P newex 101 194 126 196617 udpsend 127.0.0.1 10011;#P newex 57 48 54 196617 route stop;#P newex 657 27 79 196617 r $1_b5_sound;#P newex 506 27 79 196617 r $1_b4_sound;#P newex 357 27 79 196617 r $1_b3_sound;#P newex 207 27 79 196617 r $1_b2_sound;#P newex 57 27 79 196617 r $1_b1_sound;#P connect 0 0 5 0;#P connect 5 0 22 0;#P connect 5 1 31 0;#P connect 31 0 32 0;#P connect 32 0 9 0;#P connect 8 0 6 0;#P connect 9 0 6 0;#P connect 22 0 6 0;#P connect 31 1 33 0;#P connect 33 0 32 1;#P fasten 46 0 33 1 824 95 166 95;#P connect 31 2 32 2;#P connect 1 0 10 0;#P connect 10 0 27 0;#P connect 34 0 35 0;#P connect 10 1 12 0;#P connect 8 0 11 0;#P connect 27 0 11 0;#P connect 12 0 11 0;#P connect 34 1 36 0;#P connect 36 0 35 1;#P fasten 46 0 36 1 824 101 316 101;#P connect 34 2 35 2;#P connect 2 0 13 0;#P connect 13 0 28 0;#P connect 37 0 38 0;#P connect 13 1 15 0;#P connect 8 0 14 0;#P connect 28 0 14 0;#P connect 15 0 14 0;#P connect 37 1 39 0;#P connect 39 0 38 1;#P fasten 46 0 39 1 824 106 466 106;#P connect 37 2 38 2;#P connect 3 0 16 0;#P connect 16 0 29 0;#P connect 16 1 18 0;#P connect 8 0 17 0;#P connect 29 0 17 0;#P connect 18 0 17 0;#P connect 40 0 41 0;#P connect 40 1 42 0;#P connect 42 0 41 1;#P fasten 46 0 42 1 824 111 616 111;#P connect 40 2 41 2;#P connect 4 0 19 0;#P connect 19 0 30 0;#P connect 43 0 44 0;#P connect 19 1 21 0;#P connect 30 0 20 0;#P connect 21 0 20 0;#P connect 23 0 20 0;#P connect 8 0 20 0;#P connect 43 1 45 0;#P connect 45 0 44 1;#P fasten 46 0 45 1 824 116 766 116;#P connect 43 2 44 2;#P connect 25 0 23 0;#P connect 24 0 23 0;#P connect 26 0 23 0;#P connect 7 0 8 0;#P pop;#P newobj 149 193 152 196620 patcher OSC_to_blocs;#P window setfont "Sans Serif" 9.;#N vpatcher 27 612 296 852;#P origin 10 21;#P window setfont "Sans Serif" 9.;#N vpatcher 44 104 644 504;#P window setfont "Sans Serif" 9.;#P newex 49 104 137 196617 pack nom 1 2;#P newex 49 78 65 196617 v disqudiosu;#P newex 48 50 56 196617 route text;#P inlet 175 84 15 0;#P inlet 112 84 15 0;#P inlet 11 47 15 0;#P inlet 48 30 15 0;#P outlet 49 126 15 0;#P connect 1 0 5 0;#P connect 2 0 6 0;#P connect 5 0 6 0;#P connect 6 0 7 0;#P connect 7 0 0 0;#P connect 3 0 7 1;#P connect 4 0 7 2;#P pop;#P hidden newobj 14 136 120 196617 p;#P button 46 152 20 0;#P user textedit 13 129 91 145 32896 3 9 myfilm;#P number 141 129 66 9 0 0 0 3 0 0 0 221 221 221 222 222 222 0 0 0;#P number 90 129 51 9 0 0 0 3 0 0 0 221 221 221 222 222 222 0 0 0;#P window linecount 1;#P hidden newex 23 209 94 196617 bgcolor 46 225 10;#P message 4 33 88 196617 video01 0 65700;#B color 14;#P outlet 4 189 15 0;#P message 4 94 112 196617 video02 13000 16800;#P message 4 79 112 196617 video01 18000 15000;#P message 4 64 83 196617 hel 1800 13000;#P message 4 49 131 196617 canonmonte600 0 16800 0;#P message 4 18 88 196617 video00 0 66000;#B color 6;#P window linecount 0;#P comment 74 159 171 196617 THE MOVIES "TRICHE" (Cheat) ARE BY DEFAULT IN THE FOLDER ovideo_films INSIDE THE FOLDER OMAXVIDEO: THE NAME OF THIS FOLDER SHOULD NOT BE CHANGED.;#P user panel 70 154 175 71;#X brgb 11 203 41;#X frgb 0 0 0;#X border 1;#X rounded 0;#X shadow 0;#X done;#P comment 12 116 197 196617 type filename \, beginning \, duration (msec);#P comment 14 148 33 196617 and GO !!!;#P connect 10 0 9 0;#P connect 8 0 9 0;#P connect 7 0 9 0;#P connect 6 0 9 0;#P connect 5 0 9 0;#P connect 4 0 9 0;#P hidden connect 16 0 9 0;#P hidden connect 15 0 16 0;#P hidden connect 14 0 16 1;#P hidden connect 12 0 16 2;#P hidden connect 13 0 16 3;#P pop;#P newobj 2 157 44 196617 p films;#P button 133 1 39 0;#P message 2 179 88 196617 video1 50 65000;#P window setfont "Sans Serif" 12.;#N vpatcher 71 176 620 479;#P window setfont "Sans Serif" 9.;#P window linecount 1;#P newex 280 184 80 196617 sprintf host %s;#P newex 280 161 80 196617 r v_adresse_IP;#P newex 128 202 126 196617 udpsend 127.0.0.1 10017;#P inlet 128 38 15 0;#P window linecount 0;#P newex 128 97 130 196617 pack video 2 3;#P newex 128 69 190 196617 unpack video 2 3 4;#P message 195 38 100 196617 video1 1000 65000;#P comment 196 54 117 196617 départ des films monk;#P connect 4 0 2 0;#P connect 1 0 2 0;#P connect 2 0 3 0;#P connect 3 0 5 0;#P connect 7 0 5 0;#P connect 2 1 3 1;#P connect 2 2 3 2;#P connect 6 0 7 0;#P pop;#P newobj 2 198 122 196620 p $1_video_triche;#P window setfont "Sans Serif" 10.;#P message 202 44 60 196618 127.0.0.1;#P window setfont "Sans Serif" 9.;#P newex 133 65 80 196617 s v_adresse_IP;#P hidden newex 111 43 45 196617 loadbang;#P comment 149 215 152 196617 blocs : canaux 10011 à 10015;#P comment 215 69 92 196617 adresse ordi vidéo;#P comment 22 240 58 196617 films MIDI;#P user panel 2 90 135 52;#X brgb 11 203 41;#X frgb 0 0 0;#X border 1;#X rounded 0;#X shadow 0;#X done;#P comment 174 25 98 196617 <-Change IP Address;#P connect 9 0 8 0;#P connect 11 0 8 0;#P hidden connect 26 0 25 0;#P connect 25 0 24 0;#P hidden connect 32 0 33 0;#P hidden connect 31 0 33 0;#P hidden connect 30 0 33 0;#P hidden connect 29 0 33 0;#P hidden connect 28 0 33 0;#P connect 33 0 27 0;#P hidden connect 10 0 20 0;#P hidden connect 5 0 20 0;#P hidden connect 20 0 6 0;#P hidden connect 43 0 38 0;#P hidden connect 42 0 38 0;#P hidden connect 41 0 38 0;#P hidden connect 37 0 38 0;#P hidden connect 45 0 38 0;#P hidden connect 40 0 38 0;#P hidden connect 39 0 38 0;#P hidden connect 36 0 38 0;#P hidden connect 47 0 46 0;#P hidden connect 7 0 20 1;#P connect 48 0 20 1;#P hidden connect 34 0 40 0;#P hidden connect 35 0 39 0;#P hidden connect 44 0 45 0;#P pop;