max v2;#N vpatcher 17 302 825 892;#P origin -215 -161;#P toggle 377 508 15 0;#P window setfont "Sans Serif" 9.;#P window linecount 1;#P newex 399 531 29 196617 gate;#P number 463 356 35 9 0 0 0 3 0 0 0 221 221 221 222 222 222 0 0 0;#P newex 353 136 72 196617 route /retard;#P newex 353 117 92 196617 udpreceive 20000;#P message 661 86 14 196617 0;#P newex 661 66 37 196617 sel -1;#P number 353 157 35 9 0 0 0 3 0 0 0 221 221 221 222 222 222 0 0 0;#P newex 323 157 27 196617 + 0;#P newex 408 446 81 196617 loadmess loop 0;#N vpatcher 10 59 310 284;#P inlet 150 29 15 0;#P outlet 50 134 15 0;#P window setfont "Sans Serif" 9.;#P window linecount 1;#P newex 50 112 32 196617 sel 0;#P newex 91 112 29 196617 gate;#P newex 127 75 33 196617 != -1;#P newex 110 50 27 196617 t i i;#P inlet 110 30 15 0;#P outlet 91 134 15 0;#P window linecount 0;#P comment 168 42 100 196617 on filtre les changements de film pour ne pas relire le même film;#P comment 4 41 100 196617 s'il n'y a pas de changement \, on bange directement dans la nouvelle date;#P fasten 5 0 7 0 132 97 55 97;#P connect 7 0 8 0;#P fasten 5 0 6 0 132 102 96 102;#P connect 6 0 2 0;#P connect 3 0 4 0;#P connect 4 0 6 1;#P connect 4 1 5 0;#P fasten 4 0 5 1 115 71 155 71;#P connect 9 0 5 1;#P pop;#P newobj 272 218 81 196617 p nouveau_film?;#P newex 218 318 21 196617 t 1;#N vpatcher 151 429 751 829;#P window setfont "Sans Serif" 9.;#P newex 100 240 27 196617 + 1;#P number 205 203 35 9 0 0 0 3 0 0 0 221 221 221 222 222 222 0 0 0;#P number 161 242 35 9 0 0 0 3 0 0 0 221 221 221 222 222 222 0 0 0;#P outlet 75 316 15 0;#P window linecount 1;#P newex 71 279 69 196617 pack film 1 1;#P window linecount 0;#P newex 74 108 51 196617 t film b b;#P newex 117 158 82 196617 random 100000;#P newex 88 199 55 196617 random 8;#P toggle 74 45 15 0;#P newex 74 70 64 196617 metro 2000;#P connect 4 0 5 0;#P connect 1 0 0 0;#P connect 0 0 4 0;#P connect 5 0 6 0;#P connect 4 1 2 0;#P connect 2 0 9 0;#P connect 9 0 5 1;#P connect 4 2 3 0;#P connect 3 0 5 2;#P connect 2 0 7 0;#P connect 3 0 8 0;#P pop;#P newobj 1 52 62 196617 p essai_duc;#P newex 321 458 73 196617 s montagefilm;#P number 104 24 35 9 0 0 0 3 0 0 0 221 221 221 222 222 222 0 0 0;#P newex 61 44 93 196617 pack film 1 10000;#P message 293 317 41 196617 time \$1;#P newex 293 296 40 196617 0;#P newex 272 273 31 196617 t 2 b;#P newex 272 183 27 196617 - 1;#P newex 323 179 76 196617 +;#P newex 218 156 64 196617 sel 0;#P newex 218 132 115 196617 unpack 1 1000;#P button 163 229 15 0;#P newex 218 388 129 196617 jit.matrix 4 char 640 480;#P newex 150 249 58 196617 random 25;#P newex 25 257 83 196617 r init_ubumenu2;#P newex 115 325 80 196617 print nb_photos;#P newex 70 347 105 196617 prepend importmovie;#P newex 115 306 74 196617 route populate;#P user ubumenu 25 283 100 196617 0 1 1 0;#X add echec_01.jpg;#X add echec_02.jpg;#X add echec_03.jpg;#X add echec_04.jpg;#X add echec_05.jpg;#X add echec_06.jpg;#X add echec_07.jpg;#X add echec_08.jpg;#X add echec_09.jpg;#X add echec_10.jpg;#X add echec_11.jpg;#X add echec_12.jpg;#X add echec_13.jpg;#X add echec_14.jpg;#X add echec_15.jpg;#X add echec_16.jpg;#X add echec_17.jpg;#X add echec_18.jpg;#X add echec_19.jpg;#X add echec_20.jpg;#X add echec_21.jpg;#X add echec_22.jpg;#X add echec_23.jpg;#X add echec_24.jpg;#X add echec_25.jpg;#X add echec_26.jpg;#X add pianovide.jpg;#X prefix_set 0 1 System:/Users/gbloch/Music/Oraclette/OMaxVideoN202/OMaxMaxVideo/images/ 0;#P message 123 92 341 196617 1 1 1000 \, 2 2 2000 \, 3 3 3000 \, 4 1 4000 \, 5 0 \, 6 2 6000 \, 7 0 \, 8 3 8000;#N coll $1_phrases_et_film;#P newobj 218 108 122 196617 coll $1_phrases_et_film;#P toggle 165 429 30 0;#P newex 199 435 29 196617 gate;#P newex 661 43 79 196617 r impro_miroir;#P toggle 687 86 15 0;#P newex 687 105 29 196617 gate;#P newex 560 191 59 196617 t 0 stop -1;#P user jit.pwindow 198 450 82 62 0 1 0 0 1 0;#P number 147 23 66 9 0 0 0 3 0 0 0 221 221 221 222 222 222 0 0 0;#P button 61 22 15 0;#P newex 706 85 32 196617 r M1;#P number 616 47 39 9 0 0 0 3 0 0 0 221 221 221 222 222 222 0 0 0;#P toggle 196 342 15 0;#P newex 360 260 77 196617 r init_ubumenu;#P user jit.fpsgui 199 511 60 196617 0;#P message 218 24 20 196617 fin;#P toggle 594 47 15 0;#P newex 594 66 57 196617 qmetro 40;#P newex 218 70 114 196617 osc_fastcut127 20010;#P newex 218 358 176 196617 gate 2;#P button 663 189 30 0;#P newex 560 171 55 196617 delay 500;#P comment 234 52 138 196617 no_phrase \, date (duree) \, fin;#P newex 479 325 74 196617 print archives;#P hidden newex 433 495 106 196617 bgcolor 160 190 180;#P comment 346 305 49 196617 clip menu;#P newex 384 388 105 196617 jit.qt.movie 640 480;#P newex 411 317 64 196617 prepend read;#P newex 479 306 74 196617 route populate;#P user ubumenu 343 282 147 196617 0 1 1 0;#X add P01DAL2F1000.mov;#X add P02DAL2F1000.mov;#X add P03DAL2F1000.mov;#X prefix_set 0 1 System:/Users/gbloch/Music/Oraclette/OMaxVideoN202/OMaxMaxVideo/FILMS_PDSDAL/ 0;#P window setfont "Sans Serif" 14.;#P newex 398 551 85 196622 print DBMF;#P window setfont "Sans Serif" 9.;#P window linecount 2;#P comment 391 155 100 196617 offset entre film et buffer;#P user panel 587 40 161 118;#X brgb 170 190 190;#X frgb 0 0 0;#X border 1;#X rounded 0;#X shadow 0;#X done;#P connect 38 0 34 0;#P fasten 39 0 34 0 155 277 30 277;#P connect 23 0 49 0;#P connect 34 1 36 0;#P connect 50 0 49 1;#P connect 34 2 35 0;#P connect 35 0 37 0;#P connect 24 0 49 2;#P connect 41 0 39 0;#P fasten 43 0 39 0 223 211 155 211;#P connect 31 0 30 0;#P connect 30 0 25 0;#P connect 25 0 18 0;#P connect 17 0 14 0;#P fasten 49 0 14 0 66 67 223 67;#P connect 52 0 14 0;#P connect 14 0 32 0;#P connect 33 0 32 0;#P connect 32 0 42 0;#P connect 42 0 43 0;#P fasten 40 1 53 0 342 414 201 414 201 307 223 307;#P fasten 46 0 13 0 277 341 223 341;#P connect 53 0 13 0;#P connect 20 0 13 0;#P fasten 26 0 13 0 565 349 223 349;#P connect 36 0 40 0;#P connect 13 0 40 0;#P connect 6 0 30 1;#P connect 40 0 30 1;#P connect 43 1 45 0;#P connect 45 0 54 0;#P fasten 6 1 46 0 484 411 557 411 557 250 277 250;#P connect 54 0 46 0;#P connect 46 1 47 0;#P connect 62 0 48 0;#P connect 47 0 48 0;#P fasten 40 0 51 0 223 430 326 430;#P fasten 6 0 51 0 389 431 326 431;#P connect 42 1 56 0;#P connect 56 0 44 0;#P connect 44 0 47 1;#P connect 61 0 56 1;#P fasten 26 2 54 1 613 213 348 213;#P connect 19 0 3 0;#P connect 54 1 3 0;#P connect 60 0 61 0;#P connect 61 0 57 0;#P fasten 27 0 13 1 692 352 389 352;#P fasten 13 1 6 0 389 380 389 380;#P connect 5 0 6 0;#P fasten 26 1 6 0 589 382 389 382;#P connect 48 0 6 0;#P connect 55 0 6 0;#P connect 14 1 44 1;#P connect 63 0 2 0;#P connect 64 0 63 0;#P connect 3 1 5 0;#P connect 6 1 63 1;#P connect 46 0 63 1;#P connect 3 2 4 0;#P connect 4 0 9 0;#P connect 14 2 11 0;#P connect 11 0 26 0;#P connect 16 0 15 0;#P connect 21 0 15 1;#P connect 29 0 58 0;#P connect 58 0 59 0;#P connect 11 0 12 0;#P connect 58 1 28 0;#P connect 28 0 27 0;#P fasten 15 0 27 0 599 103 692 103;#P connect 59 0 27 0;#P connect 22 0 27 1;#P pop;