max v2;#N vpatcher 58 270 514 663;#P origin 6 -148;#P outlet 233 335 15 0;#P window setfont "Sans Serif" 9.;#P window linecount 1;#P newex 101 94 52 196617 t i i;#P newex 233 191 37 196617 t 0 -1;#P newex 233 148 34 196617 gate;#P newex 233 286 49 196617 route int;#P message 233 265 21 196617 $2;#P newex 143 191 40 196617 t i 1;#P outlet 143 335 15 0;#P newex 233 310 56 196617 pack;#P newex 233 244 56 196617 t b i;#P newex 233 223 56 196617 change;#P newex 293 44 67 196617 loadmess $2;#P newex 100 72 203 196617 expr $i1 & pow(2\\\, ($i2 - 1));#P toggle 143 117 15 0;#P inlet 100 42 15 0;#P newex 143 147 38 196617 gate;#P comment 275 94 86 196617 date \, (duree) \, fin;#P newex 171 94 97 196617 osc_fastcut127 $1;#P hidden newex 127 22 106 196617 bgcolor 160 190 180;#P newex 101 146 28 196617 sel 0;#P comment 49 168 82 196617 non permis = fin;#P window linecount 4;#P comment 295 277 100 196617 sort numéro_de voix \, 0 ou 1 selon que cela peut jouer ou non;#P window linecount 2;#P comment 23 260 100 196617 sort date (ou -1) vers montage;#P connect 8 0 10 0;#P connect 10 0 21 0;#P connect 21 0 3 0;#P connect 21 1 9 0;#P connect 9 0 7 0;#P connect 7 0 16 0;#P connect 20 1 15 0;#P connect 16 0 15 0;#P connect 5 0 7 1;#P fasten 9 0 19 0 148 140 238 140;#P fasten 3 0 20 0 106 179 238 179;#P connect 19 0 20 0;#P connect 20 0 12 0;#P fasten 16 1 12 0 178 215 238 215;#P connect 12 0 13 0;#P connect 13 0 17 0;#P connect 17 0 18 0;#P connect 18 0 14 0;#P connect 14 0 22 0;#P connect 5 2 19 1;#P connect 13 1 14 1;#P connect 11 0 10 1;#P pop;